<mxfile host="app.diagrams.net" modified="2021-09-23T07:51:16.028Z" agent="5.0 (Windows NT 10.0; Win64; x64) AppleWebKit/537.36 (KHTML, like Gecko) Chrome/92.0.4515.159 Safari/537.36" etag="S4pH7xdmLf-yEnMOb4SK" version="15.3.0" type="github">
  <diagram id="K3oaJmJBMC4Tva62m10V" name="第 1 页">
    <mxGraphModel dx="1422" dy="772" grid="1" gridSize="10" guides="1" tooltips="1" connect="1" arrows="1" fold="1" page="1" pageScale="1" pageWidth="827" pageHeight="1169" math="0" shadow="0">
      <root>
        <mxCell id="0" />
        <mxCell id="1" parent="0" />
        <mxCell id="5ma04NB9gAkps2_NYaoQ-1" value="" style="shape=image;verticalLabelPosition=bottom;labelBackgroundColor=#ffffff;verticalAlign=top;aspect=fixed;imageAspect=0;image=data:image/png,iVBORw0KGgoAAAANSUhEUgAABGwAAANGCAYAAACoYBiCAAAgAElEQVR4Xuy9C7RdVXmw/c6NSIiIAZIIJRZSLEhBOetsTbCICV6AUBAN1lLsnwhIGP0LSaNS4KMECVrBWGkCXx3GTzC0pfnk4k9Bbt4SA0qCZ++IoVgFQyAIhIDhIkSEPf8xF2dt11nZ970u71r72WM4JOfMyzufd+6dvZ7MixFeEIAABCAAAQhAAAIQgAAEIAABCEAAAqoIGFXREAwEIAABCEAAAhCAAAQgAAEIQAACEICAIGyYBBCAAAQgAAEIQAACEIAABCAAAQhAQBkBhI2yhBAOBCAAAQhAAAIQgAAEIAABCEAAAhBA2DAHIAABCEAAAhCAAAQgAAEIQAACEICAMgIIG2UJIRwIQAACEIAABCAAAQhAAAIQgAAEIICwYQ5AAAIQgAAEIAABCEAAAhCAAAQgAAFlBBA2yhJCOBCAAAQgAAEIQAACEIAABCAAAQhAAGHDHIAABCAAAQhAAAIQgAAEIAABCEAAAsoIIGyUJYRwIAABCEAAAhCAAAQgAAEIQAACEIAAwoY5AAEIQAACEIAABCAAAQhAAAIQgAAElBFA2ChLCOFAAAIQgAAEIAABCEAAAhCAAAQgAAGEDXMAAhCAAAQgAAEIQAACEIAABCAAAQgoI4CwUZYQwoEABCAAAQhAAAIQgAAEIAABCEAAAggb5gAEIAABCEAAAhCAAAQgAAEIQAACEFBGAGGjLCGEAwEIQAACEIAABCAAAQhAAAIQgAAEEDbMAQhAAAIQgAAEIAABCEAAAhCAAAQgoIwAwkZZQggHAhCAAAQgAAEIQAACEIAABCAAAQggbJgDEIAABCAAAQhAAAIQgAAEIAABCEBAGQGEjbKEEA4EIAABCEAAAhCAAAQgAAEIQAACEEDYMAcgAAEIQAACEIAABCAAAQhAAAIQgIAyAggbZQkhHAhAAAIQgAAEIAABCEAAAhCAAAQggLBhDkAAAhCAAAQgAAEIQAACEIAABCAAAWUEEDbKEkI4EIAABCAAAQhAAAIQgAAEIAABCEAAYcMcgAAEIAABCEBAPYEpU6bsOnny5MXW2lkisr8x5g3qgy5WgM9Zax81xty2ZcuWRZs3b36pWMNjNBCAAAQgAAF9BBA2+nJCRBCAAAQgAAEIhAg4WTNp0qQRY8zBgMmegLX2geeff9578MEHf5d9NEQAAQhAAAIQKC4BhE1xc8vIIAABCEAAAoUgMDQ09LlSqXTBXrvuLgsO/6hMn3KwTBz/pkKMLS+D2Pris7J28wOy9J7r5emXnpNarfb59evX/2Ne4idOCEAAAhCAQB4JIGzymDVihgAEIAABCAwQAc/z1hlj3vWFD8yTow945wCNXN9Q73zoJ3L+d5eLtfbearU6TV+ERAQBCEAAAhAoDgGETXFyyUggAAEIQAAChSQwPDz8rIjsvua0ZTJ+53GFHGNeBrVt+wvy/hWfcsLmN9Vqdc+8xE2cEIAABCAAgTwSQNjkMWvEDAEIQAACEBggAsPDw9YNd+TM5QM0ar1DLX91nh9cpVLhe6TeNBEZBCAAAQgUgAB/0RYgiQwBAhCAAAQgUGQCCBtd2UXY6MoH0UAAAhCAQHEJIGyKm1tGBgEIQAACECgEAYSNrjQibHTlg2ggAAEIQKC4BBA2xc0tI4MABCAAAQgUggDCRlcaETa68kE0EIAABCBQXAIIm+LmlpFBAAIQgAAECkEAYaMrjQgbXfkgGghAAAIQKC4BhE1xc8vIIAABCEAAAoUggLDRlUaEja58EA0EIAABCBSXAMKmuLllZBCAAAQgAIFCEEDY6EojwkZXPogGAhCAAASKSwBhU9zcMjIIQAACEIBAIQggbHSlEWGjKx9EAwEIQAACxSWAsClubhkZBCAAAQhAoBAEEDa60oiw0ZUPooEABCAAgeISQNgUN7eMDAIQgAAEIFAIAggbXWlE2OjKB9FAAAIQgEBxCSBsiptbRgYBCEAAAhAoBAGEja40Imx05YNoIAABCECguAQQNsXNLSODAAQgAAEIFIIAwkZXGhE2uvJBNBCAAAQgUFwCCJvi5paRQQACEIAABApBAGGjK40IG135IBoIQAACECguAYRNcXPLyCAAAQhAAAKFIICw0ZVGhI2ufBANBCAAAQgUlwDCpri5ZWQQgAAEIACBQhBA2OhKI8JGVz6IBgIQgAAEiksAYVPc3DIyCEAAAhCAQCEIIGx0pRFhoysfRAMBCEAAAsUlgLApbm4ZGQQgAAEIQKAQBBA2utKIsNGVD6KBAAQgAIHiEkDYFDe3jAwCEIAABCBQCAIIG11pRNjoygfRQAACEIBAcQkgbIqbW0YGAQhAAAIQKAQBhI2uNCJsdOWDaCAAAQhAoLgEEDbFzS0jgwAEIAABCBSCAMJGVxoRNrryQTQQgAAEIFBcAgib4uaWkUEAAhCAAAQKQQBhoyuNCBtd+SAaCEAAAhAoLgGETXFzy8ggAAEIQAAChSCAsNGVRoSNrnwQDQQgAAEIFJcAwqa4uWVkEIAABCAAgUIQQNjoSiPCRlc+iAYCEIAABIpLAGFT3NwyMghAAAIQUEagXC6Pr9VqXxOR71Wr1avK5fJEa+0t1tqHSqXSGSMjIy96njdDRGZVq9XzlIWfWTgIm8zQN+wYYaMrH0QDAQhAAALFJYCwKW5uGRkEIAABCCgj4ISNtfbvReTz1tprS6XS+dbabwbCplarnWyM+bq1dpMxZlalUnlA2RAyCQdhkwn2pp0ibHTlg2ggAAEIQKC4BBA2xc0tI4MABCAAAaUEPM87TUQWichcY8xlo8JmjLxxq22Uhp96WAib1JG37BBhoysfRAMBCEAAAsUlgLApbm4ZGQQgAAEIKCLgtjoZY1Z1E5K1dma1Wl3dTZ0iltUsbLa/8rJc/uPr5ORD3ydT99inK/w3/fwumbL7JCn/0UF+Pffn4LXusZ/LhTPmyLjXvb6rNtMojLBJgzJ9QAACEIAABEQQNswCCEAAAhCAQMoEhoeHD7bW3maM2a9B12uNMcePjIxsTTkstd0VSdhs/M3jctatS+WJF54Zw/vYt06TQydPlfE77yInvu09MvLr/5EbH1ijUtogbNS+VQgMAhCAAAQKRgBhU7CEMhwIQAACENBJIDhgWESmB2fUGGOeCh867CJ3hxIbY04REcTNaCrzKGzcapnFq6+pT8a9d9tTrjxuwZhVONEVNk7SbH7uKV/YaH4hbDRnh9ggAAEIQKBIBBA2RcomY4EABCAAgVwRaHRLVK4GkFKwWoVNVMo4HIGYue/Jh+rbnYJtUx9525Hyb/fdKbc/uK5jcm7ljbatUQibjtNHQQhAAAIQgEBfBBA2feGjMgQgAAEIQKAzAu6gYXcDVGelXytlrT3dXf/dTZ0iltUqbBzr8Bk2+7xxL1n+k5tlztAxsvrh9TsIm/A5N25r1MoN35eF7/7L+jk1boXN3Y9skPmHn6Q6jQgb1ekhOAhAAAIQKBABhE2BkslQIAABCEAgPwTCW6RG5QxXeTdJX5GEjVt5E94qFQzZrcz5+8M/Ko8+t0VO847jDJv8vJWJFAIQgAAEIJAYAYRNYmhpGAIQgAAEINCYQLlcHh+cVWOtvUxE3AHE7gYpzq1pgKxIwsbdJOW2Um3a9qSccNCfj1lls237C3LN+jv8FTpfufemnm6eSuM9xwqbNCjTBwQgAAEIQIBbopgDEIAABCAAgVQJhLdGhbc8hW+O4jrvsSnRLGycZFly90o554iT/a1N7bZE7bHrG2XBbVfIhi0bxwzS3RB12QfPlG9u+IHstsuu8sLvXlK7NQphk+pHBp1BAAIQgMAAE2CFzQAnn6FDAAIQgEB6BCKiZma1Wl3dqHfP82aMrrbhDJtRQJqFTfj6bXeeTSBv2p1h44bW6BybZffcICOP/0KWzjpbJozbLb0J2kVPCJsuYFEUAhCAAAQg0AcBhE0f8KgKAQhAAAIQgEDyBDQLGydY9pvwZv8q7vBqm06FzVm3LpUnXnhG3Aqbi486VS76wdX+YcXuZqjHn396h4OJk6fdvgeETXtGlIAABCAAAQjEQQBhEwdF2oAABCAAAQhAIDECWoWNW12zbO2N9dUw4RUzdzy4bszhwuHrvsOHDgfXdrvVOW6r1Pzps/2boo7440N9npufe8qXQZpeCBtN2SAWCEAAAhAoMgGETZGzy9ggAAEIQAACBSCgUdg4wXLJ6mtk9sFH+oTn3fzP/v8vmjHHFyzuYGG3Uqb8RweNufrbHTocvALBc6o3S/7ph//uX/Htfh+0vf6JB+XK4xb4P9P0QthoygaxQAACEIBAkQkgbIqcXcYGAQhAAAIQKAABjcKmAFh7HgLCpmd0VIQABCAAAQh0RQBh0xUuCkMAAhCAAAQgkDYBhE3axFv3h7DRlQ+igQAEIACB4hJA2BQ3t4wMAhCAAAQUEghugbLWXlatVs8LQvQ871JjzLnhq74Vhp9JSAibTLA37RRhoysfRAMBCEAAAsUlgLApbm4ZGQQgAAEIKCQQEjP1q73L5fJEa+0tLlxjzPEjIyNbFYaeWUgIm8zQN+wYYaMrH0QDAQhAAALFJYCwKW5uGRkEIAABCCgiEKysiYbkVtSIyIFudU2D39WljqKhpB4KwiZ15C07RNjoygfRQAACEIBAcQkgbIqbW0YGAQhAAAKKCES3Qnmed5ox5uvW2q+IyHEicnepVDpjZGTkxdDvEDYigrBRNJFFBGGjKx9EAwEIQAACxSWAsClubhkZBCAAAQgoItBC2Nw6GuYXq9XqavffCJuxiUPYKJrICBtdySAaCEAAAhAoNAGETaHTy+AgAAEIQEALgRbC5nRjzI+ttV8qlUpz3fk1jc650TKOLOJA2GRBvXmfrLDRlQ+igQAEIACB4hJA2BQ3t4wMAhCAAAQUEWhxhs0CEZlujDnFWnut2xZVq9UWjd4YxZYotkQpmsWvhYKwUZcSAoIABCAAgYISQNgUNLEMCwIQgAAEdBFotcKmVCr91+gtUdODQ4hF5GRjzKxKpfKArpGkHw0rbNJn3qpHhI2ufBANBCAAAQgUlwDCpri5ZWQQgAAEIKCIQCthU61Wr3K/F5F5xpjPWWvnImz+kDyEjaKJzAobXckgGghAAAIQKDQBhE2h08vgIAABCEBAC4F2wiYcpzvDBmGDsNEyd6NxsMJGa2aICwIQgAAEikYAYVO0jDIeCEAAAhBQSaDFGTanuxU2QdDlcnl8rVb7mjHmAGPM8e4QYpUDSjEoVtikCLuDrhA2HUCiCAQgAAEIQCAGAgibGCDSBAQgAAEIQKAdgTZn2KwclTSnBO24s2zCIqdd+0X+PcJGV3YRNrryQTQQgAAEIFBcAgib4uaWkUEAAhCAAAQKQQBhoyuNCBtd+SAaCEAAAhAoLgGETXFzy8ggAAEIQAAChSCAsNGVRoSNrnwQDQQgAAEIFJdA4sIm+JJVXIT5HFmlUkk8963IDA8Pf1ZELsonvUJHfXGlUnG5yfzFHMk8Bc0CUDNH1BIisNgJIGxiR9pXgwibvvBRGQIQgAAEINAxgcQf2hE2Heci1YIIm1Rx56kzNQ/jCBu100bNHFFLiMBiJ4CwiR1pXw0ibPrCR2UIQAACEIBAxwRSEzYjtyzvOCgKJkegfPw8v3EtwmbeXx8vZ378Q8kNmJY7IvDV//gvWf6ft7iyah7GA2HDHOkohYkX0jhHEh80HaghgLBRkwo/EISNrnwQDQQgAAEIFJcAwqa4uW04MoTNgCW8w+FqfBhH2HSYvJSKaZwjKQ098W48zzvNGPN1boVqjhphk/g07KoDhE1XuCgMAQhAAAIQ6JkAwqZndPmsiLDJZ96SjlrjwzjCJumsd9e+xjnS3Qj0lA4Jmsuq1ep5CJv2uUHYtGeUZgmETZq06QsCEIAABAaZAMJmwLKPsBmwhHc4XI0P4wibDpOXUjGNcySlocfaTblcnmitdfsPp1trZ1ar1dUIm/aIETbtGaVZAmGTJm36ggAEIACBQSaAsBmw7CNsBizhHQ5X48M4wqbD5KVUTOMcSWnosXbjed6lxphzO2nUWrvJGDOrUqk80En5IpdB2OjKLsJGVz6IBgIQgAAEiksAYVPc3DYcGcJmwBLe4XA1PowjbDpMXkrFNM6RlIYeWzfBShoRWWuMOX5kZGSra5wVNu0RI2zaM0qzBMImTdr0BQEIQAACg0wAYTNg2UfYDFjCOxyuxodxhE2HyUupmMY5ktLQY+vG87wZxphVwVaooGGETXvEnuc9bYzZ83tzvywTxu3WvgIlEiOwbfsL8v4VnxJr7TPVanWvxDqiYQhAAAIQgAAEBGEzYJMAYTNgCe9wuBofxhE2HSYvpWIa50hKQ4+tG3d+Ta1W++tqtXpFuFGETXvEnue5VUnTvvCBeXL0Ae9sX4ESiRG486GfyPnfXe6EzbpqtTo9sY5oGAIQgAAEIAABhM2gzQGEzaBlvLPxanwYR9h0lru0SmmcI2mNPe5+QlujWjbNNd9/wDM8PLxQRL681667y4LDPyrTpxwsE8e/Ke7U0F4LAltffFbWbn5Alt5zvTz90nOu5MJKpfIvQIMABCAAAQhAIDkCrLBJjq3KlhE2KtOSeVAaH8YRNplPizEBaJwjugj1Hg0rbNqzK5fLO1trfyYiB7UvTYmkCVhr/7tUKg2NjIz8Pum+aB8CEIAABCAwyAQQNgOWfYTNgCW8w+FqfBhH2HSYvJSKaZwjKQ098W4QNp0hnjJlyq6TJ09ebK2dJSL7G2Pe0FlNSsVE4Dlr7aPGmNu2bNmyaPPmzS/F1C7NQAACEIAABCDQhADCZsCmBsJmwBLe4XA1PowjbDpMXkrFNM6RlIaeeDcIm8QRq+kguO2qUqkk/v1LzaAJBAIQgAAEIACBngkk/oWhfhXnLct7DpKK8RFA2MTHskgtaXwYR9jommEa54guQu2jGR4ePthae5sxZr/2pV8rYa29rFqtntdpecrpJoCw0Z0fooMABCAAAQhoI4Cw0ZaRhONB2CQMOKfNa3wYR9jomkwa54guQkQDgfYEEDbtGVECAhCAAAQgAIE/EEDYDNhsQNgMWMI7HK7Gh3GETYfJS6mYxjmS0tDpBgKxEUDYxIaShiAAAQhAAAIDQQBhMxBp/sMgETYDlvAOh6vxYRxh02HyUiqmcY6kNHS6gUBsBBA2saGkIQhAAAIQgMBAEEDYDESaETYDluauh6vxYRxh03UaE62gcY4kOmAah0ACBBA2CUClSQhkSCA4m0xE7i6VSmeMjIy82Cyccrk8vlarfU1EvletVq8ql8sTrbW3WGsfCup6njdDRGaFzy4LlTu3Wq2uDrfvyhtjVllrT3dtRvv2PO9SY8y51tqZQd1QzCsbnZEWHITfIda1xpjja7XaZ1w/Ter4ZUZGRrYGDIwxBwQ/c3VC4xhzblso/objaxdjo3abxdCurVa/bxZ/ozrh8+zCeWnXfzAPXLkwu2i9RvOqXduROXWpiJxsjJlVqVQeCLcnIpeLyP82xnzC/a6bdinbOwGETe/sclmTFTa5TFviQWt8GEfYJJ72rjrQOEe6GgCFIaCAAMJGQRIIAQIxEgjd8tf2gHgnCqy1fy8in7fWXlsqlc631n4zEDa1Ws09JH/dWrspeFgelRmnuZ+LSF18BENoJWxCgugIEXnSGDOt1dCDQ+5DY6pLHidOGj3Eh+VBSIScEhURQX0R+aiILGwgbHYQS60ERbND/Bv0Gwiten4aCatADEX5NBNh0XKdCpswI9fG6DxoKfqCvvoVNkGM4diDuWatnezEX6P54WJ0+XLz1Fr7/xljlrjLE7qRTTG+5QayKYTNgKUdYTNgCe9wuBofxhE2HSYvpWIa50hKQ0+0m17/pS3RoGg8MQIIm8TQ0jAEUiHQ5eoTP6bobX+uDRFZJCJzjTGXjQqbMfImulJntM6ZIvJ3IvKOUYHTcMyBZGgmETpdYRN+IO9E2ITlValUWhxeTdRM2NRqtUMaiQI3BhE5sNGqHReXMWaLu3VRRPxVQuG+m630CeRISIwtEJFPuTw0WLnkS7KAQSPZ0W7CRfMeEVqXjcout/rJybsx0iYkZ6a362f09y1XOrk+rLX/USqVvh2aH2MkXEgCNl1h4+IUkfEi8mKr1WQdxkyxDgkgbDoEVZRiCJuiZDLecWh8GEfYxJvjflvTOEf6HVPW9aP/Qhj9V9Ws46P/+AkgbOJnSosQyIpAN9t1enzgnykibuuQW10TyB8nMtxrkVuFE6yMGBUcD41uj/JXxjTaDuUqdipsOuTqiwJr7aRRgeK268wyxjw1ut1r79E457oVOtEVNoGwabC65ysiclx4q1l45U8LYVNfFeTij0qr8Koja+05brWIkz4ttnPtINzCXBqsmGm40iryjzO+oHHtOKlljDml0eqpKP8eVtisKpVKXwq23TUTNrVa7SOlUsltaXNxdPzqZnVQx41SsCEBhM2ATQyEzYAlvMPhanwYR9h0mLyUimmcIykNPZFuQl8id/jixjLjRJCraBRhoyINBAGBvgmEHsCfCJ3P4p9J4xpvdcZIs+08o0HtsO0pLBlG5ce7Gwmb8Bk20dWbUfHTAEC93162RNVqtQ81W/XjHuxF5NlRATNmS1QLYXPraIxfDFa/dCJsarXaXzj2xpgr3BkrUWETklVOxATCxskkX4x1+/dvdGVPdFXNqDQKtrTtsAWqgfBpelZPp8ImLOQ6ETaNtt+Ft4IlceZP32/AAWsAYTNgCUfYDFjCOxyuxodxhE2HyUupmMY5ktLQY+2m02XOrLaJFbuaxhA2alJBIBDomUCzs1paPVCHP/uDz/fQKhT/0GEXUKMVFyEp4D/Mt9qWFTqTxG238g8BdhIiLCQarE5x58e4bUb+wcC9CBtXrxHQ0UOU/2pU1rginQqb040xP7bWfqlUKs0djat+zk0wBneWSrhfJ0xGD1n2/zGkVqu9a3TVkb/yJbTqaFNE2LhVQTscmtzq7+KwDBKR28L9BDGFzsZZ67a+NVvFYq1dJyJvduN59dVX/7lUKu3T64oXa607X8ZtF1tcKpX+q90Km0ACthNuxpjh0QOmPyQi7293yHbPbzAq7kAAYTNgk6JIwmbbcy/IgouvkA3/s7GexbknHSPzTz2p66xufPRxufzr18niT50mE3bfrev6rsJNd94li5dd49c99KCpsvSis3tuq1kAwZjnf2K2lN9+UE9xNqqk8WE8LmGz7OobZMUNd9SHvfwLn46VXWxJ6LOhYP4tmj9HTjz6PTu05ub4WYuWyjHvfVdP7xGNc6RPZKlXb7Y8PRpI+Mt4o3+tSz1wOoyNAMImNpQ0BIHMCISERv3gYBFpdtbIDitmgsA7uc0nvJXKWuufuTJ64GsgHI5y21lcm6Oyx799KXxrU6/CpkPAjQ5C3uFslB7OsHFjne6kRejsGbcNzL/xqtWWKHfL1mg5t30s2CYWCJvgbJq6sHHiplQqfdpau3xUEvmyo9GtWwGT6O1gUTHUIbuOikXPvml0s1e4ofBB1J0Km9HVSGPO7Ym06ec0JLn8rW/cFNVRCvsuhLDpG2G+GiiKsAkePuf99fH1h9Ptv3tZLhkVJhfOnyPjdnl9x8npV9i4h+V1P/25BP06sXL76nVy8gnv6ziGTgoibDqh9FqZgFX50APrgsLNkeXX3ixzTjqmL5nmJJB79SIHOx9BdyUDYdNMFrrff+euETlw6pSe4kbYdJcPSkOgEQGEDfMCAvkmEBEoYw6LbbXCpsfDinc4eDfYXmSM+duA5Oj5Ne4B2m3pCcSEfz14IDhS2BLV8PBgF2NwgHCXZ9icHsgGJ27CbThRMNpuo0OH6zLHGPNErVZzq1XcTVwBl3eKiDv0+bjwGTbBDVihdpsKm0bb4VpcS+7fUtXNrG90w9bo6p/wtjXXrltN5K+KisiVungplUr3d7LCJrzaa/Tq7uvD0iryD0ljbjHrZmyU7Y0AwqY3brmtVQRhE4iZaYe9bYeVBK1+1ypp/QiboM/Zxx6Z25UbGh/G+1lhE+TkzRP36ElOtHuDaxU23/tRxQ/drTQLr8By8mrJV1fKAfv9kbzw25d6YqJxjrTLk7bfR/eqh75su+XqOyzH5kA/bRnsPx6ETf8MaQECWRIYXSn5nIh8KLiOO7gtp9MzRlz80e2xzbbejN4O5d+WVKvVPuZWgoyu5nEP7x+r1WpfCG2dGbPaJSQRZoYe3M/tYEtU0xUywaqKNnKq6xU2DQ4dDrZ/OfE0zxjzOWutf3BxO2ETHLgsIr+21j4eFjaOfXBLVy+HDoeEXTPWTa93b1S30fazRvJlVCT5BypH5k7DFU7BFrfRerdYa500CrZtBWzreQpEVXSL2ejP3Y1Wft3RP7vVT28LzgnK8v04KH0jbAYl06PjLIKwaSdXwqtd3IP7oi9fJSe8/8/lX666Xob+7K3+Khj38/B2qs/M+yv5ceX++pao4IHfrZIJHoCD1RSu/U2PPen/3G21ufLi+XLL9++RVnIgun0rvG0l2t6nz/iY3PHDe8dsqRr52f/Ism/c6MfnxhPeEhWsNnriqWd63oql8WG8H2HjmFx0+dVy8cJTZepb9mn4Lm9UJrpSKrzNzeXsmBnT/FVcwbxwDQdbrFyO5p3/z/W+wtvzXP7D89Dl6tgZ0+ScM0/2RUrQXni7Vjdz0NXb/PhT/iqvWTOny22r1tZXe7mAgjm2375v9uduLyuDNM6RvH18Rw/uCw5pHF2u7v7F0P8iGj3XgKsz85bp5vEibIqTS0YyuASabWXqVNg0uN45eBhuuH2qiXjxz70JrqgefZAec2BttF6tVjvFGLM0yFz4YNngZ83G0Mm13kEb0bLhmdLg70F/ZU4zYRORFzsIhgbXere8JaqJsPGv9Q6tnFlurT3CGPOZ8Jaf0LbmHa7hbrbCJsxkdLXTmNUpQ0NDxxlj/nV0m1vD2ANpEvuevFsAACAASURBVN4KFfkHoPq8Cc3NVa58+M9h6RKaAzuslglt96qvMopsA1xQq9XcPHq03faswf2UiHfkCJt4eapvrQjCxj0Y33j7mjEPpGHwgdxwZ8i4lxMzU/aeNGa7kvvZ7GOO9FfoBA/Gm594ypckbiuVeygPBEx01U7wEB9+uA6kSSCEwtuxAlkT9Bfd1hRtL/r7cP8zDh/yxxMIm0ASBLG4uu5Mn/e86+1dzUWND+P9CJt2c8TBaSds7v/FRl+SBWcR3XXvz3wh5s44iq6wcf0t+vLVcuXiBb4giq7wCXIazMNAGG595tl6HTcPbrxjTc9zMJBNZ39itpx76VfrcyS8AsxJHYRNV2+NWAsjbGLFmcvGEDa5TBtBQ2AMgX6ETWRrSV2wRG91Cm5GGhUM/raa8Fk0zVISljBhYTO66iS6PafR6oygrzFSIiphGm0L6kfYRMcTlUnRvz+Da8QbHDoclR7B9qA66wYrbNzKHbelLCyO6swjV6Q3vMUpejB0eDxtbgWrFw2vsmq2IrfFW9HPpbt1y/17crASKnxjVKsVNtbadzc7dDjcp4vRLeR227HcmT+tzvnhYyM+Agib+FjmoqVBETaB0AkejMMrUho9zIdX7Ty06bExD+ouscEKBbcyIboKI0h8eBVNeHVFo/Lugd+tdnDCqNnvXbuuv7BY2ONNbxwjbMLt9DMBETavrcIJ58IJm7CECfMNC5tm2/DCcyoQh+F5GJU+/c7BcOx3rF5XFzPh+R7+ebfzReMc6XYMWZdvtyWKFTZZZyjW/o3neY8YY6Z00OqaSqXy3g7KUQQCEFBAICxs3HXV4fNkGoXnVo+IyC+CB+JWV0dHzsipbwsKhM3odib3L5JXichCEfle8NAcvmJ69EakQDrUDysWkfA5KP6tS0HMo3F+xd0A5H4WfhgPhE2wjSgQJYFYCd2GtAOC0ZubVribi0L16mftNFthUyqVVoZuzfLbDfoLi4jRsdbPbXHlIufGRLcvuTNs3AHG/qG5zS4EiPYRHVg4V6O/a3rAdLtpO9rXP7qF26FrzOuCrc2ccXl8zhhzY61W+8To+Ou8QzeHTR5lvcOWqPBKougKm1HB5W6FOt9a+83Qlrwdzs9pN05+3xsBhE1v3HJbqwjCppctUQtP/8v61piwfAkSGX1YDm9tCcq4LSxuO1W7h97oagpXPrg9KjxxAqnTLp7V96yvP3yHV98ccuBUfyVQHGfnaHwY72eFTbs54vLQboWNWyUV3hIVXlHVSNhE8xAVbW5LVHgeNhI2wTauZ7Y9N2Z7VSdzMCxsHt/ydH1L2M3f/dEYOcgKm+w+vjtZYSMitwZf/hstV88uenruloDnef9kjHFfcN3DQ6vqX6tUKvO6bZ/yEIAABCAAAQgUnwDCpvg5HjPCIgibTg4dDh6eg7NDosImfKOTAxTeRtVohU0YYiPBEp1GYWHghEu0v3btBWMMziMJjyfYEhUIm0aHL3c7rYsmbDo5fLoTYRNwjG556mWFTbfCJrwdK5rPRnMwulLLxfjbl7aLkzfBdfWdzN1mc0fjHOl2nmsu32rPv+a4ia05Ac/z/swY427o8AtFpU1I5MyuVCrfgiUEIAABCEAAAhCIEsi1sGn1UBbXVpFWU6bZ1hjN06wIwsbx7fRa70bCJqi7+FOn+jfpBKtWXLvhc2+CM2fcz12up+wzyS8ffehtdFV0dLXDWYuWStCfa++qb94qR73b81f9NHuIdj+/4fYf+memBA/c0fNtoiKBM2z+8O4LzvcJH/AczpUrGT7LKLoyas26++St++/r5yg6jzo9wyaQaY3mYasVNsHWt07nYDBHw2IwGH90ex4rbDR/QhNb0Qh4nrfeGHNYi3G9aozZnYOli5Z5xgMBCEAAAhCIhwDCpg+OCJve4fWz3SXoNXrzkvt5+OHc/bnRg7L7efhGn70n7Sl/f9pH5ebv/WgHMeIO8I2220iwRGNxh9MGh9WGBZO7Hci9wttrmgmbRlIqKmyiY4n222mGNK6eSGKOuFwHBwM3Yjdj+mHy0KZfN7xJLDy3wjdzNbslKly+W2ETSKLwTWaNbhYL3/YU/Txycuryr18nJ5/wvpbbAfM8RzqNnXIQyIrA0NDQZ0ql0pJm26LcVavVavWorOKjXwhAAAIQgAAEdBNA2OjOT+zRFWWFTexgBrzBogqbAU9rrMPXOEdiHSCNQSABAu94xzsm77TTTk8YY0xY2oT++x8qlcqSBLqmSQhAAAIQgAAECkBgYIRN+PDQ6L98t/tXbJfnFTfcMWZVhPtZdGVE+F/d3e+Df3mPbn1wvwv/rFm9JOYXwiYJqvlvU+PDeBwrbPKfGT0j0DhH9NAhEgg0JzA8PPx9ERmziiYQNq+88srb77vvvg3wgwAEIAABCEAAAo0IDISwCR8o684Dueven4nbOuJejc6wCK7eDSRPePtKGGJY2LjtB9+6Y4185JgjJbhd5sY71vjbYqKH2IYPO91n8l5N67lY434hbOImWoz2ND6MI2x0zS2Nc0QXIaKBQGMCoat2xxw8bK19rFqtdnLtN2ghAAEIQAACEBhQAgMjbBZ9+eoxZ1e4fDc6gyZ8WHG7M2pa3bgSviUoEENhEdTs1qBOriPuZ64ibPqhV9y6Gh/GETa65pvGOaKLUGfRuNugjDHndlZa1hpjjh8ZGdnaYXmKKSRwyCGH7LbLLru4A8x2joTHdd4K80VIEIAABCAAAU0EBkLYBHJm8bJrfPbBipnwNqlwUoJbVdpdgRtdYXPJsmvk9tXr6k2FDzgNys475QRx5YJrmoObrprVi3uyIGziJlqM9jQ+jCNsdM0tjXNEF6HOoml0fXf0Z+VyeXytVvuaMeYAhE1nXLWX8jzvemPMSS5OrvPWni3igwAEIAABCOghkGth4zA2Oh8mkCCBFAnjDl+DfN8DD0mzlS6B5Gl1BW5Y2ERX44S3PbkbX4KVM04GufNwgmua29WLe6ogbOImWoz2ND6MI2x0zS2Nc0QXoc6iCeSMiMw1xlwmItOjNa21C9zPETadMc1DqaGhoQ+XSqVvhWLlOu88JI4YIQABCEAAAhkTyL2wCa5njl6THJwf486B+c6an8hb99/Xv9o2fL2uY3/WoqWy+FOnSvntB/mpuOqbt8pR7/b8stEVNoEIevPEPcRdp9tK2DiRdMcP761vwwrqPvv8b+XAqVP8+oEUCkujaL245wfCpnei0bOQem9JX02ND+ODLGzabcfMYgZpnCNZcOi3T1bY9Eswn/XL5fLOtVrtSWPMHqMj+EGlUnlfPkdD1BCAAAQgAAEIpEUg98LGgQqkTQDNHSjsDvsNDu11kqbZTVCtbmjqRthEtzZ9Zt5fyW2r1srFC0/15U8gZ5b/5y1jztLppF6ckwFh0ztNhE3v7HqpibD5uVw4f45/iLmGF8ImniyEVth82RiztFGr1tpb3c+NMXuxJSoe7hpaGR4eXi4iZ4zGwnXeGpJCDBCAAAQgAAHlBAohbLJi3Gg7VlaxdNovwqZTUoNVTuPD+CALG42zT+Mc0cipXUyNVthE63CGTTuK+fy953nvNcasdtFznXc+c0jUEIAABCAAgbQJIGx6JB6s2glufuqxmdSrIWx2RB5d5RQcOh0t6VbY3Hj7mvqqh2YrtxqJvPDPWq34Sn1CjHao8WE8DmHTinWwgm6/fd8swYHki+bPkROPfk89DS5v7swp9zp2xrQxK17Ch5a737mVfU89va2+3bGTvl27rv3wlk73s+jqvmYrAdvNtVYrCLudaxrnSLdj0FA+LGyste4cmzE3RllrN4nIR0VkIWfYaMhYrDEYz/NqrsVqtZr4969YI6cxCEAAAhCAAAQyIZD4F4bh4WHrRjZyi1sJnP9X+CGs2YO95lEibMZmJ3ouUfDnaYe9bcyDuz+HI8Jm5c3f9x/i3da78GHWz2x7TpZ948b6trzoAdTN6gVb57KYPxofxuMQNq1YB8IlkDThHLpcuD+7lzvfKnjfzz7mSH9eRMsGYuSY977LFzbR8lHBG/QdFTVB7qM30H3rjjXykWOO9LdHud8FZ3Q9tOmxpnNtn8l7SbN6wXbRbuaaxjnSTfwaygYrZ0TkCGPMrFFhMzPY9hTaLoWwaZCwKVOm7Dp58uTF1tpZIrK/MeYNGvLaTQyhG6K6qaal7HPW2keNMbdt2bJl0ebNm1/SEhhxZEOgCO/JbMjF1ivvydhQJtfQ8PDw4SLyTyLyVmvtvsaYUnK90XKEwKsi8msR+aWIXFCpVO7JIyGETR6z1kfMCJux8BqdS9PsOveosAm3FD7Meo83vdE/MylYfdXqANlwPYTN2NzEIWya5Sg4VDx84Her2+VcO241i1uN44RN+L+DPsKrXRrlPFyn3aHCzeag6yu4cc7dNOdenc61cD2ETR8fon1ULZfLE621t7gmnKSp1WqfYYVNZ0Ddg+GkSZNGjDEHd1ZDb6mcSxsfrLX2geeff9578MEHf6eXNJElSaBI78kkOaXVNu/JtEh314/nee7L2v8xxiT+zN1dZINX2rq/fEU+Wa1Wr8rb6BOfPEVbYZO3BEfjRdjsKGzmnf/PO6Q1uv3FFYgKm/B2maCBYMVE8MA975QT5JJl10j4ivlW9bKaXxpXT8QhbDrJUXBjW1TYRA8zd7lxq+oa5dT9LnprXLDNKpzTYFVeKyETbSu6Zc/9fu9Je9YPL28219rV63auaZwj3Y4h6/Ke580wxqyy1l5bKpXOqNVqi4wx9RU2QXycYbNjpoaGhj5XKpUu2GvXvWTB4Qtk+pTpMnH8xKxT2lP/r9RekdeVXtdT3SwrbX1xq6zdvFaW3rNUnn7paanVap9fv379P2YZE31nR6D+ntxjd1lw6kdl+tDBMnHPN2UX0AD2vPWZZ2Xt+gdk6dXXy9O/eY73pLI54P6Rplar/dIYM8E9V/zNRz7o31q88+vy9/mvDG3H4fz+lVfkwYcfk3//1nfk9tXr3D82bHv55ZcPuP/++5/puBEFBRE2CpKQZggImx2FTXj7UqtchIXN/b/YOGYrSnTLS7CawT2guzNK3GqIYOtUuD8tZyFpfBjvV9hEV0812pa06bEn62fOhIXNAfvtO2blipsXwQqaQNhEt821W2ETnlvdCJvoapzoFrtmc61dvW4/dzTOkW7HkGX5kIQ5xVp7eqt/4YmuxBkZGdmaZewa+vY8b50x5l1f+MAX5OgDjtYQ0sDGcOdDd8r53z3fffG9t1qtThtYEAM+8Pp78tx5cvSR7xxwGtkO/841P5HzL1vOezLbNOzQ+9DQ0HGlUunbU9+yt1z3rxe7lbXKIhyccNzimo/93WflV4887sTmX6xfv96/jTMvr8RnDitsdE0FhM3YfETPGnG/dQ+6U/aZJIccONVfHfPmiXv4D/WthE30TJLg4f/Z538rB06dUpcCUYnQ7iyTtGaPxofxuIVNlHVUmrQSNtEzasLnyAQizq3UClbQBOUXf+pU/wwc97rqm7fKUe/2JNiOFZZF0fLR1TrhrVtODN3xw3vrK2yazbWosInW63ZuaZwj3Y4h6/Kj0mZRqVT6UiMJE6zACeK01s6sVqv+rUKD/hoeHn5WRHZfc9oaGb/z+EHHken4t23fJu9f8X73cPibarW6Z6bB0HlmBOrvyeuWyfhdx2UWBx2Lf27e+0/5FO9JZZPB87z5xpilH/uLmXLu356iLLrBC+eyr1wr3/z2Kvc+WVCtVpfliQDCJk/ZiiFWhM2OEJvd5hM9kLjVlqi/m/NhWb32p/VzawLxs/w/b6k/WAc9h7fpNKoXQ5q7bkLjw3i/wsZBaMW6lbBxkiW8JcotZd3tDbvKG3YdV5dv4badqHHn2zSSME889dqqy/ABw81ugQoET/TQYScO3VJO9/rMvL+S21atlYsXnurLn2ZzLbolqlG9biaKxjnSTfyUzTeB+j/+nDmS74EUJPryV8v+SCqVSuLfIwuCrHDD4B9kdaVUy/d7XVSyjSaO77HZjqBYvef5e2zif9Hyga5rsmv5QM/jh1i7g2J1Zbq7aDR+iOVtjjQ6iLi7LPyhdKPrunttK656GudIXGOjHf0EEDa6coSw0ZWPLKLh+30W1Jv3qeX7vS4q2UaTt++x2dJKvvc8f49F2CQ/P1T1oOUDPW8fYq2u+1aV4B6D0fghpnmOuNU3mx9/qn71e/Sa7x7T4FfTcq5RdAwa50g/nKmbLwIIG135QtjoykcW0SBssqCOsNFFvXU0mr/H5oljXLHm+XsswiauWZCTdhA23SUqvK2k0c1R3bWmt7TGDzHtf9GFt0SFb23qNcvhrXnBWTi9tpVEPY1zJIlx0qZOAggbXXlB2OjKRxbRIGyyoI6w0UUdYZOnfOT5eyzCJk8zLYZYETYxQCxgExo/xLQLmwJOg5ZD0jhHBi0HgzxehI2u7CNsdOUji2gQNllQR9jooo6wyVM+8vw9FmGTp5kWQ6wImxggFrAJjR9iCBtdE03jHNFFqLNoPM+71Bgz0xhzvKthrb3FWvtQqVQ631r7TRGZHrRkrd1kjJlVqVQe6Kz14pZC2OjKLcJGVz6yiAZhkwV1hI0u6gibPOUjz99jETZ5mmkxxIqwiQFiAZvQ+CGGsNE10TTOEV2E2kczKmvObVLyAhH5kLV2VbVaPc/zvNNEZBHC5jVaCJv28yvNEgibNGnr7AthoysvWr7f66KSbTR8j82Wf7T3PH+PRdjomkuJR6PlA50PscRT3VUHGj/EmCNdpTDxwhrnSOKDTqCDditsEDaNoSNsEpiMfTSJsOkDXkGqImx0JVLL93tdVLKNhu+x2fJH2HTBnw/0LmClUFTLBzofYikku4suND6MM0e6SGAKRTXOkRSGHXsXjVbZWGuvZUtUa9QIm9inYl8NImz6wleIyny/15VGLd/vdVHJNhq+x2bLH2HTBX8+0LuAlUJRLR/ofIilkOwuutD4MM4c6SKBKRTVOEdSGHbsXbDCpjekCJveuCVVC2GTFNn8tMv3e1250vL9XheVbKPhe2y2/BE2XfDnA70LWCkU1fKBzodYCsnuoguND+PMkS4SmEJRjXMkhWHH3kW7FTZsiWqMHGET+1Tsq0GETV/4ClGZ7/e60qjl+70uKtlGw/fYbPkjbLrgzwd6F7BSKKrlA50PsRSS3UUXGh/GmSNdJDCFohrnSArDjr0LVtj0hhRh0xu3pGohbJIim592+X6vK1davt/ropJtNHyPzZY/wqYL/nygdwErhaJaPtD5EEsh2V10ofFhnDnSRQJTKKpxjqQw7Ni6KJfL42u12teMMac0atRa+xUROc4Ys1/we671/gMphE1sUzGWhhA2sWDMdSN8v9eVPi3f73VRyTYavsdmyx9h0wV/PtC7gJVCUS0f6HyIpZDsLrrQ+DDOHOkigSkU1ThHUhh27F0MDw8fbK39UqlUmmutnWStPbtUKn2mVqu9yxizylp7erVavYprvceiR9jEPhX7ahBh0xe+QlTm+72uNGr5fq+LSrbR8D02W/4Imy7484HeBawUimr5QOdDLIVkd9GFxodx5kgXCUyhqMY5ksKwY+0ivMrGiRkROdAYc27kv2dWq9XVCBuETayTL+bGEDYxA81hc3y/15U0Ld/vdVHJNhq+x2bLH2HTBX8+0LuAlUJRLR/ofIilkOwuutD4MM4c6SKBKRTVOEdSGHasXTgJY4z5urX2smq1el65XJ5orb1FRKaPdrTWGHP8yMjIVnfWjYicbIyZValUHog1kBw2xgobXUlD2OjKRxbR8P0+C+rN+9Ty/V4XlWyj4XtstvwRNl3w5wO9C1gpFNXygc6HWArJ7qILjQ/jzJEuEphCUY1zJIVhx9qFEzS1Wm1pqVRa4KSMa9zzvBmhTmYZY1ZYa29zZ9lYa68tlUpnjIyMvBhrIDlsDGGjK2kIG135yCIavt9nQR1ho4t662j4HqsrW3n+HmuSRskHetKEu2sfYdMdr0EprfFDjL/odM0+jXNEFyGiSZIAwiZJut23jbDpnlnRavD9XldGtXy/10Ul22j4Hpst/2jvef4ei7DRNZcSj0bLBzofYomnuqsONH6IMUe6SmHihTXOkcQHTQdqCCBs1KTCDwRhoysfWUSDsMmCevM+tXy/10Ul22j4Hpstf4RNF/z5QO8CVgpFtXyg8yGWQrK76ELjwzhzpIsEplBU4xxJYdh0oYQAwkZJIkbDQNjoykcW0fD9PgvqCBtd1FtHw/dYXdnK8/dYVtjomkuJR4OwSRxxLjvQ+CHGX3S6ppLGOaKLENEkSQBhkyTd7ttG2HTPrGg1EDa6Mqrl+70uKtlGw/fYbPlHe8/z99jUhI2ulBFNpVJJPPetKAcfYmRCHYGLK5XKZzVExRzRkIWGMaiZI2oJEVjsBBA2sSPtq0GETV/4ClEZYaMrjQgbXflw0SBsdOUEYdMiH8EHuq6UEQ3ChjnQhICah3GEjdo5qmaOqCXUYWDuhihjzKrgmu8Oqw1kMYSNrrQjbHTlI4toEDZZUG/eJ8JGVz4QNvrygbDRl5PYIwr+YspadMQ+MBrsi8Dw8PBFIuJWpHy2Uqlc3FdjVC4kgZB4QnQUMsO9Dwph0zk7hE3nrNIoibBJg7LuPhA2uvKjVdhYa2eKyA9SoLXaGOP6UvNihY2aVPiBIGx05SORaBA2iWDNfaMIm9ynMPEBIGwSR5zbDhA2nacOYdM5qzRKImzSoKy7D4SNrvwgbARho2tKqosGYaMuJfEHhLCJn2kRWkTYFCGLyY4BYZMs3zy3HgibVmOw1p5erVavyvM444gdYRMHxfjaQNjExzKvLSFsdGUOYYOw0TUj9UWDsNGXk9gjQtjEjrQQDSJsCpHGRAeBsEkUb64a9zzvUmPMudGgrbWbjDGzKpXKA7kaUIrBahU2y+5ZJit+usInsfdue8uVx10pU/eY6v955NcjsmztMlk6a6lMGDehTmvjbzbKDx7+gZzmnSbbtm+TBbctkA1bNjSlOfewuTL/8Pkp0m7fFcKmPaOil0DY6MpwHoTNTTfd5EM78cQT6/Aa/Sz4pfvd4sWL24I+9thj5X/9r/+1Zrfddntv28JdFhgeHn6HtfZrInLLq6+++u377ruv0mkTbInqlFQ65RA26XDOtBeETab41XaOsFGbGjWBIWzUpEJdIGyJ6jwlWoVNMILtr2yXy398uZx86Mm+sHF/vmT1JfLs9mflwL0O3EG43PTzm2TTtk07/DzaTueE0i2JsEmXt8be4hI2Iz/7H5l3/j83HOLck46R+aeeFPvwXZ93/2RDT23fdOddsumxJ3uqG/tAQg1qFzbbt2+Xyy+/3I/4+uuvb4li7ty5Mn/+fInKnG3btsmSJUvknHPOkQkTXpPgGzdulJUrV7ryiQgbz/O+YYyZGwr4cWvtrdbaW2q12nfuu+++3zYbTFzCZvvvXpZLll0jt69et0NXe0/aU65cvECmvmWfWKZXtK9DD5oqSy86WybsvlvH7W977gVZ9OWrZOHpfxlbXB133qIgwiYOisrbQNgoT1BG4SFsMgKfo24RNjlKVsqhImw6B65V2LgVMtesv0bmDM2p/79bTeNW3uw3YT858W0njvnvZoKn3c87J5VOSYRNOpw19xKXsAmPMU4Z4tpa99Ofy4Xz58i4XV5f72bZ1TfIihvukF5lUJwxxplf7cImECsLFy6UcePG1YfeboWNKxisyMlS2FhrxRgzJmXW2pdFZLVbfSMiN1Wr1U3hAnEJm3CbccoQ19aCi6+Q+Z+YLeW3H+R34+b3lH0m1f/s3i9Pbv3NDu+jVnM3zhjjfI8gbOKkqbQthI3SxGQcFsIm4wTkoHuETQ6SlFGICJvOwWsXNh879GNyxdor5JwjzvHFjXuFtzE5gRP9WaPRs8Km8zlByWwJ5E3YBCsHph32Nh9cr6tkEDbdzbvglqhAzMyYMUMWLFggGzY03gbqtjddeOGFvtTRsCWqwQobH4ATOO4VkTg/t9Z+262+Wb9+/V3Dw8P/KCIXzfvr4+XMj3+oO3BNSscpQxoJm2i3Gx99XC7/+nWy+FOndbzKJs4YY4E22gjCJk6aSttC2ChNTMZhIWwyTkAOukfY5CBJGYXYSth4nneaiBxYrVbPyyg8Vd1qFTbBeTSzD57ti5pJb5gkD297WF54+QW5/cHbxzB895R3y26vf21Z+Xd+9R0JzqYJS5p93rjPmK1VqpIQCoYVNlozk15caQqb4MFyw/9s9Ae4aP4cOfHo9/j/Hd5SFayaCVbRBDTC5d3POpEu7kH1rEVL5YmnnpHwtpBoXffnxctek7TR7SPh34VjaPbzfrIXrLDpp40k6pbLZfniF7/oS5rZs2eLEzbhbU3hFTZuBc0111wj8+bNqwsbF1MnK2xmzpwpZ511VhJDaNtmo9U3QSX3OzcvF5z20bbtdFKglQxpNhfD25yCLVSur2B+N5q7QSzu/bXsGzc23RYVfq8FczwaY6v3b/h34fdPs593wqhZGYRNP/RyUhdhk5NEpRwmwiZl4DnsDmGTw6SlFHIbYeMfUMwtUa8lQ6uwcQcLz7t5Xn3GHPvWY+XCGRfKuNf9Ycl/o+nk6t39yN3+KpyosHFn3wSyJ3qQcUpTs203CJu2iApfIC1hEzy4zT7mSF/ShFcF7Dlhd7no8qvl4oWn+mdl/PcvH5Zdx+3i/3ezLVEuMe2ETSCBln/h0/7WENenk0Xvedfbx9R1UufBhx+TDx75Tgkeit88cQ//fJvog+5d9/7MFzoPbXpszANw8PNuzghpNLk0C5tDDz1UfvGLX8gHP/jBhsJmypQp4sROHoVNk5U2Y1L0Nx/+gCz85Mdi+UxoJmzcnL7xjjV1sRKe/8uvvdnv281LN0/XrLvPn7PtVthE33vhAQTz3f0s2HYYzGX3s/AZNitv/r4cO2Oav0LHvS8Wfflq/9ydfSbv5Z/NfKBjFQAAIABJREFU41a9Be9t9z575zsOavhz9/7r54Ww6YdeTuoibHKSqJTDRNikDDyH3SFscpi0lEIul8sT3dJp150x5viRkZGt7r+Dn1tr9+b2KN3CJjxVAgnjzq5xrym7T6lLGbcSZ+WGlbLw3Qt9mdNK2IQPL05pKnbdDcKma2SFq5CWsGkkXty/6u+375vlHQcf4K8SWPypU+tnbgSg+xE2QfvBKp5w8lrJnvDvwg+m4QNhm/283wmi9QybRx555Ji77rrLX244fvx4X9gUYUtUkK/o6hpr7S9F5D+NMf8mIn+TxpaoRuIlvJXpmhvuaHgOTSthE6wwO+a972p4wHarrVKtVgGFfxcIm0ByBkyj8rPf90ZQH2ETF0nF7SBsFCcnw9AQNhnCz0nXCJucJCqjMINVNo26Z3XNH6hoXWHjInQ3Pi1evdjf4uReJxx0gi9nTvVOrZ9rs/phdy6l+IcQuxfCJqM3HN3GRiBNYRNsOQoHH2x/Cm+Jim47anTosP+ebXHTU/CwOPvYI3eQQNG64W1TQWxuJUGw4iC8RSVYrRO0EYwp/PN+kqNV2ETPsHHbm9yNUe5/7qanVluili1bJkcccYS/+sa9sjx02PXfYjXN4yLyf2u12rXr16+/N8hjWocOR7ccBf0H258CMeJumWq07Sh86HB4fraam+59d+PtaxoeRhwVNtEtiq6P8Oo1d/CxW1kTfu+ExxT+eT/vEYRNP/RyUhdhk5NEpRwmwiZl4DnsDmGTw6QRsjoCGoVNcHX3tH2n+SImkDDuxqgldy+pH0A8vM+wrHlkTf3K77CwOeKPj5CXfv9S/fecYaNu6hFQEwJpCptm4iUcWiBPgtU2va6wCR9O3GqFzbxTThizbSN40G0UaxqrbfIkbEZGRmTRokVy5ZVXys033zxGyoRzetVVV8lRRx0lU6dOzVTYiIhv48MHDFtrt4nIDcaYayuVyioRqUXfKmkLm6h4afTWDd/65OZ69JaodmfWBG22KhcWNs9se27MFsBmq3qaraqJc7UNwmYA/jpD2AxAknsYIsKmB2gDVgVhM2AJZ7iJENAobKIDDa+acbdCORlT/qOyBAcTn+afI/3aKzj75tDJh8plH7xMrq5e7QsdhE0i04dGEyCQlrCJihg3lKu+easc9W5P3MOge7lzZqIrY7oVNuEH2ft/sbF+zobbztToDJuosAkeRKfsPclfdeDOCXnr/vv65+mEH2DdmTeNfh7eNtVLuvIkbNz43DXf7pDgoaGh+q1Q4XE3Wk2T0Qqb/2OMOX00tpfcFd5uJc3vf//7W++//353rXfTV1rCxgUQvX7bvW9+8OOqnHLiB+Rbd6yRjxxzpH+9fXhlTFTYtJOV4ffiIQdO9YVleDtTozNsosImWHXmVtgcsN++4lb9nHzC+3yGwcq3OScd0/Dn7gyefl4Im37o5aQuwiYniUo5TIRNysBz2B3CJodJI2R1BPIgbNzWKPcKtj0FEMPyJviZK7tp26aGhw5zho266UdADQikJWz8h/vQjU3uz8F2ivDtN+7nwTYp99/hLRWd3BIVfeANb7VqdktU9CapGdMPk4c2/doXNsHDcPRmq1Y35vQz0fIkbNx2qEsuuUTWr18ve+21l9x///0yd+5cmT9/fh2BW4Vz9913j/lZRsJmkTHmz62117788ss33n///S90mqc0hU0gbVbccIcfXngbUXguB9ukAkEYCBQ3xy8770y54hs3+rIk+nLvOXfId/jMqOj7r9ktUeEtUX8358Oyeu1PJVgN1Oxmq1a3r3XKP1oOYdMruRzVQ9jkKFkphoqwSRF2TrtC2OQ0cYStioBWYRNsi3K3Orkbnf7+8L+Xf7nnX+SJF55oyG/RjEVjhE5w/k0r2J3ePJVmwjh0OE3aOvtKQtjoHGk+osqDsHnxxRdlw4YNvqhx26GCrU6OsDvLZvHixT5st13q6aefHrMdypdw27bVrwR313+vWLGiXv7EE09cbYyZGXe2yuXy+JGRkRd7aTcJYdNLHNR5jQDCZgBmAsJmAJLcwxARNj1AG7AqCJsBSzjDTYSAVmGTyGBz0CjCJgdJSjhEhE3CgLtsXruw6XI4vRRPRNj0EkhQB2HTD7346yJs4meqrkWEjbqUqAgIYaMiDaqDQNioTk/mwQ0PDx9srb3NBcIV3s3TgbDJfKqOCQBhoysfWUSDsMmCevM+tQobXZTSjQZhky7vdr0hbNoRKsDvETYFSGICQ0DYJAC1YE0ibAqW0BiH45Za12q1rxljTnHNuj3ypVLpjF6XX8cYmrqmEDa6UoKw0ZWPLKJB2GRBHWGji3rraBA2urKFsNGVj0SiQdgkgjX3jSJscp/CxAeAsEkccW478DzvNGPM1621t7pBGGOOs9aeXq1Wr8rtoBIKHGGTENgem0XY9AiuQNUQNrqSyQobXflw0SBsdOUEYaMrH4lEg7BJBGvuG0XY5D6FiQ8AYZM44lx2EMgaEVlrjDneDcJae4uITLfWzqxWq6tzObCEgkbYJAS2x2YRNj2CK1A1hI2uZCJsdOUDYaMvHwgbfTmJPSKETexIC9EgwqYQaUx0EAibRPHmsvGorBkZGdnqBlIulycibRqnFGGja6ojbHTlI4toEDZZUG/eJ8JGVz4QNvrygbDRl5PYI0LYxI60EA0ibAqRxkQHgbBJFG/uGvc871JjzLnBeTUiMn5U0rgtUW6lzYvBuTbW2suq1ep5uRtkAgEjbBKA2keTCJs+4BWkKsJGVyIRNrrygbDRlw+Ejb6cxB4RwiZ2pIVoEGFTiDQmOgiETaJ4c9V4SNbUtzyFVtX4wiZYbeN53gxjzCqkzWspRtjomuoIG135yCIahE0W1Jv3ibDRlQ+Ejb58IGz05ST2iBA2sSMtRIMIm0KkMdFBIGwSxZv7xpsJm9wPLOYBIGxiBtpncwibPgEWoDrCRlcSETa68oGw0ZcPhI2+nMQeEcImdqSFaBBhU4g0JjoIhE2ieHPfOMKmsxQibDrjlFYphE1apPX2g7DRlRuEja58IGz05QNhoy8nsUeEsIkdaSEaRNgUIo2JDgJhkyje3DeOsOkshQibzjilVQphkxZpvf0gbHTlBmGjKx8IG335QNjoy0nsESFsYkdaiAYRNoVIY6KDQNgkijf3jSNsOkshwqYzTmmVQtikRVpvPwgbXblB2OjKB8JGXz4QNvpyEntECJvYkRaiQYRNIdKY6CAQNonizX3jCJvOUoiw6YxTWqUQNmmR1tsPwkZXbhA2uvKBsNGXD4SNvpzEHhHCJnakhWgQYVOINCY6CIRNonhpfEAIIGx0JRphoysfWUSDsMmCevM+ETa68oGw0ZcPhI2+nMQeEcImdqSFaBBhU4g0JjoIhE2ieGl8QAggbHQlGmGjKx9ZRIOwyYI6wkYX9dbRBN//5v318XLmxz+Up9ALGSvCppBpHTsohM0AJLmHISJseoA2YFUQNgOWcIabCAGETSJYe24UYdMzusJURNjoSiUrbHTlw0WDsNGVE4SNrnwkEg3CJhGsuW8UYZP7FCY+AIRN4ojpYAAIIGx0JRlhoysfWUSDsMmCevM+ETa68oGw0ZcPhI2+nMQeEcImdqSFaBBhU4g0JjoIhE2ieGl8QAggbHQlGmGjKx9ZRIOwyYI6wkYX9dbRsMJGV7YQNrrykUg0CJtEsOa+UYRN7lOY+AAQNokjzk0HnufNMMasCgdsrb2sWq2eVy6Xx9dqta8ZY06x1s6sVqurczOwFAJF2KQAuYsuEDZdwCpoUYSNrsSywkZXPlw0CBtdOUHY6MpHItEgbBLBmvtGETa5T2HiA0DYJI44Nx0EwsZae7qIPOTkjfvvarV6led5pxljvj46mLXGmONHRka25mZwCQeKsEkYcJfNI2y6BFbA4ggbXUlF2OjKB8JGXz4QNvpyEntECJvYkRaiQYRNIdKY6CAQNonizVXjEWFzoDFmphMztVrtkFF5c6219j9KpdK3rbXXlkqlM0ZGRl7M1SATChZhkxDYHptF2PQIrkDVEDa6komw0ZUPhI2+fCBs9OUk9ogQNrEjLUSDCJtCpDHRQSBsEsWbq8ZDW6IuEJEPWWvd9qjbAlkTCJqQ2NlkjJlVqVQeyNVAEwgWYZMA1D6aRNj0Aa8gVRE2uhKJsNGVD4SNvnwgbPTlJPaIEDaxIy1EgwibQqQx0UEgbBLFm6vGQyLmKyJynIg8YIw5NtgWFR5MuVyeaK29xUkdd8ZNrgaaQLAImwSg9tEkwqYPeAWpirDRlUiEja58IGz05QNhoy8nsUeEsIkdaSEaRNgUIo2JDgJhkyjeXDUeFTbGmCdGt0R9yJ1f48RNqVRaOXr48AGcY/OH9CJsdE11hI2ufGQRDcImC+rN+0TY6MoHwkZfPhA2+nISe0QIm9iRFqJBhE0h0pjoIBA2ieLNVeMNzrA5190IJSJOziBsWmTT87ynjTF7fm/u92TCuAm5ynvRgt22fZu8f8X7xVr7TLVa3ato42M8nRGovyev/bJM2H23zipRKhEC2557Qd5/yqd4TyZCt/dGPc872xiz7GN/MVPO/dtTem+ImrEQuOwr18o3v73KvU/mV6vVK2JpNKVGTEr95L4bhE3uU5jIABA2iWAtVKMIm0Kls6/BNLslyjU6Kmxmlkqle1lhsyNmz/PczVnTvvCBL8jRBxzdVx6o3B+BOx+6U87/7vnuS++6arU6vb/WqJ1XAvX35Lnz5Ogj35nXYRQi7jvX/ETOv2w570ll2fQ8b5Yx5tapb9lbrvvXi93f88oiHJxwrLXysb/7rPzqkcfd++S4arV6W55Gz8zpMFsImw5BDVgxhM2AJbyH4SJseoBW0CphYWOM+bG11n1hWCwi7sYof7UNwqZx8oeHhxeKyJf32nUvWXD4Apk+ZbpMHD+xoDNF57C2vrhV1m5eK0vvWSpPv/S0C3JhpVL5F53RElXSBOrvyT12lwWnflSmDx0sE/d8U9Ld0n6IwNZnnpW16x+QpVdfL0//5jnek8pmx/777z9ujz32eNgY8+ZjZ0yTv/nIB+Wt++8rO7/udcoiLW44v3/lFXnw4cfk37/1Hbl99Tona556/vnn3/Lggw/+Lk+jRth0mC2ETYegBqwYwmbAEt7DcBE2PUAraJXQLVH+CN3V3SJyuYhcH5xnIyIvssJmxwlQLpd3ttb+TEQOKuj0yNWwrLX/XSqVhkZGRn6fq8AJNjYCvCdjQxlLQ7wnY8EYeyOe580RkW8YltfEzrbbBq211hgzp1Kp/Hu3dbMuj7DpMAMImw5BDVgxhM2AJbyH4SJseoBW0CrhFTbVavWq4eHhg90qG2PMfsFNUeVyeTzCpvEEmDJlyq6TJ09ebK2dJSL7G2PeUNCponVYz1lrHzXG3LZly5ZFmzdvfklroMSVDgHek+lwbtEL78nMU9A+gOHh4cNF5J9E5K3W2n2NMaX2tSgRE4FXReTXIvJLEbmgUqncE1O7qTaDsOkQN8KmQ1ADVgxhM2AJ72G4CJseoBW0SlTYuGF6nnea2xIVXN2NsClo8keHxXeJYueX0eWPAO/J/OWMiNMlwPfYdHk36g1h02EOgg/0DotTDAIQgECUwMWVSuWzYIEABAaXAA+Hg5t7Rq6TAO9JnXkhKj0EEDbZ5wJh02EOEDYdgqIYBCDQjADChrkBgQEnwMPhgE8Ahq+OAO9JdSkhIGUEEDbZJwRhk30OiCDHBDzP22iM2d9a+3C1Wp2a46EQOgQgAAEIJEyAh8OEAdM8BLokwHuyS2AUHzgCCJvsU46wyT4HRJBjAgibHCeP0CEAAQikTICHw5SB0x0E2hDgPckUgUBrAgib7GcIwib7HBBBjgkgbHKcPEKHAAQgkDIBHg5TBk53EEDYMAcg0BcBhE1f+GKpjLCJBSONDCoBhM2gZp5xQ6A/AuVyeaK19hZr7d4iMtcYc5mITA+3aq2dWa1WV/fXE7U1EUDYaMoGsUBAhPckswACrQkgbLKfIQib7HNABDkmgLDJcfIIHQIpEwhd2X3KaNdrjTEfs9a+QUSuttauctd7h67/RtiknKOku+PhMGnCtA+B7gjwnuyOF6UHjwDCJvucI2yyzwER5JgAwibHySN0CKRMICRsDjDGHD8yMrLVheB53mnGmK9ba0+vVqtXIWxSTkyK3fFwmCJsuoJABwR4T3YAiSIDTQBhk336ETbZ54AIckwAYZPj5BE6BFIm0GCFjR+BtfZ2EXmmVCqdMTIy8uLw8PDB1trbjDH7WWsvc6tuUg6V7hIiwMNhQmBpFgI9EuA92SM4qg0MAYRN9qlG2GSfAyLIMQGETY6TR+gQSJlAsxU2KYdBdxkS4OEwQ/h0DYEGBHhPMi0g0JoAwib7GYKwyT4HRJBjAgibHCeP0CGQMoFGwqbZqhsXmrV2kzFmVqVSeSDlUOkuIQI8HCYElmYh0CMB3pM9gqPawBBA2GSfaoRN9jkgghwTQNjkOHmEDoGUCTSSM9baa4OtUEE4wQ1S7s/hs25SDpfu+iNgPM97xBgzpYNm1lQqlfd2UI4iEIBAzAQQNjEDpbnCEUDYZJ9ShE32OSCCHBNA2OQ4eYQOgZQJNNsSNfrzLxljrnCraUKHEHN+Tco5irM7z/P+yRhzvrXWibdWTX+tUqnMi7Nv2oIABDojgLDpjBOlBpcAwib73CNsss8BEeSYAMImx8kjdAikTKDFLVEzjDGr3BYoEZlrjLnMWrs326FSTlDM3Xme92fGmPudsHGvqLQJiZzZlUrlWzF3T3MQgEAHBBA2HUCiyEATQNhkn36ETfY5IIIcE0DY5Dh5hA6BlAmEhY219iFjzCkistZte3KhWGtvEZHpo//N6pqU85NEd57nrTfGHNai7VeNMbu728GS6J82IQCB1gQQNswQCLR9j3xWRC4SkYsrlYr7b14pE0DYpAyc7opFAGFTrHwyGggkRSB6fo21dma1Wl3t+gtf4x3q3xc5IyMjW5OKiXaTJzA0NPSZUqm0pNm2KGvtqmq1elTykdADBCDQiADChnkBAYSN9jmAsNGeIeJTTQBhozo9BAcBVQQabYnyPO9SY8y54RuhwnLHWstKG1VZ7C6Yd7zjHZN32mmnJ4wxJixtQv/9D5VKZUl3rVIaAhCIiwDCJi6StFNUAmyJyj6zCJvsc0AEOSaAsMlx8ggdAhCAQAoEhoeHvy8iY1bRBMLmlVdeeft99923IYUw6AICEGhAAGHDtIBAawIIm+xnCMIm+xwQgUIC7lrdWq3mlrIvbnW2QFTYeJ43Q0RmVavV8xQOi5AgAAEIQCBlAqFbv8YcPGytfaxarXZy7XfKEdMdBAaHAMJmcHLNSHsjgLDpjVuctRA2cdKkrcIQCAsbERkfPgw0MshXROR11tqHS6XSIbVa7Wsi8r1qtXpVYWAwEAhAAAIQ6JnAIYccstsuu+zyjIjsHGmE67x7pkpFCMRDAGETD0daKS4BhE32uUXYZJ8DIlBEoNHhn9baa0ul0hnBSptRmbO0VCotqNVq9xpj9nfCRkQ+4a7mbTWcaFuKhk4oEIAABCCQEAHP8643xpzkmuc674Qg0ywEeiCAsOkBGlUGigDCJvt0I2yyzwERKCTQaktUI2EjIo+KyK+ttecGN79EhzW6XWpeWP4oHDohQQACEIBAzASGhoY+XCqVvhVqluu8Y2ZMcxDohQDCphdq1BkkAgib7LONsMk+B0SgkEAPwuZZEXlTdCjhm18QNgoTTUgQgAAEUiBQLpd3rtVqTxpj9hjt7geVSuV9KXRNFxCAQAsCCBumBwRaE0DYZD9DEDbZ54AIFBIIhI219oelUmmRMeb4kZGRrS7UJluitonIp93vg/NrRq/m/ZIx5opKpfIAwkZhogkJAhCAQEoEhoeHl4vIGaPdcZ13StzpBgKtCCBsmB8QQNhonwMIG+0ZIr7UCYyKlq8ZY06x1l4WvfGpxRk2l3QgbLhBKvWM0iEEIACB7Al4nvdeY8xqFwnXeWefDyKAgCOAsGEeQABho30OIGy0Z4j4UiUweujwN0TkH9z13I2u9W4lbIwxXw8H3GBLFMIm1YzSGQQgAAE1BIznebVRsc/3LzVpIZBBJoCwGeTsM/ZOCLAlqhNKyZbhC0OyfGk9pwS6PcNm9JaoMStsokP3PO9SEfmFiBwoIrc1O5w4p8gIGwIQgECiBKZMmbLr5MmTF1trZ4nI/saYNyTaYQKNh26ISqD1xJt8zlr7qDHmti1btizavHnzS4n3SAcQSJgAwiZhwDSfewIIm+xTiLDJPgdEoJBAXMLG87zTQqtu1hpjPlar1c4LzrVROHRCggAEIKCOgJM1kyZNGjHGHKwuuC4Dyrm08UdrrX3g+eef9x588MHfdTl8ikNAFQGEjap0EIxCAgib7JOCsMk+B0SgkEBcwiY6tNEtV18qlUpzg0OMFQ6fkCAAAQioIjA0NPS5Uql0we677iUfPXyBHDxlurxp/ERVMXYazKu1V2Sn0us6La6m3LMvbpUHNq+V6+9ZKs+99LTUarXPr1+//h/VBEggEOiBAMKmB2hUGSgCCJvs042wyT4HRKCIQLMDh8M/d+EGhxF7nrfRGLO/2xJVKpXeZa29RUSmtxqStXYm26EUJZ1QIAAB9QQ8z1tnjHnXvA98Qd55wNHq4y1ygD956E5Z/t3z3d+D91ar1WlFHitjKz4BhE3xc8wI+yOAsOmPXxy1ETZxUKSNgSUQFjbVanXqwIJg4BCAAAQSJDA8PPysiOy+7LQ1Mm7n8Qn2RNPtCLywfZt8asX7nbD5TbVa3bNdeX4PAc0EEDaas0NsGgggbLLPAsIm+xwQQY4JIGxynDxChwAEckMgeKhafuZIbmIucqDzvlr2h1epVPgeWeRED8DYEDYDkGSG2BcBhE1f+GKpzF+0sWCkkUEg4HneXcaYIzoZa61W+4/169f/TSdlKQMBCEAAAq0JIGx0zRCEja58EE3vBBA2vbOj5mAQQNhkn2eETfY5IIKcEHj729/+JzvvvPNDzW74CP+8VqsdsX79+h/lZGiECQEIQEA1AYSNrvQgbHTlg2h6J4Cw6Z0dNQeDAMIm+zwjbLLPARHkiIDneb81xjQ8QCEkbGqVSmWnHA2LUCEAAQioJoCw0ZUehI2ufBBN7wQQNr2zo+ZgEEDYZJ9nhE32OSCCHBE47LDDbthpp51mtwrZWvvrarW6b46GRagQgAAEVBNA2OhKD8JGVz6IpncCCJve2Q1aTWvtZ0XkIqXjvtgY4+KL/YWwiR1p1w0ibLpGRoVBJlAul99Uq9W2GdP8rWOtvaJarc4fZE6MHQIQgECcBBA2cdLsvy2ETf8MaUEHAYSNjjzkIQqEjVxcqVQSkUJ5yH+WMSJssqRP37kkMDw8/IyI7NHsLJtKpeK2TL2Uy8ERNAQgAAGFBBA2upKCsNGVD6LpnQDCpnd2g1YTYYOwyWrOI2yyIk+/uSXged5SY8yYFTSBvLHWvlStVhuecZPbARM4BCAAgYwJIGwyTkCke4SNrnwQTe8EEDa9sxu0moGwuemmm+TGG2+UpUuXyoQJE2TZsmVyxBFHSLlclu3bt8sll1wi06ZNkxNPPLGOaGRkRO6++26ZP7+7Bfjbtm2Ta665RubNmyfjxo0T9+clS5bIGWecIRdddJHfnutXRNgSVeAJibApcHIZWmIEdvI87xW3LSq6ysZa+6NqtdrR1d+JRUfDEIAABApGAGGjK6EIG135IJreCSBsemc3aDUDYfP444/LddddJ08++aRceOGFsnz5cl/YHHLIIb6sca9PfvKTMnXq1J6FjZNAK1as2AHxpZdeKqtWrZJzzjnHFziuv9mzZztpg7Ap8IRE2BQ4uQwtOQKe5202xuzrhI17BWfacJ13csxpGQIQGFwCCBtduUfY6MoH0fROAGHTO7tBq9lsS1R4hU0zJo1W2LjVMgsWLJANGzbUq82dO3fMKpzoChu3gscJojlz5vire0IvhE2BJyTCpsDJZWjJESiXy/+vtfZ/R1bYcJ13cshpGQIQGGACCBtdyUfY6MoH0fROAGHTO7tBq7lp06YvXnjhheeEBUsrBscee6ycffbZcu65546RMq6OEzNOuoS3OwVSx63WcVugunldcMEF3zjppJNO7aZOp2W5JapTUsmVQ9gkx5aWC07A87xXjTGlYJjW2seq1eqUgg+b4UEAAhBInQDCJnXkLTtE2OjKB9H0TgBh0zs7TTWHhoY+USqVrk4ypjPPPHOMSNm4caOsXLnS7/Kxxx4T9+crr7xyzFaoIJ7wChv335s3b5YZM2Y0FDbhc26iq3fcCpvLL79cTj755DH9uFU3X/3qV5McvmubW6KSJtykfYRNRuDpNv8EhoeHHxCRt4WEzbJqtbog/yNjBBCAAAR0EUDY6MoHwkZXPoimdwIIm97ZaaqZprBxhw4vXrxY3Aqa4Ayb/fbbTzZt2lQ/dyb4nTtnxr26ETZu5U10q1TA2q3M2W233eSoo46SffbZp36GjWsfYaNpRsYbC8ImXp60NkAEDjvssPfstNNOa9yQ3dao0duhuM57gOYAQ4UABNIhgLBJh3OnvSBsOiVFOe0EEDbaM9RZfIGwsdauqFarn+isVnelfvSjH135uc997u/cdqXwDVCNzrBxP3MSJbhJqhth41bYuLNrFi1aJAsXLpSbb765fguVi9gJoylTXlvQH7p5KrEzbLqjROkkCCBskqBKmwNDIPiL3g24UqnwfhqYzDNQCEAgTQIImzRpt+8LYdOeESXyQQBhk488tYsyTWHzxBNPtAvH//2hhx5aFzZOsriXEz2dbIkKVvFEO3ISx8man/70p7J+/Xpf6IzeRoWw6Sgr+SzEA2Y+80bUSgh4nrfdGLOLtfZ31Wr1tXWPvCAAAQhAIFYCCJtYcfbdGMKmb4Q0oIQAwkZJIvoMIw1h0+iWqPDXz9F5AAAgAElEQVQqGrdNKnJzkz8qd+5M6Pptf4WMe3Vyho0rF13B487KOeuss/zzdEIrfRA2fc4hzdURNpqz02NsU6ZM2XXy5MmLrbWzRGR/Y8wbemyKahDQQuA5a+2jxpjbtmzZsmjz5s1sPdOSGeKAQAoEEDYpQO6iC4RNF7AoqpoAwkZ1ejoOLgth48TJRRddJBdffLEfpzsMuJG0ceXCv+tF2KxYscLvw62wcS/XjztouFwu+0JnypQpid0S1XESKJgYAYRNYmizadjJmkmTJo0YYw7OJgJ6hUCyBKy1Dzz//PPegw8++Ltke6J1CEBACwGEjZZMvBYHwkZXPoimdwIIm97ZaaqZprAJVri48YdvhXLnzrjDgt0rOLsmWF0zbdq0+mqYYMXMAQccsMPhwsF139FDhwM542TPunXr5OMf/7i/Uudv//Zv/ZumPvzhDy/Zb7/9/kFTToglPgIIm/hYqmhpaGjoc6VS6YK9dttZFhw9Rab/yRtl4htfryK2ogbxwsuvym6v36mow1Mxrq3Pvyxrf/W8LL1zszz9wu+lVqt9fv369f+oIjiCgAAEEieAsEkccVcdIGy6wkVhxQQQNoqT00VoaQibG2644erPf/7zn9h7772bXt/tQg7EzYYNG+TTn/603H///XLOOefIkiVL5Pbbb6+fbePKOtnitja526TCBxOHhx4IHncVuLuJKrj225V3dZ3kmT9/PluiupgveSuKsMlbxtrE63neOmPMu77wl38iRx+6Z8FGx3AGncCdG56R86/7lbuV695qtTpt0HkwfggMCgGEja5MI2x05YNoeieAsOmdnaaaaQibRmfYKGKAsFGUjLhDQdjETTTj9oaHh58Vkd3XXODJeFZ9ZJwNuo+bwLYXfy/vv+ynTtj8plqtYiTjBkx7EFBKAGGjKzEIG135IJreCSBsemenqWYawkbTeIllsAggbAqW7+AvnpGL31mwkTEcCLxGoHzRT/z/5xp1ZgQEBocAwkZXrhE2uvJBNL0TQNj0zk5TTYSNpmwQS9wEEDZxE824PYRNxgmg+8QJIGwSR0wHEFBHAGGjKyUIG135IJreCSBsemenqSbCRlM2iCVuAgibuIlm3B7CJuME0H3iBBA2iSOmAwioI4Cw0ZUShI2ufBBN7wQQNr2z01QTYaMpG8QSNwGETdxEM24PYZNxAug+cQIIm8QR0wEE1BFA2OhKCcJGVz6IpncCCJve2WmqibDRlA1iiZsAwiZuohm3h7DJOAF0nzgBhE3iiOkAAuoIIGx0pQRhoysfRNM7AYRN7+w01UTYaMoGscRNAGETN9GM20PYZJwAuk+cAMImccR0AAF1BPIkbO76+U3y5LZNcsI758k1qy+RIw+eLQf9Ubkh06DsSYfPV8e8VUAIm1yli2BbEEDYFGN6IGyKkUdG0ZgAwqZgMwNhU7CEMpwdCCBsmBQQGDwCWoWNEy4/f2ydzJlxobz+dePkhe3b5KrvL5K/fPdC2WePqfL4bzbK9zes9P/sfh9+/c+vR+Sfb57XNJlTJx8qZ89aKruNm6Au4QgbdSkhoB4JIGx6BKesGsJGWUIIJ1YCCJtYcWbfGMIm+xxse/EVWXLrI3LOcX8sE8a/LvuAChYBwqZgCWU4EOiAgFZh40J34mXNAzf60ubmnyyXO366oumIpr31WL/cugfvkFtGlsvuu+4lB/3ROyW8wsZJnytuW+CvzHnP207sgE76RRA26TOnx2QIIGyS4Zp2qwibtInTX5oEEDZp0k6hL4RNf5Bvqjwl6371vFx44v4ybudST43F0UZPHQ9IJYTNgCSaYUIgRECzsAnCdKttrlm9WI45bG5dwDiZs+GRu8cImeiqnKDevA9cKt+579/l2Re3yoLjrvRX6Gh9IWy0Zoa4uiWAsOmWmM7yCBudeSGqeAggbOLhqKYVhE1/qehXtrjVNQv+45eyYfNvmway95t2liv/nwNl6qRd+wt2QGsjbAY08Qx7oAloFzZu69N1P75c/vygE2T5d89rmqtPn7B8zHk2L7+y3T/nZt2Dt9frBKtwoluoNE0AhI2mbBBLPwQQNv3Q01MXYaMnF0QSPwGETfxMM20RYZMpfll256N+APOPfkvDQJzQWXTjr2ThMW9B2PSYKoRNj+CoBoEcE9AubAK00RU10T9HBc2eu+29w2oaJ3+W3nqWPPPCE36zGgUOwibHbyZCH0MAYVOMCYGwKUYeGUVjAgibgs0MhE1/CXUrbDZt3V4XLhufeknO+rdfyBPP/t5vePknDpTy1N0lEC8nDE2Uf7nzURn64zfK8UN7yVn/9suGASw6cT85cXhSvR7Cpvc8IWx6Z0dNCOSVgGZhE6yuOe19i+WxZx4aswWq0ZYol4PgnJqNWzY0TQmHDud1thJ3ngggbPKUreaxImyKkUdGgbAZiDmAsOkvzWFhs/33NfnWyFPykfIk/zwb97sbR7bK0o//qd+J2/o0ZY9d/PNufJnzg8fkiD99k9x5/2/8FTTBGTiunnshbPrLTVAbYRMPR1qBQJ4IaBY24au52938NGfGIv8gYSdsVt69RE4+4hz/Fqjon91KHHeA8TFDc7glKk8TlVhzRwBhk7uUNQwYYVOMPDIKhM1AzAGETX9pjq6wCbfmVttcfsejsnj2n9SFzfwP7OuvuAlerszKtVtaChtukOovRwib/vhRGwJ5JKBV2Dix4s6ued+hJ/uHBLfbEhWwZ4VNHmchMReRAMKmGFlF2BQjj4wCYTMQcwBh01+aoytsLrnpYbn9Z8/UGw0ODN7jDTs3PIsmuoUqqBjeEoWw6S9HCJv++FEbAnkkoFXYuO1Q39+wUv7y3QvFHRLcjbBhhU0eZyIxF40AwqYYGUXYFCOPjAJhMxBzAGHTX5rDwiZ6Y5STMRd9a6Nc/JGp0krYRFfYhCMa2ficv61q1jv2lMrDzzc9nLi/URS7NsKm2PlldBBoRECrsLnhnmXy5gn7+duc3KvdlqjgXBpX9orbFghn2DDfIZAtAYRNtvzj6h1hExdJ2tFIgEOHNWalj5gQNn3AE/HPqQkOHY4KG3cD1B0bnvGv5O5G2DQ6uHjzb37nB+rOteHVHQGETXe8KA2BIhDQKmyibJsdMhwtFz2zJvp7zrApwqxlDEkRsNbOFJEZcbT/1a9+9bOunTPPPNP//xheq40xq2Johya6IICw6QIWRXNHAGGTu5S1Dhhh019CW22J+syst8ht9z3d1wobF507zNhttZpdnjjm/Jv+Ih+c2gibwck1I4VAQCAvwmZQMsa13oOSaZ3jtNY6uXKRzujkYmNMXPJH6RD1hYWw0ZcTIoqPAMImPpYqWkLY9JcGt4rGveYf/ZaeG3JtrLj7yZb15x7x5r766Dm4AlRE2BQgiQwBAl0SQNh0CSzh4gibhAHTfEsCCBsmSJQAwoY5UWQCCJuCZRdh03tCt734in9Vd/Tmp95bpGYSBBA2SVClTQjoJoCw0ZUfhI2ufAxaNAibQct4+/EibNozokR+CSBs8pu7hpEjbLpPaCBqNmz+rbDypXt+addA2KRNnP4gkD0BhE32OQhHgLDRlY9BiyYQNjfddJPceOONsnTpUpkwYYIsW7ZMjjjiCCmXy7J9+3a55JJLZNq0aXLiia8dCu5eIyMjcvfdd8v8+fO7wrZt2za55pprZN68eTJu3Dhxf16yZImcccYZctFFF/ntuX5F2BLVFdgeCg8PD79PRL7XYdUzK5XK8g7LUgwCKgkgbFSmpfegEDa9s6NmPgggbPKRJ6KEQJwEEDZx0uy/LYRN/wxpoXcCgbB5/PHH5brrrpMnn3xSLrzwQlm+fLkvbA455BBf1rjXJz/5SZk6dWrPwsZJoBUrVuwQ7KWXXiqrVq2Sc845xxc4rr/Zs2c7acMZNr2nttOaxvO8J4wxk621Ykzzx9larXbE+vXrf9Rpw5SDgEYCCBuNWekjJoRNH/ComgsCCJtcpIkgIRArAYRNrDj7bgxh0zdCGuiDQLMtUeEVNs2ab7TCxq2WWbBggWzYsKFebe7cuWNW4URX2LgVPE4QzZkzx1/dE3ohbPrIbadVh4eHl4jIZ9oIm2crlcoeImI7bZdyENBIAGGjMSt9xJSWsHG3KblX+Fpqd331Rd/a6N+iNHXSrmNGcdUPH5ejDp7g/9zVXXzTpqajXP6JAxventTpGTPuFqbL73hUTp4+eUwcIxufk7t/+SyH/fYxvzRURdhoyAIxQCBdAgibdHm36w1h044Qv0+SwKZNm7544YUXnhMWLK36O/bYY+Xss8+Wc889d4yUcXWcmHHSJbzdKZA6brWO2wLVzeuCCy74xkknnXRqN3Uo2z2BoaGhoVKpVHXCxr3Cq2xCEuf/ViqVk7tvnRoQ0EUAYaMrH31Hk4awceJkya2PyDnH/bE89OSLMu8bv2ga96IT9/Oljquz6MZfycJj3uJLlEbyxP1s2Xcfk6Uf/1OZMP51Ddt0UsjJmMWz/6RlmZVrt/h9OXkTjjUuYeOk07pfPS8Xnri/jNu5VI/VjeHGka07/LzvxHbQwKBcF46w6WAyUAQCBSOAsNGVUISNrnwMWjTRFTYbN26UlStX+hgee+wxcX++8sorx2yFChiFV9i4/968ebPMmDGjobAJn3MTXb3jVthcfvnlcvLJJ0f7YYVNShPS87z7jTF/1qy7Wq32ifXr1++4ny2l+OgGAnERQNjERVJJO2kIGycrpuyxi78KptWqlegqnGhZ9/tNW7f7K17+f/beBUyussr3Xrs63Z07SciVNIQQ7gToqoagA4oXFPGGos7xjA4oatA5AqIyM35zDJJxxlGcUdDzzTGeEWHUjxkVhkFF1BE4gEKwq0JMRAMhhiTkfiH3dJLe3/Pf1avy9tt7V+1dtXfVrqr/fp5+Qlft9/Z7dyddP9a7Fkphb959uCQ6KkXh2LhnHtcpX//z00sRPHgfosgcM84IGwqbxj3wFDaNY8+RSaBRBChsGkXef1wKm3TtR7vNxkw6vHjxYkEEjeawmTNnjqxdu7aUd0bfQ54ZXFGEDSJv7KNSyhqROePHj5fXvva1MmvWLOawacBD2Nvb+5lMJvP39rEo/d513emFQqF4JIAXCTQxAQqbJt48v6knLWwQKXP34xvl6ktmeZErMyZ2yl1PbA6kqBE2fjdoRMhPf7sjsDqTGc1jR90g2ubhZ3fJta+eVerePjYFERQ0vzedO6XqSBgKm8b94FDYNI49RyaBRhGgsGkUeQqbdJHnbEDgV7/61dc///nP/w8cVzIrQPnlsMFrkDRaSSqKsEGEDXLXLFq0SG666SZ54IEHSlWoMA9Uqerp6fE2xag8xQibOj2m5513Xs+oUaPW+R2LgpvL5/MX1GkqHIYEEiVAYZMo3vp3nrSwQZSKHoGCjEGkTaVjRhotM79nnNxw2WxZdN8a2fTyYTGjYsx+cZ95LMrMf2MSNSN99HUdC3lwpozvHHZ8qlyEDeTPx/91lSx+51zf/Dn2ToYVNua6zJLhpqxC3+Z7eqwKHL784Drxk146X3BUXjia9bf3/1Gu6ptaWoMZqWRzNd8zxwh6vf5Ps/+IFDZp2QnOgwTqR4DCpn6sw4zECJswlHhPUgRU2GzatCnUEPPnzy8JG0gWXBA9YY5E4X5E8dgXJA5kzTPPPCPLli3zhM5QNSoKm1C7Es9NuVzu/4rIq7Q3I7rm84VC4bPxjMJeSKCxBChsGss/9tGTFjaYMKJYVqzfK5ecPsk7coScLet3HpIV6/eNWI+KiKBImaAEwWZHfqLFrz/NbzNh9ChPWmBOenQL/dVb2GzcdWhYEubfbdgnY7oyMmtStydWEJ2E42AqbxacMqF0jAtSLCg6SSWQJmfW/bhg7sRhwgY8nt98QN4wf0ppDB3Tzhf0+KpdMr9nvJeTyMwjpK8H5RSK/QEO0SGFTQhIvIUEWowAhU26NpTCJl370W6z8asSZUbRQLBYlZs8RMg7Y5Tf9iJkcIXJYYP77Age5Mr5+Mc/7iUmNiJ9KGzq+EDmcrnrROR/28eiWM67jpvAoRInQGGTOOL6DlAPYaPHjBAh8/4/memJGoiAy86ZIk+u3u1Vg8JRJf0TR5ZMwbJz32EvmgXRIX6XGW3i/QN7eHBE5AjmMGfq6GFVqiAhcCHi5+LTjhsRKVPvHDYQNn5RO37Jlc18PpWSL/utPYiTydceA5FOmvdH78PYfq/X9ykuPxqFTZp2g3MhgfoQoLCpD+ewo1DYhCXF+5Ig4Jd0+JZbbpFbb73VGw7JgP2kDQSL+V41wuauu4o5bBFhgwvjoLx3X1+fJ3R6enpYJSqJTQ/o89xzz53c2dmJ3AydhrRhOe867gGHSp4AhU3yjOs6QtLCRnPEIIIFSX0hAbbvPSJ7Dx4JLWzMaI0wETYAaFaHevT3O0vJiv3gQmhA2EDclMuvYx7JirpJ1RyJ0ogZ85iUOa7m1Fm5fm9gpalylaDs98xjUzqOmbfHPPpkllIPej0qo6Tup7BJiiz7JYH0EqCwSdfeUNikaz/abTYqbDTCBes3q0Ih7wySBePS3DUaXbNgwYJSNIxGzMybN29EcmEt920nHVY5A9mzdOlSed/73udF6nzsYx/zKk294x3vuG3OnDl/2W570sj1ZrPZ/3Ac50qdg+u69xQKhf/eyDlxbBKIkwCFTZw0U9BX0sLGXiLkyFknjJPv/Hpz6CNREC6L718bSCtIpKiA6D1pQtlkwSpsUMXKvOKMsAmKgjGjWMyxzRw5eL1c+fJypcHt41PmGKawOadnvBeVpMescF85ydRM0TYUNin4i4ZTIIE6E6CwqTPwCsNR2KRrP9ptNj/84Q/v/Lu/+7sPzJw5M7B8N5iouFmxYoV86lOfkpUrV8rNN98st912m/z0pz8VzW2DeyFbcLQJ1aTMxMQmWxU8KAWOSlRa9hv3oy0kzw033MAjUXV+IHt7e9+TyWT+3RA21xQKhbvrPA0ORwKJEaCwSQxtYzquh7AxE+Yike2t75wr/5nfGirC5jVnTpIp40aVjiuFjbDRyB7kpNHcNJ+98mRBol0/iRT1SFTUpMM6n7454708NLjsPvSIFsSRKVPmzRgrN373OS/PDqKUVKaYpdKRF0jXp23N/DOmYPHLYWMLG5Mf+n3sD7vk1BljvDLoeG/RvS/ITZef6OW88Xsd96XlorBJy05wHiRQPwIUNvVjHWYkCpswlHhPUgRc132NiOCr5mvJkiW3oJOFCxcWz1PVfj3iOM4jtXfDHsIS6Ovrw3GoAyLSgTYs5x2WHO9rFgIUNs2yUyHnmbSwMXOcLF+31zuahBLfKPVdKYcNJAWkhClaKgkbPT5kVzgKeh2YqomwiSpsMI5KEDPZsnm0qFwlKLutmWDYjrCxhQ3G9quqZVeJsitJXXrGJFm95YDHH31iP3TuOn7QvNDXPU9t8aSOnyQL+XjGchuFTSwY2QkJNBUBCpt0bReFTbr2g7OpnoD+3ZLP5/mZqHqMDW+ZzWb/6DjOHEyEe9nw7eAEYibAv5xiBtro7pIWNro+U7RMHtfpCZuFr53tfZg3RYWKAHzgRyJiJCA2ryBho3lU7ATENl8VDNv2DJQS6FYjbBq9b80wPvYEkT9myfVGzJvCphHUOSYJNJYAhU1j+dujU9ikaz84m+oJUNhUzy5NLXt7e7+UyWRudl13eaFQOD9Nc+NcSKBWAhQ2tRJMWft6CZuULZvTqROBoBw9dRreG4bCpp60ORYJpIMAhU069kFnQWGTrv3gbKonkFZhk81mP+Q4zsdc1z3RcZzp1a+wPVqiQpRejsOPtyF2fbfruuscx3lwy5Yti9avX48jZbxSSoBPdEo3ptppUdhUS47tmoUAhU2z7BTnSQLxEaCwiY9lHD1R2MRBkX2kgUAahU02m/224zjXpIEP59D6BFzXfXbPnj3Z559//lDrr7Y5V0hh05z7FjhrCpsW21AuZwQBChs+FCTQfgQobNK15xQ26doPzqZ6AmkTNtls9jLHcX7uZjKy8e1vl50XXCCHpk0TYdRIxU12jh4Vt8PLO8yrAoFRL78sE599Vmb/4AfSuXu3DA4O/t2yZcv+J8GlkwCFTTr3pepZUdhUjY4Nm4QAhU2TbBSnSQIxEqCwiRFmDF1R2MQAkV2kgkDahE0ul/uSiNy89dWvlnXvf38qGHESrUtg8m9+I3OXLEFlracLhcKC1l1pc6+Mwqa592/E7ClsWmxDuZwRBChs+FCQQPsRoLBJ155T2KRrPzib6gmkUNjcKyLvfOGjH5VduVz1C2NLEghBoGPvXjn/k5+EsNlZKBSmhGjCWxpAgMKmAdCTHDINwsYsJ61rNctWR1k/Kj7NmTparsxNi9KsdG+50tpVdRjQCMl4l76wZ1jJ8jj7N/uyy34nNU5a+6WwSevOcF4kkBwBCpvk2FbTM4VNNdTYJo0E0iZsstnsI47jXLrqU5+SvWeckUZknFOLEcgtXOitiOXQ07uxFDbp3ZuqZtZoYQOZsPDbq2TJB06XvrkTvTVo6e2+OePlhjeeGGldtQgblTULTplQEj6YHy6dW6TJlLmZwiYukpX7obCpzIh3kECrEchms9sdx5nyT9f8l4wfPanVltdU69l7cJd88q7X4//I7igUCsc31eQ5WRKwCFDY8JFodwIUNul/Aihs0r9HkWbYSGGjYuaGy2aPECLl3iu3wFqEDSJ9vvLQOll81SkyaeyoSBzTfDMjbH7D/xOQ5geUcyOBBAhks9mnHMdZsPCyL8gF896YwAjsMiyB36z+mSz5xWcgbJYWCoWLwrbjfSSQRgIUNmncFc6pngQobOpJu7qxKGyq45baVo0UNpVEAuQLLkTZICJl7baD3vd3PbG5FJGD1xffv9Z7/U3nTpHxozvk7BPGDouQQQQPrpnHdcrX//x0mTttjGg0zWvOnCTf+fVm7/1PXn6i/D8/WC2L3zk3MKJGI4Ls/iCYFt37grytd6p89Wfr5Nye8V6frzx1YmkuZgQP3rOPRGG9WBsu80hY0Jh+D5VfHzZnlWEr1u8bMZb53vyecXL7+07z5FXQ66l9sI2JMcKmGXaJcySBeAnkcrmbROSfJo45Xt79ihvlrJ6L5LixU+MdhL2VJfDy/m3y7Pqn5AdP3i67D2zHvTfl8/mvEhsJNDMBCptm3j3OPQ4CFDZxUEy2DwqbZPnWvfdGChuVMEHHnsxjQw/9drsnZsyjU3j/3v5tJamgYkNlB75fdN+akqTB93f8YoN3/+jOjPzt/X+U9TsPldoDvgogvxw65fpD2xu/+5z0TO4u5aWxjz2Z4z/6+50lYYO2mAuuz155sje3x1ftkvk942X15v2BazCjgFQGBfUBTtr3PU9uljedd7wnYsw1zZrU7c1Dj4RB0qxYv1cumDvR9/VLTm+OYwYUNnX/a4UDkkDDCfT19XW6rvtbEWFSh4bvhiC65neZTKa3v7//cAqmwymQQNUEKGyqRseGLUKAwib9G0lhk/49ijTDtAsbRNVohI0ZkaKC4qq+qcOiYfRI1OXnHj9MMgCKRsHcdPmJYssJE5oZ0aKCyC+/jdnf5HGdnrAxj3fhiNUt962RW98514vqsSOGdD0bdx3yPYpVaUz0qVe541zlIpn8mMyY2Dksd5DOw3490oPWwJspbBoIn0OTQAMJ9PT0jJk+ffpi13WvEJGTHccZ18DptOPQu13XXec4zoNbtmxZtH79+gPtCIFrbi0CFDattZ9cTXQCFDbRmdW7BYVNvYknPF4jhU01R6I0GscUDaa4sIXNT3+7YwRBSJhzesZ7QscWPn7iBtE2KoCC+ps3Y6x3JAoyyG8+l545edj7ZvTNyvV7vUghjYDROdgVq8y5mZFGeL0cS/s989iU9qn9mUefcMRM5xT0esKPZyzdU9jEgpGdkAAJNIBA2j4cNgABhySBVBFI288kq0Sl6vFoi8lQ2KR/myls0r9HkWbYSGFTKemwKUDs41N+bc2IFL8IGxNMUISODU/HXfja2SMidsx7gwSSypIrzpsiDy7f4XtcCsJGj2r5HXMyq1YFba553MpOmGwKG3usoD0IiqppxmgbCptIfyXwZhIggRQRSNuHwxSh4VRIoCEE0vYzSWHTkMegrQelsEn/9lPYpH+PIs2wkcIGEw1b1tsv3w0iRTbvPjxMgiDPjeafsXPcQE7c/fhGgXzBZUfY4FjRw8/ukmtfPct73z6SVK4/3OsXYaMiB3++64JppQTEZoSNzsU8cqQ5bJDrxszTY64BR6k+/q+rvCTJGjHk1wfy4GgEjy1sNGcPImwQJfTT5dvlva+Y4a1fmV99ySzf16OWXI/0YMZ4M4VNjDDZFQmQQF0JpO3DYV0Xz8FIIIUE0vYzSWGTwoekxadEYZP+DaawSf8eRZpho4UNJgtRAvGw6eVjuQjtIz9+wsY+MnTNxUXRMGfq6GFiRKtImVWPgiJszPw16At9mmLCrEplV1HyEzboA2Kpf+3eEcmN/XLy6JErM+lx0JjKTata2TzM5MvmkSvzSNT/eP1sefQPu0q5d4LGCnodfV182nGBVbUiPYwJ3UxhkxBYdksCJJA4gbR9OEx8wRyABFJOIG0/kxQ2KX9gWnB6FDbp31QKm/TvUaQZpkHYRJowb04VAT1ShVxAV+ampWpuOhkKm1RuCydFAiQQgkDaPhyGmDJvIYGWJpC2n0kKm5Z+3FK5OAqbVG7LsElR2KR/jyLNkMImEi7e7EMgKH9PWmBR2KRlJzgPEiCBqATS9uEw6vx5Pwm0GoG0/UxS2LTaE5b+9VDYpH+PKGzSv0eRZkhhEwkXb25CAhQ2TbhpnDIJkIBHIG0fDrktJNDuBNL2M0lh0+5PZP3XT2FTf+ZRR6SwiUos5fdT2KR8gzi9mglQ2NSMkB2QAAk0iEDaPhw2CAOHJYHUEEjbzySFTWoejbaZCIVN+qhbDLgAACAASURBVLeawib9exRphhQ2kXDx5iYkQGHThJvGKZMACXgE0vbhkNtCAu1OIG0/kxQ27f5E1n/9FDb1Zx51RAqbqMRSfj+FTco3iNOrmQCFTc0I2QEJkECDCKTtw2GDMHBYEkgNgbT9TFLYpObRaJuJUNikf6spbNK/R5FmmJSwqVQeO9IkU3yzVknCFG9/32kyaeyoEbNF6euHVuyQr//56TJ32pgUr6a6qQWVSK+ut/hbUdjEz5Q9kgAJ1IdA2j4c1mfVHIUE0ksgbT+TFDbpfVZadWYUNunfWQqb9O9RpBkmIWwgKPrX7h0mMO7Pb5Weyd3SN3dipPmZN6OPpS/skc9eebKM7sxU3U+cDVXYrFi/TxZdOWdEaWu8f9tPXpR1Ow7Kre+cS2ETJ/yQfVHYhATF20iABFJHIG0fDlMHiBMigToTSNvPJIVNnR8ADicUNul/CChs0r9HkWYYt7CBVLm3f1tgtEmkyVk3p1nY9M0ZL5t3Hx4hkzDn7XuPyLIX98hNl59IYVPLA1BlWwqbKsGxGQmQQMMJpO3DYcOBcAIk0GACafuZpLBp8APRhsNT2KR/0yls0r9HkWYYp7DRozELTpkwItJEJ6URKTdcNrsUbYPjU3f8YkNJ8pjHqa65eIbc8MYTBVE7dz2xubQ2jWYxI1zw5vyecaV+dD6vOXOSfOfXmwVRMPr+3Y9vLPVnR8ZAsiy+f603ltkfxlp07wvytt6p8tWfrZPekybI9W/okb/699XykUtnyYPLd8hVfVNL69L7r7l4ptz1xKZhwsZcz5vOnVISPVg7hNcV502RG7/7vDcHZaCLD5of3l+z9YB8/F9XyaaXD8vM4zrlE288UR5Ytk0WX3WKd1xLmfz0tztG9K1jY81ffnCdb8SQ2b+yQbTT397/x2FrLzdH8z2TfdDrkR5on5spbGolyPYkQAKNIpC2D4eN4sBxSSAtBNL2M0lhk5Yno33mQWGT/r2msEn/HkWaYZzCRgVFuUiSSsJm577Dcst9a0rHh363YZ+M6cp4kSl2hI32BUlyZW6at24zwkdFwvqdhzyJo99DViz5wOmeWIGkWHTfmlJ+GTtCyBwTsuPG7z7nHe3SY1nmejCOeWRLBQikzt8/8MeSsMHruDC+vQaVVSppVJAsfudc7358//zmA/KG+VNK8mXGxE5Patl9qZyx16/324JNx/Y72oX56vvKDuOtWL9XLpg7cZiwKTdHW849vmqXzO8ZL6s37x8m7fR1v5xAkR5wcL7lN16TfD7Pv7+iwuP9JEACDSWQtg+HDYXBwUkgBQTS9jNJYZOCh6LNpkBhk/4N5wee9O9RpBmmUdggQkQFhbkYW9j4HZEyE+Ce0zPeEwlmxI+f9EHUDCTT5HGdnpAxo38gH77y0DovQgWX/b4pbObNGOtF4KCvWZO6SxLDfN0v6TCibeZMHe1JJ1toYEzzfXtzsZ612w56wkYFkZnjx+zPliIquMz2ZqSTPVbQPColHbbnaAoyHcMWZ5Ee4go3U9jESZN9kQAJJETAyWazLzqO0xOi/8fy+fyrQ9zHW0iABGImkISwyeVy5x09enT0M88887SIuFGmTGEThRbvjYMAhU0cFJPtg8ImWb517z1OYVPpgzsWVynCBhEV5pEo+8iMGcFiigAFZ0aNXH7u8b5Hdcw+bOECIYOjU+aFo0Wo8ASho0JGxYu9HkgNXG/LTh0mesx2dgUt3K8RNX7SxRQl5pEknaMeqXrot9tL8kbfM4UThM3Cb68a8Yxp+5Xr93rHsfySOpfbW/u9cnNElJN59EmjdTCpoNdr/aGgsKmVINuTAAnUg0A2m/17x3E+47quOE7ZX7e+mc/nF9ZjThyDBEhgOIGEhE1eRLKu624RkQdF5EcDAwM/Xbly5d5K/ClsKhHi+3EToLCJm2j8/VHYxM+0oT3GKWz0Q3e5Sk5hhI0pG8xom2ojbMy8MkHHqhBVg0gYO4LG3By/I1/2elSQTBg9qhTZY7bzi+JRyRMUJaPCRgVUUMQQhI3NvlKEjbk+P1mk75fLTxQ1qkn7DIqqiTvahsKmoX/FcHASIIGQBLLZ7NmO46yEsMFlSxtD5FyVz+fvC9ktbyMBEoiRQBLCJpvNrvOJrjssIo+5rvvjo0eP/nj58uV/8FsGhc1wKpmBATnp7rtlz5lnyr5582TOnXfK2g9+UA7OmjXsxvF/+IPMvvdeWX399XLcsmUy5+67Ze3VV8v2Sy4ZgXn0xo0y7/bbZeeFF8pL73pXjE9Tc3ZFYZP+faOwSf8eRZph3MJGBYaZ50VFDl7TY0p2HhXNs4IoEFzI12JHboTNYaPSAv34JcMNirDBmJAjZrUnCJiHn90l1756lhcdVCnCRueMqlCIykEkTjlho9Eol8+fEnisKUjY2Kw37jrkJRzW42T6Pjgghw8uCCk754+WWw+K7lEeiMAxjzP55bCxj6HZc3zsD7vk1BljRnBBXh6/1/2OkEV6wJnDJiou3k8CJNBAAtlsdpnjOOeXmcJRx3Em9vf3F/+x5EUCJFBXAkkKGzO6zifSbjUibwYHB3/c0dHxSH9/P4SOUNgEC5udCxaU5I0tYk744Q+9hhAwxz/+uCds9s2d6wmcI+PHD+sU70/q75cDPT0UNiIs613Xv3GqG4zCpjpuqW0Vt7DRhQZVdcL7diWj9//JTEEiYDsxMO41KySZFaGCqkSZFZf8jvGUi7CBsMEVVMEpjLBBe4iPJ5572RMwuOx25pEozHf86A4Z15WpKGyQ48au0nTpGZNk9ZYDw6pM6bEnVHFC5BAqVGmVKLuqlnnkrJKwwXEmc+5BVaLKzVETN+uxs6B9DEp8XM0PEiNsqqHGNiRAAo0g0Nvb++lMJnNb0LEo13UfKRQKr23E3DgmCZCAiP7eLCK3xsjjJhEp/hIa4nJd13Ucx3Fd9wER6XUc58RVn/qU7D3jjBCtW/sWM8IGkgayZcLvfy8vXn21DHZ1eYsftXevzPva12TDVVd5zDwhk8epNJHNl18+jCPu7bnnHjl4wgmSOXCAwobCpil+gChsmmKbwk8yKWETfga8M0kC5Y45JTlumvqmsEnTbnAuJEAC5Qicd9550zs6OjYNfRgrHYsyBM5f5vP520iRBEigMQQMYVPXCZSRuN7fE6v/4i/k5d7eus4pjYPZwgbHmexjUeZxKETTqNTZcdFFMuWpp4bJHbzXvXmzHJoxw/uTR6IYYZPG596eE4VNM+xShDlS2ESAlfJbET1z9+MbZeFrZ3slzP3Knqd8CYlMj8ImEazslARIICECuVzulyIyLIpGP6wdOXLk3OXLl69IaGh2SwIkUIFALpf7XAKQAiNsNKcVxvTJa/Ubx3Fmi8gsRtgUd8UWNvb3uMc8DoXvVdi8dNVVMvcb3yhF3mjbba96lXRv3UphM/TgM4dNAn8DxNwlhU3MQBvdHYVNo3cg3vHtClRxHi2Kd6b1643Cpn6sORIJkEDtBLLZ7LWO4/yL/X/UXdfdUCgUwpT9rn0S7IEESKBuBPySDgckH9/vuu5/uK773WXLlj0kIkeZw2b4NvkJGkTUTH3sMS9yBu/P+da3ZMN73lNKRGwem5q8dGlJzJjtzNfr9mCkdCAKm5RujDEtCpv071GkGVLYRMLFm5uQAIVNE24ap0wCbUzgnHPOGd/d3b1DRDotDCzn3cbPBZfeugRsYWPJ2iOu6/7CcZzvHjly5L7ly5fvM0lQ2FQWNshDo5Jm1O7dJXmjOW1MYdO1fXvpCNWUX/3KOwqluXB4JKrImsIm/X8XUdikf48izZDCJhIu3tyEBChsmnDTOGUSaHMC2Wz2B47jePVjYyjn3TEkfw6huzZHy+WTQOoIBETYLBWR72Qymf+vv79/W9CkKWz8hQ2OMZlJmHEMSvPQqITRlnZiYtzbcfCgQN6svfZar2qU5rJhDhsKm9T9BeIzIQqbZtilCHOksIkAi7c2JQEKm6bcNk6aBNqaQG9v7zsymcx9BoRqynnjd7bRIoLSKEdFBKXAB9saLBdPAikkkM1mn3Yc5wLXdZ8biqS5e/ny5WvCTJXCZjglO6Gwvuu9PlTKe+0HP1g6DoX3bWGDe0//x3+UTZdfXkoyTGFzjDMjbML8ZDb2HgqbxvKPffRsNrvdcZwp//VX58uksXb0dezDsUMSqCuBXfsPy+u/+Az+D/WOQqFwfF0H52AkQAIkUCWBvr6+zsHBwc2O40we6uLhfD7/uojdjRmSNdoMwuZwxD54OwmQQMIEstns9YODg08988wziKqJdFHYFHGpZDk0ZYqsvvHGYUIG72sp70PTpg2rAuUnbJDnZvb3vy9bX/e6YXlueCSqyJrCJtKPaENuprBpCPbkBs1ms085jrPgC+85Rd44f0pyA7FnEmgAgZ+t2CGf+f4LEDZLC4XCRQ2YAockARIggaoI5HK5JSLykaHG1ZTzRmQNpI1eB0UEx6J4kQAJtAgBCpsW2cgmWgaFTfo3i8Im/XsUaYa5XA6lBP/p+PGdcuMbe+SiUybI1An4HY8XCTQvgW17BuSpF/bI7T9bL9v3ev9D+aZ8Pv/V5l0RZ04CJNBuBLLZ7Ksdx3kU666ynDdy14xDNeAhdvjLEFE2vEiABFqEAIVNi2xkEy2Dwib9m0Vhk/49ijRDhF27rvtbETkjUkPeTAJNQsB13d9lMpne/v5+HgVokj3jNEmABDwCTjab9XLOFAqFan7/QpuxOA0wxJN5bPhgkUCLEaCwabENbYLlUNikf5Oq+YUh/atq8xn29PSMmT59+mLXda8QkZMdx8H/keNFAs1MYLfruuscx3lwy5Yti9avX3+gmRfDuZMACUQn0Ar/tlnlfSNDGBwc9KpM6ZXJZMRx6varHP8ejrxjbEAC0QhQ2ETjxbtrJ0BhUzvDpHuo27/ySS+E/ZNAIwjkcrlbRORz+Mrn87c2Yg4ckwRIgARanQBkzbRp0/odxzmr2ddai7RBW0gbvSBrIG3qfbmu++yePXuyzz//PHPo1Bs+x2tpAhQ2Lb29qVwchU0qt2XYpChs0r9HnGGKCVDYpHhzODUSIIGWIdDb2/v5TCbzN2PGHC+veMWN0tNzkYwdO7Up1zc4eEQymVGeeDly5JA4TkY6O7tDrWVw8KgMDOwX1y1Km46OLunqMvMQh+qmqpv2798m69c/JU8+ebscOLAd8/+7ZcuW/c+qOmMjEiABXwIUNnww6k2AwqbexKOPR2ETnRlbkECJAIUNHwYSIAESSJ5ANptd6jjOhZdd9gWZN++NyQ+Y4AiIkoGoOXJkQESKx5tGjRodStqg7eHDB+To0WIKL8fpkK6usXWNslm9+mfyi198Bkezni4UCgsSRMWuSaDtCFDYtN2WN3zBFDYN34KKE6CwqYiIN5BAMAEKGz4dJEACJJA8gVwu97KITLz22seksxN5d5v3gmxBlIx9hZU2hw9D9qCid/Hq6honHR2ahzh5LgcP7pK77no9hM3OQqEwJfkROQIJtA8BCpv22eu0rJTCJi07ETwPCpv07xFnmGICFDYp3hxOjQRIoGUI5HI5LxTluuv6m35N9rEmc0FhpM3Ro0dkYGBfqVln5xgZNaqrrly+8Y0+b7x8Ps/fI+tKnoO1OgEKm1bf4fStj8ImfXtiz4j/0KZ/jzjDFBOgsEnx5nBqJEACLUOglYQNjjUhwga5bPyuUaO6pbNzdODeIfdNMY8NqnrXN4+NTorCpmV+tLiQlBGgsEnZhrTBdChs0r/JFDbp3yPOMMUEKGxSvDmcGgmQQMsQaCVhg005fPigl8cGF/LQ4FIBg/+uJG0GBpDHBjlwxEtgjDw2dSzvLRQ2LfOjxYWkjACFTco2pA2mQ2GT/k2msEn/HnGGKSZAYZPizeHUSIAEWoZAqwkbM48NhAu+IGC0+lMlaYOExUg+XLwc6e4eJ5lMUfzU46KwqQdljtGOBChs2nHXG7tmCpvG8g8zOoVNGEq8hwQCCFDY8NEgARIggeQJtJqwsfPYIHEwKkYh8iaMtEH7Q4eQx6ZYZareeWwobJJ/5jlCexKgsGnPfW/kqilsGkk/3NgUNuE48S4S8CVAYcMHgwRIgASSJ5BmYVMstX3QO5JULveMScnOY6PCBQmFETljSpuOji6vX/PIk92+0hGquHeIwiZuouyPBIoEKGz4JNSbAIVNvYlHH4/CJjoztiCBEgEKGz4MJEACJJA8gbQKGxxNQi4aFSxRxImZxwZSpqtrjAcyrLQx29c7jw2FTfLPPEdoTwIUNu25741cNYVNI+mHG5vCJhwn3kUCvgQobPhgkAAJkEDyBNIobIbnkTnGIKy0MdvbwsVf2nR6R5800sbMg+M4GS/xcL3y2FDYJP/Mc4T2JEBh05773shVU9g0kn64sSlswnHiXSRAYcNngARIgAQaRCCNwgYoitLlYCmXjOIJI22G56EZmTjYznODvjs6jkkbu7w3hA3er8dFYVMPyhyjHQlQ2LTjrjd2zRQ2jeUfZnQKmzCUeA8JBBBghA0fDRIgARJInkBahQ1WXox0QcWmYgLgsNImKI+N2Uc5aYP7kO8G4+MKI4ni2ikKm7hIsh8SGE6AwoZPRL0JUNjUm3j08ShsojNjixYh0NfXN9V13R+5rrukUCh8K5fLneW67vWZTObT/f39+7PZ7KWO43zRcZy39vf3b8Oy+/r6xg4ODn7ZcZyv5fP5Z6MIm2w2e62IrC4UCo+ir6HvlebrM5nMRzBui+DlMkiABEggNgJpFjYqbewKT2EkipmHJki4FKUNEhEfLfHUSJtiDh1E+AyPvokNfEBHFDZJE2b/7UqAwqZdd75x66awaRz7sCNT2IQlxftajgCEzeDg4Mki8gMRucZxnC0qbAYHBy90HOeRwcHBt3R0dCytVtgMSaAHHceZYwJ0Xfd7IvKUiOyFLIIcEpGFlDYt95hxQSRAAjEQSLuwKUqbkRWeKkkbM4+NedzJRhYkbdBGo3scp2Moj00mBuLlu6CwSRwxB2hTAhQ2bbrxDVw2hU0D4YccmsImJCje1voE7AgbvxUHRdi4rnu/4zhXahvXddc6jnMFonD0NZ8IG0iaeRA2rU+XKyQBEiCB6gnUU9jgqBIECSo/4b8zmYxAhuDPSldUaWPmsakkXIKkTXG+R7yp1SuPDYVNpSeB75NAdQSy2ewPHce56oWPflR25XLVdcJWJBCSQMfevXL+Jz+Jf+t2FAqF40M24211JkBhU2fgHC4dBCBPHMf5l7CzcV33NZArdhvXdXeJyCQRuV9EvoLjTip1BgcHv4njVY7j/FmEcb7HKJuwtHgfCZBAuxCoh7ApHi8aGHb0yOSLSkyIaMHRJa3U5MffT6zgPr8jT3Yem0rCBX3jGJUKGnv8UaNGS2dnd+KPBYVN4og5QJsS6O3t/WImk/nLra9+tax7//vblAKXXS8Ck3/zG5m7ZAmEzdJCoXBRvcblONEIUNhE48W7W5RANpv9BxF5SUSuEJGzROSeQqHw1/ZyzQgbx3HWHj169KFMJnMJImxsYaN5btCHX/TO0DGoK/zGaVHMXBYJkAAJVEOgs7e3dwARLtdd119N+7JtkLT38OFDgaLGbgxxA/kyalRXYL9RpM3wPDaVhQuqQyHZsJ+0gVCC9En6orBJmjD7b1cC55577rmdnZ3L3UxGNr797bLzggvk0LRpIg4/srXrM5HEuke9/LJMfPZZmf2DH0jn7t0Y4qZ8Pv/VJMZin7UT4E9/7QzZQ5MS0KTDInIRImiGcth8WUS+JCJ3ad4ZvKeJgqMKG9d1X+kXyYMjU67r3pzJZE7L5/N/zxw2TfoQcdokQAJJEugQEYSLdJ5//vm7IGw++tF8bOMhusWsshS140pVmYLEit3OzmMTRrj49R1GJEVdY9D9FDZxkWQ/JDCSQDab/T+O43yIbEigHgRc1/1dJpPp7e/vL5Yc5JU6AhQ2qdsSTqgeBBBR4zgOJE2pApRfFIwmDRaRxcg1E1XYIIfNUO6a0x3HucusQjWU9PjTmUzmy4ODg4vNiJx6MOAYJEACJJBiAp0iUgoVgbDBMaSPfawQy5SDImDQeSYzyvvSC5EswUeQuqWzc3TgnMJImyh5bMyBjvV91Iv2qXRUKxZwQ51Q2MRJk32RgK+0+ZDjOB9zXfdEx3GmkxEJxExgt+u66xzHeXDLli2L1q9ffyDm/tldjAQobGKEya6ah8CQsPmrsDN2XfdDQ8IGlaVuz2QyN4rI/kpHohzH2YrS4YjiscZ6ynGcPx0cHPwLx3Hwl+ZEHo0Kuxu8jwRIoA0I4PeTMYiuwVohbPDnRz/aL5kMAm+qv/xljVNWeqDNkSOHBMen7KtS3pigSB6NtBmZx2acdHQcE0blVoq2mhi5eiLRW1LYRGfGFiRAAiRAAiRQDQEKm2qosU3LERiKnPmmiEwRke8HVW4yjy7h//4ODg7+0nGccyvlsAGwgDw2IyJ9Wg4uF0QCJEAC1RGAtUCUjaPC5sMf/pV0do4pm/S3kuAYGNg/LGIG0TSIkgkjgpDr5siRg8OGwFEkHGMq176ctIG4QR6bo0cHvH6xvnL5capDGW8rCpt4ebI3EiABEiABEggiQGHDZ4MERGQo6bAgymXov1f5SRvzvaEjTVGFzYNDuXEQYfMB13W/7brualSGcl13jnlkihtDAiRAAiQgOG/UrcLmgx98tKbS1bZwKcqaMaFKdutemEmC9TUk+60kkorS5piY0bbFo0wZL58Oro6OLunqQnBRei8Km/TuDWdGAiRAAiTQWgQobFprP7maiAT0aJTrul80jyRp2W89CoVuEV3jOM4XNe/NUMQMkhNfiAgbx3Gu1OGRVNhxnCvspMOu63plu/F/jXFUynVdHMtCZaoHh9rOC4ruibg03k4CJEACrUAgg78vzz///D1YDIQNJAsiWsqV1vZbOHK+ILrGdY96b4eJjPHrJyhaplJJbvRVTtocPXrEm1u166vnZlPY1JM2xyIBEiABEmhnAhQ27bz7bbp2Pf7kOM6f2aLGRmKIm38beu+fi7/oO48M/fLtiZqIR6L+YXBw8J8dx/k0khIbx7EuhuTBa226NVw2CZBAexJAfexBETkSsHxE2HjnkCBscFXKG+PXj1mNqdhH+YTB5baimAcH8gfTLl5RRItflM6x8Rzp7h4X6ohWox4XCptGkee4JEACJEAC7UaAwqbddpzrjZVALpe7RUQ+h698Pn9rrJ2zMxIgARJobQLIUYOy3fgT2XxxJsj1WTJy2HhmRIWN43QM5Y1BAE64C4LFTBocJiKmXM9++Wy6usInDPZrr+PVOrdwRKq/i8KmenZsSQIkQAIkQAJRCFDYRKHFe0nAIkBhw0eCBEiABCITgGVBbhqvApRx7R8SNyM6zGazLo40qbDBDVEiZOzjUCK1R7HY1Z2izgn3ByUxxtrSnHiYwibyM88GJEACJEACJFAVAQqbqrCxEQkUCVDY8EkgARIggdAE8DsHImpwBMrv9w8ciYK0GRFlA2EDQfKBD3inUYcuZygBceUS2CPz10SP0PFbpV8S46j5dYpHtXDiy/USDqNiVdT8PKF3IKYbKWxiAsluSIAESIAESKACAQobPiIkUAMBCpsa4LEpCZBAOxGApIGs8TvDhONOh4aia/yOREGODwmbR4fljQlTnQmQkXPm0KF9JRdUbcJhe8Pi6rd4VMuRjo7K8ikNDw2FTRp2gXMgARIgARJoBwIUNu2wy1xjYgQobBJDy45JgARag4CZp8ZvRQMiUgwvKXNB2ODta699Qo4cgds5doXJ9zLySJRIlHwzQVND1M/+/TvkySfvkLPPvkomTTpZurvHy6pVP5JHH108rNn06fPliitul9GjJ8mRIwfl17/+isyf/16ZPHnuiO537lwjP/nJx2Xs2KmlNrU+DphrXJE7FDa17gbbkwAJkAAJkEA4AhQ24TjxLhLwJUBhwweDBEiABHwJIJJGjz/53YDjTzAvQZWhhrVRYfORjzw9rDQ3bgpTnck/38xo6ezEFGu71q59Qn784//hdTJ37uvl9a9f7Mmgl17qlxdffEJe8Yob5ODBXfLEE7fJxRff7CtscO8DDywsTWT8+Jny5jd/3Vfm6E1YE74ymcqJlxHBg+NbyIsTR24cCpvanhm2JgESIAESIIGwBChswpLifSTgQ4DCho8FCZAACQwjUClPzVHj+FNodCpsrruuX+zy3OgkTJlvu5R2GNFTaYKIhHnmmX+Vvr7r5IUX/ksmTJgtJ598iVeS+/e/v99rfuaZV4YSNrt3r/fuDXMdPXpEDh8+MCSrxgQ2wX2ISBocLHqxONaMfihswuwS7yEBEiABEiCB2glQ2NTOkD20CYFsNnut4zj/Ema5g4ODb1m2bNlPwtzLe0iABEigRQig6hNCVjp81oMjTTj+hKiassef/FiYwsYvWiZMTho/0VPrsahf//p2Wbbs216ki14zZ54nr3jFjbJs2V3S23uNPPzwItm7d5NceukiT8jg+NQzz9xVuv/UU98kp556hRw4sD20sEHjgYEDXpny4pGw4blvMB8IqqNHgdwpRdVA3oSRW5WeRwqbSoT4PgmQAAmQAAnEQ4DCJh6O7KUNCJxzzjnju7u7d7iu2+mXB8DMD+C67vRCobC1DbBwiSRAAiQAAgjzQGJhv0tFDZILV3WZwgYdIHJkYGB4QalKZb798tiETVocNGnM4amn/peceurlnqDp6/uwPP74Fzz5Uu5IE45IPfjgjbJlywp529uWeN2bR6LM8SB0Lr30s55oMS8kPMb4iObp7Bzj5afBv0MQUxA1rjsoWB/a4diUii78CckT5ihV0LopbKp6jNmIBEiABEiABCIToLCJjIwN2plANpv9vuM47/ZjYAib5fl8/vx25sS1kwAJtB0BhHiMtcp14/gTEgqHylNTjpgtbHBvMcIELkivymW+OCK9rAAAIABJREFU7WNRaAnZUW1el4MHd8vDD98qa9b8lzcJSBNE2LzhDV+UQuFOOeOMK+UPf7h/RHLhLVt+J08//f/KhRf+hfc+khV3do4tRdjgONXEiT1ywgl9ZR8kLSuuwgbfu+5R7+gTBJYdeYOIHEieWqNsKGza7uebCyYBEiABEmgQAQqbBoHnsM1JoLe39x2ZTOa+crN3XfeLhULhr5tzhZw1CZAACVRNwC/KBmEwqFld0+UnbDTCBJEkelWKmPFrE+Y4ld/k0RcqROXz35LTTrtCnnnmblmw4GNSKHxLzjrrqtJRKLMtjkUhGuf55x+SrVt/VxI5SDps5rAJK2zsqCGsBaImSEAVj0od8MqcF6Ns/E6vVd4qCpvKjHgHCZAACZAACcRBgMImDorso20I9PX1dQ4ODm52HGdy0KJd131NoVB4tG2gcKEkQAIkUCSAT/+IsjHLFiG6ZvjZpSpo+QkbdKMRJmaXlcp8+7VxnA7p6hoTWmBAeCBaZ2BgrxQK3/aEzW9/+11P2PT3f9ObzuzZCzw5Y5fvhowZM+Z4efHFx0rCxkxQjLZhhM3wPDUiHR1d0tk5umLp7mNRNt3e/dVcFDbVUGMbEiABEiABEohOgMImOjO2aHMCuVzuGyKy0MxZYyDZn8/nJyLFQptj4vJJgATakwCSDtsWAMeikGy46itI2PjlpSnKl+AcLRplAnFhXohOgcBAlE65q1gi+6CXI+bIkYPy+ONfkj/+8ZeeKMEXSnJDyGzdunJEN8hHc+KJfyInnXSxPP30P5eEDRIR4zU9AlVJ2CBPDRIIYw44/lSMMioeCauUmyaOKBsKm6ofZTYkARIgARIggUgEKGwi4eLNJCCSzWZf7TjOsAgalTeu6/6wUCj45rghOxIgARJoAwKIrkGUjXnWBjYBUTZVi+wgYQOeGjFisq2Uo6V4NOqAl+/FviBsEK2C40KaYB5/x6M0NkSJlshGOyQPXrr063LhhTgK9S/S1/cRL8Lm4otvltGjJ3lCx46wQTvz9TFjJssTT9zmtenuPs47svT88z+VSZPmjMhhY5bphpjq7ESems5SqfOw+Xg0aTOOTlUTZUNh0wY/yVwiCZAACZBAKghQ2KRiGziJJiPgZLPZFx3H6bGjbFzX/XABv7XzIgESIIH2JYAQFUgb80KEDSJtolz4HQXROm4ulzuAhtdd1z+ivV/ETJi8NH75bKJMDveiytNLLz0tr3zlJ7ymEDgqX8IKm82bl3ttUfK7eFzrkLzwws9l8uSTS8IGkUSQPJBTfnlqtAIU+kGUjV8lQ3NttUbZUNhEfVJ4PwmQAAmQAAlUR4DCpjpubNXmBLLZ7Bccx/lr/NKLy/i/sCzn3ebPBpdPAiQg+N0CCYjNs0X4yxJRNmEqRqE9SoTjCxE7bjabfRl/z/oJG/D2K/ONKBnkpSl3QYQUk/CGmZbZk+Ml9kXemrlzXyeTJ8/18s48+uhiMctwB0XYoFLTk09+xbv32Wfv9aJrOjvHD1Vw6pLVqx8aViVKhYwe2/ITMpqbp6tr3IjqUH4MaomyobDhTzkJkAAJkAAJ1IcAhU19OHOUFiOQzWbPdhxnpRVhw3LeLbbPXA4JkEDVBPzKfCNpDCJliqbb/4LkQR6cYeWLent7d0FSfPSj+cCGI0t2Vy7zjc7w9ziOOqFEuFlxKmggiCBUYqqUKyaovebdQXstx+0XIaN5csx7ykXOIGLo0KF9nkgKe8wJx8Igq6JWjKKwqfrngg1JgARIgARIIBIBCptIuHgzCRwjkM1mlzmOc76+4rruPxQKhc+QEQmQAAmQgEcAx5kgX8wrqMw3BA3u9c34G0bY+B1xQkLeMEeEVNxAXuDYEfoy5Q36Kea26ax43CjM3kMQIbJHK1pBzmBcU5xobp5KVa+Mf4OGooUGQyUfRjudR9jcNzoWhU2YXeY9JEACJEACJFA7AQqb2hmyhzYlkMvlbhaRLxm/LF9aKBT+b5vi4LJJgARIwCbgV+YbWX4hbZCIGJfmqcHxJ78LZ5UO5XI5r6RT0JEobehXsjuqjKjHNmoOGfwJGYSjU3aiZPMYVKWjXcfWf9DLgdPdPT5UiXIVNpWSNNtMKGzq8ZRwDBIgARIgARIo/qLEiwRIoAoC55133vRRo0ZtRlPXdd1CoYD/M1x1FZQqpsAmJEACJJB2AuXKfEPS4H3kqbEv/F2KRMWeqClXJcpsqJLDzElTqcx3owCaeXeC8u0UI2/0yJIfpuGzP5bHZmzF8uRm/p6weW90NAqbRj01HJcESIAESKDdCFDYtNuOc72xEtAPEfg/xvl8flysnbMzEiABEoifAP7dxyd//Bk10241s8E4qBiFnDZ6aXSNn4FAfpuBIVlTynUTVthgAP8y392h87pUs0i7jS1acMQK4gX5Zcw8NOVyyKAN+sH9msem0tx07ZUiZhBZgy+UNUc+nrA5byhsKu0A3ycBEiABEiCBeAlQ2MTLk721GYFsNnu/4zhvd133PwuFwpVttnwulwRIoHkIQJggokVzxNhHk5JciV+Zb7/xEE2D0t8qdEr3RBE21Zb5jhOAnTD42FEtx4t80aTFmncHr6k0KSZBRnnvAe9YE2RN2ATHlXLSQOhgLhA1cHZFWWOnGapMghE2lRnxDhIgARIgARKIgwCFTRwU2UfVBHK53CtE5O9F5FTXdWc7qFnKq14E8Bv7SyLynIj8TT6ff7JeA3McEiCBuhGAqMEncjPCRQfHkSMIkqQvvzLf5phenppyET9RhA069i/zDSkyJpakwZWAFYWNO6ysOI4gQcSgGhUurTYFiYLXi9E3GU/UoJAWZApew4W+cMwL+W7KVYoqdyTKrKJVa6UrCptKTwDfJwESIAESIIF4CFDYxMORvVRBIJvNXisi/8cp99tnFf2ySXQCyMEjIh8uFArfit6aLUiABFJIAPIbVZp8qy4NzRc/90gAXI+jUX5lvjENlPkuGowyV1Rhg65GlvmWUlWmSuPV8r5G+EC+mEeNIJEwJ1z4Zw/RNVoVChWjIG5wQaagnflPY9ijTgMD+4f1a65DI3cQzYPInVouCpta6LEtCZAACZAACYQnQGETnhXvjJFAX1/f1MHBweccx5k0ZcEOmfGGzTJ29kFxRpVSFsQ4GrvyI+AecWT/htGy+eczZMfSKfg/uLsGBgbmrVy5cgeJkQAJNDUBRNTgq9y/8fjLFlF2+KpHlA2A+pX5TkzYIKIFAqN4/Kd4RSnzHeYJgASx/5+DJj4uHn3q8qJjikecDg2TMRA2pjjB95A8dn+6DrxerkS5Hq/SY1RJ/r8QCpswTwfvIQESIAESIIHaCVDY1M6QPVRBoLe3982ZTObHo2cekPm3Pst6ZVUwjK2JK7Lic2fJwY1jZHBw8C3Lli37SWx9syMSIIF6Eih39AiCBiEc+ILBaIQdR9QPEhCb4R2hculUE2ED8HaZ71qPAulmqoQpVnBCjpljS1LBotE1GlWDXDGQOHppjhqzLSJp7GNP5RITmw+XrrVSwuE4HkgKmzgosg8SIAESIAESqEyAwqYyI96RAIFsNnuD4zi3T3vNFpnzZ+sTGIFdRiGw9ns9svWR6fg/wTcWCoU7orTlvSRAAqkgECRrfKsuNXDGSMoyxhq/Yi6daoWNRrtgPOSE6ejwS+UTjcbwxL3FI0yQNnrp8SWIF+SdKUbajC4lDobkQbRN8b1jbTXvjpkI2D4KhfXgNdcd9NajUTS6Tryux6yirSra3RQ20XjxbhIgARIgARKolgCFTbXk2K4mArlc7nMicssJb90oJ7x9Y019sXHtBF76z1ny0o9moaNb8/k89oYXCZBAcxHwO24UWHWpgUsLKvONXDrHzi5ZE6xW2KAbRLyErbJUjguOHBWTBh8uVXrS0tuQJCqDNHcOjjeZiYOLSYcPlsp7I7QU3xfbFiNvitE0xdw2CILCkS77iFOxEtRB6e4eV4rs0epQtjxKap8pbJIiy35JgARIgARIYDgBChs+EQ0hQGHTEOyBg1LYpGs/OBsSiEigqqiViGPEebtfmW/IJeSz8T2qVYuwqXXixSTCEC0osz1qWKSOJhguVoQaW4p4MY87mWW6IXU02saM/tG2mocGskfz49hlvfXIFfrCsatjuXoGh0mcWtddrj2FTZJ02TcJkAAJkAAJHCNAYcOnoSEEKGwagp3CJl3YORsSiIOAX16YikeM4hi4xj5whqhYs/rYhSibYqkk62qUsIF4QVQNLjNaxpyeHmWCPNEy3Pq+ttdoG/NI1rGIm8NeuXFtq7lo0CboeBMEkkbiaMUpfG+PX+MeBTansEmKLPslARIgARIggeEEKGz4RDSEAIVNQ7AHDsoIm3TtB2dDAhEI2NE1KNEN8dGIpMIRpu0lHsa5Hwinkt8Imnu9hc2xPDWD3nElvzLbiIA5JlmKR52KguXYkoqROYeHiZfhETcINnK9KBltqxEz6Acix68KFcqA21E9UeDXei+FTa0E2Z4ESIAESIAEwhGgsAnHiXfFTIDCJmagNXZHYVMjQDYngcYQ8Es0HKpMdmOmO2JUv7w7KDFeDGkxrnoJGzPqxU4WjOnYeWxUqOhRJpU7OnVbviDRMCJoIGMQsYP8NH5tNSeNmd8GfWrCYiQXhkQyq07Vc08pbOpJm2ORAAmQAAm0MwEKm3be/QauncKmgfB9hqawSdd+cDYkEJKA33GoveWS94bst163hS7znbSwMaNeiseXugR/QqggwuVYHptiwmFIFs0ho7AgYpDnxj7GpPIF9zlOh9jlvSF1EDGjR5zQr5kbR8uDH0t43DUke8zgpHptWXEcCpv68uZoJEACJEAC7UuAwqZ9976hK6ewaSj+EYNT2KRrPzgbEghJAMeKxlv3NpOwwdRDJUxOUtj45alBJAskCuSLRtVA3iBhMC5UbypGuBwrE65JhCF4zKNMKl/MY0+6Z2aOG0TNmBWhNDeOnm6zEx6HfEYSuY3CJhGs7JQESIAESIAERhCgsOFD0RACFDYNwR44KIVNuvaDsyGBkAT8hE0zHYnCMv2OdSH/DvLwIB+PdyUhbPR4EY4poRy2macGeWcgZbwJWlExeA+ixawKpfPUdn5HmdAfjkEhwkbHRju8BvHj1xayCK9D5DTq+JPfs0hhE/InlLeRAAmQAAmQQI0EKGxqBMjm1RGgsKmOW1KtKGySIst+SSBRAn5HisqWx050NtV3jjAVJCA2fycZto4khA0SAuOYkS1XsAw93mRXhtJoGZU4uBeRMzgKhQgZROAcOXLQNyHwwACOPcFBYZlIWNw9rKpTUIRO9ViTa0lhkxxb9kwCJEACJEACJgEKGz4PDSFAYdMQ7IGDUtikaz84m7YlYP6bHLbKk1957GYo621vctky30kIG00IbOeiwcQQDYP3EdWC95HPBkeditWjDnqyBYIG3+NPXMWEw2O879G+GLXTXVqnJhdGX7jPrCaFm1TY4L/9onfS9FNBYZOm3eBcSIAESIAEWpkAhU0r726K11atsNn6+PGy7bGpctr1q2XU+COy7ocnyHHzd8vEM/bK4EBG/nj3STLhzD0y7ZLtpdXv/sN4eXnFRDnxXS9FInJk7yjZ+NB0mf22TZLpGhR8/+I9PXLCWzfJmjvnyOyrNnjj4jqwcbSsun2eHN5x7Jfz0z+1yntv1T+eXhq3c8ohOf3G1TJmFgqhVHfZ80Iv4ILLXHeU3ilsotDivSQQKwHUdcYXokxsYYNwjAHzaJDPyGg3zud1RKhA3BytMFu/3wPCyqI4QfiV+cba8Zelm4SwweSLCYEPDkXZFPPRHKvs1OHJl2JUzMgLOWWKXx2l5MR6V7Gct1+Z70NGVM+x/DdaRhyRN42s/hR2QylswpLifSRAAiRAAiRQGwEKm9r4sXWVBKoVNoe2d8mWR6bK4Z1dcvLVL8qGB2Z6wmb83P2erME16y2bhgmRqMIGEmjzQzNHrOyUhS/IrmWT5KT3rvcEDsab+qptnrSBsNnyy2ly4ns2eO+pSEInh7Z2eyIFQmnd92fL9NdtjSRs0BcuFU62sIGsWXv3nBHznXH5ptCSisKmygeZzUigOgL4txfJdvEVptRPpWNOftEp1c3sWCuIHpgKjF1J+tQ6lraH8UZWX4wL2ZRYDhtIGUS4+B1D8stRo5Wc7ITCQQsPit7x6+fYa4i8Ge1F8qT9orBJ+w5xfiRAAiRAAq1CIP2/FbQKaa5jGIFqhY2N0YywCULsJ2wgPZ772jzZt+bY/5i2BYctRiBcIIhmXb7Fi+4xr6QibMzIGawD0UU9V70kmx+e6kX+YD6jZxwaFlmjazMjgCo9fhQ2lQjxfRKIjQAkDcREGFFjDoq/dBBt4idP0BekzbGQjdim63VUbuw4R8I6sAZE1tj/ZnhRP9dd11/TeJAjyDGjJbQRHaPVmLq6cExplFcdqnhsqVgRChciZtDGPMoE2QO5U3x9pGjxi95BX37JhdFXM4ga5UFhU9NjyMYkQAIkQAIkEJoAhU1oVLwxTgJRhY2fYCk3nykLdkjPVRtk9TdOGSZl0AZiBtLFPO6kUgfROuYRpjBrxtGnzolHykbYTDxrj3ROOBIpwsaO2sFcIHD2/H6CdE4ekMGDHTL5gp1eBM/Bzd1eNA3ef+lHMyMfu6KwCbPTvIcEaiIAEQFRU4tUgThBFahi0pThV9LSBsIEYyPipu5XNpvd7jjOlGuu+S8ZPXqS7/jlpAfeQ4JhSJSijEFlJpxEK15ICIzjT2Y5bhUomoAYeWVU8EC64AtHmDR3jS1cKpX5xvtpz1XjB/rgwV1y112vR3TSjkKhUDyPy4sESIAESIAESCARAhQ2iWBlp5UIRBU2dn8qM/D6oW1d3pGkoNwwZoQN/huCY3Lvy77CxsxzY0fvRD3SpNExxy/YWTquhWNcODIV5sL4dvQM2vlF/uB41o6lU2TO1WurymNDYRNmR3gPCVRFACIFogaRNX4X/kLAJ3/IGM0dA6kTdFyqXELhqEetoi6oYdImm80+5TjOgssu+4LMm/fGEfMuSpXDngCxk/ma+WHsykzakSYEthMFq6xBBI1KH4gdVIkaNarLkzWmqEE/mqAYfRejaQ4IondMQYT70B8SGjfbtXr1z+QXv/gM5r+0UChc1Gzz53xJgARIgARIoJkIUNg002610FyrFTaarwURNJrDBlIDESaad0bfUzESRdgg8sY+KqXYEZkzasygTMruku7jB0o5bDR/DoRJ2AtROZqw2PcTXJl8NypsJpy+V57/2qkSRyJjCpuwO8f7SCA0Afz7qqLG799aHG2CfAmKWNH2xzKZF4eGNNlfIREx7kMSX/3yGx+iKCi5sLbzO7YFsYTx65qYOJfL3SQi/zRmzPHyilfcKD09F8nYsVNLm3HsmNG4kgTBUSdE1SBpcFHElM8PY0fS4Pti2e+ibMGxKA9sR6cXaWPKHo24gYTp7h7nvW9G9eD7ZoymMZ/2/fu3yfr1T8mTT94uBw54if1vyufzXw39E8EbSYAESIAESIAEIhOgsImMjA3iIBBV2GiOGFRoMish+eWwwWt7V00oVZKKImwQYQMh8sK35ngJhLf9akqpChXWDWHUPQ2fsSSw8pQ5V4gkTZAcNrIGfWtFKiQ4tvPl6LGooGgdnWM5IWTvIYVNHE81+yCBEgGctYFoOfap/hgciBL8JTIiT0sAPyRSsaVNpSTEcW0Fonwwvv27Ao5GhZ1/LHPp6+vrdF33tyJyhl+HkCPIT4NoF3zhez0ipa9VmojdhyYm9ssto/3jT/Myo3vQHpfOB3/a0T+V5pTW913X/V0mk+nt7+9vyBG5tHLhvEiABEiABEggbgIUNnETZX+hCFQrbMyy2eUGGjd3X0nY2Il7Kx2JCqq6hONGkDX7Vo+XPc+P84QOynPbCYftCB/7/TARMUHCBn3t/t0EGdjVKV2TDsu6fzuxLO9KkTzamMIm1GPLm0ggDAFIDiQA9rtKZarDdDR0D/6dHmvlvoEl2Fen6k2QT1iP+ftCQ6Jsenp6xkyfPn3x0aNH3+y67pyOjo5xKlNUtthcIUiCkvnaUgdttZ+gdn6iRoWQKYpsWdRsSYUDns/druuucxznwS1btixav349xB0vEiABEiABEiCBBAlQ2CQIl10HE4gqbPx6QuTM+h/O9iJQTrl27YhIFLRB3hmz/LbKmzA5bNDejuAJivSJu0qUX74crVI17eIdsvWJKV6VKLym0UCQR7gYYcOfPBJoKAH8uwrBcSyjbXE6OEZUbTQC+oK0MS/8wBfD/ZK/7Cifegojv9WpFIO00pJ9yh1RTRBjeB37gDAXiAUzFAb3Yk3ox66Apf1gXLMd+kV/+BN9YgzspyYls/scVpZcF5HL5bx55PN5/v6V/HPLEUiABEiABEig6QnwF4am38LmXECtwgaCZM2dc2TuB9d6ANZ9f7avtMF95nvVCBvNjYMIG1xr754jGrmiQqdSlSgc44qatNhOOhyUMNnul8KmOX8mOOuWIoBMshAs5r+xtRxj8ouygTCoV4QD1jPO2qFaBFStmw1pMn5o/Xo0y0+0qNjRuZpJmSFOgnII6f5Bimn/GBP9aYJocw1aqh2vlT3uRmFT69azPQmQAAmQAAm0FwEKm/ba79Sstlpho5EsWIhZFUrLfuP1065f7UXbaHTNhDP3lPLeqGAZO/vgiOTCWu7bTjqsckZzx8y4bItse+J4mX3lRq/SFBIVH94zSlbdPk/MI1toh8ssEx7mOJRuEgTNtsemesmVzfw3dpUoe1P98vpU2ngeiapEiO+TwAgCSMiLD/ZBuVwQjWFXhqpFcthRLrUIoKjbibVCQJk5eWpZS9Tx7ft1Phodo++DEd7TyBiVOPgT9yJSCe9jzyBWyiVORl/YX6wzqLSfWao91HE3Cptat57tSYAESIAESKC9CFDYtNd+p2a1UYUN5AXERyXhoeJm35px0vOn62T/H8cJEve+eE+PV/Zac9sABGQLjhVBhpiJiU1IKj+Q9wYJhLXst84HkgevaZlx5LVBf9oOfaFtNRE2aOsnX/yEjcoprLESI7+HgMImNT8anEj6CZjVnyAB7OM2ugLIDUgOs9KS3h8kAMqtHomHIRH0arSwMY8j1XvXzGgaCJUgYYPXzWgnFTVh+Ov+gXPxvOmxC3uKvYAAwvuQP6j6VfGisKmIiDeQAAmQAAmQAAkYBChs+Dg0hEBUYdOQSaZgUBVQU1+1bVh1rLinRmETN1H216IE8AFdoziwRHzwhzAI+rBuSxa0qTb3jJ+wMWVFksjtI1FYb7nIk1rmAhkSRqj4RcDYETY6D809U27OKmE0/w3aall23WNT1mm1r0h5iShsank02JYESIAESIAE2o8AhU377XkqVkxhk4ptKE2CwiZd+8HZpJZA1FwufrlnKkmeoMXbR6IQ1WFHfiQBzi+JchJjm8eXIEjKHVdSmQIm5lw0MbMd9VQuWsaUMBBRZrJg3T/MBe/pETdIHXxVmuOI/aCwSeIRZZ8kQAIkQAIk0LoEKGxad29TvTIKm3RtD4VNuvaDs0ktAb9cLpXkhV+Fp6gJgxuZQ8YWRdUKpzCbqqzCRCFpxJHOB39irvi9xu+YGu7HF2SQVpaCgMEX2gQlCzb3L1SemnILpbAJ8xjwHhIgARIgARIgASVAYcNnoSEEKGyqx675cmZdsVlWf2OuzL5qg0w8Y2/1HYoIhU1N+Ni4vQjYyYTx4b9cRIhfhAoiM0xxUImgLU0qjVmpvzDvm2WqzfvDyJQw/fvdY5bmNo+aQZpgzWZEiylSwuTzMaNlcD9EjSaNxpqComWiRv6UXTuFTbWPBtuRAAmQAAmQQHsSoLBpz31v+KqbXdgEJSmuBNZOGIzvkRD5hLdu8sqUh5EvKmxmvmmzdHQPyob7Z8n0122VMbOqPx1BYVNp5/g+CZQIaKlofSFMxEktZb4xnkaO6JhJShOMgfliTLMqFF6vOcJkaAFarQlRLfalrCBV8IWoGLyGqBmzIpcKG4gcreZUKZ+MLXnAMUy+HPQPFlUdgzIXSGHDv0lIgARIgARIgASiEKCwiUKL98ZGIGlho1WTkKy31ugTv0VHFTao9rT5oZkjujpl4Quya9kkr5IVqkv98e6TROdsVryqBL6aylBmnxQ2lQjzfRIoEcAH93FDx2j0RVsm+OGyo2RwT6V2eozH/Lc6yegaiAkIIogN+woTxRL2MUGUkkoWv4TNJius18wro2OofEEkjuaWqZT7RqNlcMQsqaTJZRlQ2IR9RHgfCZAACZAACZAACFDY8DloCIFWFDZ+gkXLfitkO8IGYmnDAzNl1uVbZNR4TatQvFujbyBzzPf8ynrXuokUNrUSZPs2IuCXSLhSHhvg8ctDE1RtySwbbaINE80TZSuwFggoyBONevFrj/XhK3KSXaMzjKXtNQkw1m/mm8E9mlcGDMrJKRU2OA+qe6LzLMdAI3jC3BuFZah7KWxCYeJNJEACJEACJEACQwQobPgoNIRAswqboKgXiBlIl40PTZfZb9vkRctoFM5x83fLqn88PRLn0z+1SsbOPugdl6okbBC9M3rGoZrKflPYRNoe3kwC1eaU8Svzbcoes2KR/e8zZA2O8FQ69lNud/wSIJe7X6sm1TKmyhkcJzKPQCkLRLqgf8wNr0HU6NEnTRLsN74pbDDPMKW7da3YP7QvV5I9kaecwiYRrOyUBEiABEiABFqWAIVNy25tuhcWp7BBTpdVt8+Twzu6ZdzcfXLa9atHHC8Cja2PHy9r757jgdH7ELmix6d2LJ0i5tGioNfR3jwShf8+tLVbJve+7CtsTnzXS6XNgFyBwNFjWhhj3fdn++ag8ZNDUxbskJ6rXpL1957giRxcL3xrjpz4ng3MYZPuR56zSxcBM9qjmpnZ4gORI/uGSj+X6y+ozDeiTFTW2Hlj0B+EBGTN8DC86DP3S4BYGcvtAAAgAElEQVTs1wvWo4Kllqga9K1r1jXoeBAzkCy6F4h8gZjRvDLaDveDj1+uGQgdtMF75Up322vUaCeN8IlOssoWFDZVgmMzEiABEiABEmhTAhQ2bbrxjV52XMIGsgTRK4hIgQSB5Ni7Zqz332Y+GEidAxtGy5QLdpUETefkAYFMgUTBhf+GQNm1fKJ3X9DrUYUNIm+e+9o82bcGaS+GX4jMGTVmUCZld0n38QMjctiYETZY67bHpnqiRhMNH949Sl5eMdGbey0XI2xqoce2TUQAH+rxIR9/1hJd4Xe8qVI+GsUUNcolrkS/Or5fAmR9D+IDAgRjhknGG3brxw7daB9/grABjyAhFaXMN4bwK90dNMco94ZdZ+m+np6eMdOmTbtZRE4aOnLmvec4zjX403Xdu/Tmo0ePfnn58uUrIg/CBiRAAiRAAiRAAi1PgMKm5bc4nQuMS9gEHQeqlHQY0TYHN3eXhM3hnV1y8tUvepE5eqFvv9fxftQIG4gkjYTZ9qspw6JsMJfuacWTAqZ8sXPVqLDBPDf/YrpMPHu3bHvi+JorRGFcCpt0/pxwVrER8CtRXWs+GEgIMzlvmDw23mf2ocgSv8S+5oIhTtCnX1LeWsGYR7oQQYPIHa3KVGvffu214pQmBUaeGggTja7RMue2JAoq863JkU0BhHFVpKEf+z17Xto31m5Wn4pt/blc7kci8hbXdSFqAvt1XfeRQqHw2tgGZkckQAIkQAIkQAItQ4DCpmW2srkWEoewKSdl7PfMY1NKCseLID9wIRoHR6KCjkqZr+N+SBZc0y7Z7smbSkeizONY5k7NuXqtJ2v2rR4ve54fN+xok5bvxnEnMycOomm0PzupcbVPAYVNteTYrkkI4AP+yBC3YhRJtZE2dj6aKNWb9PgOBIN9xZE3ptK24N9+jA1REmckTdC4YKU5YzAeImtw4fiTmeMG39uXvq9iRfsyj0+ZbczqUbXk3qnEsOL72Wz2vzuO872KN4r8ZT6fvy3EfbyFBEiABEiABEigzQhQ2LTZhqdluXEKmwln7hmRcNcUNuPn7veEjHkfhMee308IHVVjRtuAoXncSuVNmBw2aGvnsVGZdMJbNw1bh1063IwKwnsb7p3t5etBHh5TIFWzxxQ21VBjmyYi4HeESadfrbSxJVDYPDY6rl+Z7zhLZ9dre/B7BCQJ5h6U70aPHwXl+QELRN1Anvnl6TFZVRJaGjmDPyuV+U6U0cknnzx6ypQpO13XHe0XYaORN0eOHDmXR6IS3Qp2TgIkQAIkQAJNS4DCpmm3rrknHoewAQGIizV3zpHTb1ztJd31y2FjCxtN5ovIlpPeu062PzVFpr1qeymKpZgnxv91ROQc2t7lJQo+5dq1w2RJFGGz+aGZ3gYiwgYXkiFrHh4VOojawRw1QbEe/8I4mhPHbqP3Rn06KGyiEuP9TUjAPsJkLkGP0ERJ6ltLHhuMHaXMd1pxa2UnRMGUy+FTKRdNUJlvrNuuHhWmvHhDS3ebm5XNZu92HOfP7Q1UWeO67oZCodCT1g3mvEiABEiABEiABBpLgMKmsfzbdvS4hI1KGy2bHVQlyq4kNen8l+XAS6O9CBskKdb2ZpUoTWjsfWKYcsiTQpoY2IzWUcGCMtx2cmEt922/rqJFI31mXLbFy0cz+8qNXqUpHLV66YFZXoJhfA/Bgzmc+tE1Xv4ajA+ZYychhrSq5qKwqYYa2zQZAb+S2rVKGxztQWSIXsiFAnER9kJbPR6kbcLmwgk7RhL3QTYh6gViBGvG7xKayNnviJUKG0THIOolqOIT+tQy3+gbe6ZjgEuU41sNK91tAj///PPf2NHR8VCZPDbfzOfzC5PYJPZJAiRAAiRAAiTQ/AQobJp/D5tyBXEKm3oCMCs1oYKTmfcG84Bcmf22TSNyzphzNCNoNPEx3ldBBMkz9U92yK7CJJn15k2lpnrMy5RF2kbz8ZhJk6NwobCJQov3NikB+wgT5AHEg/nvYNRIG1u4RMljA4x+Zb41AW+UaJ96bYkmb9YjUCpRNFoIc/azxmZlrCAhpSzwJ/YBbdAf7sefZhQOvsdXOYGD+7E/mE+tpclr4duRzWZfchxnutmJIXCuyufz99UyANuSAAmQAAmQAAm0LgEKm9bd21SvrFmFTaqh1jA5Cpsa4LFpsxCwjyAhMgQf5BHFYV5RpA2kAJIZm/+W7o1Y2cmvzHYac9loZSfwUYmi3PAevjRvjF3ZSoUN2uo9tpAyK3mhPfbHrN5kRtzouGaFK/TXSDET+HOQy+W+IiKf8ImyOeo4zsT+/n5EFfEiARIgARIgARIggREEKGz4UDSEAIVNQ7AHDkphk6794GwSI2DmsYEUwPEllQ3VSBu/CJlyuVyCFmYfrcJ9ejQoMRghO1ZRAuEFUeMnUfAeXofAwmWX1FZho7ztstt+eWrQT5CAwThogy+ttJUWXiOwZrPZCxzHedpH2Dycz+dfF3IfeBsJkAAJkAAJkEAbEqCwacNNT8OSKWzSsAvH5kBhk6794GwSI2DnsYFAQDQLhAk+/FcjbexqT1Hz2GBMvzLfUY9XJQHNrLgEVnoEyTwahfVqImCNFlKuOifljugjrBW8VbAoP7NMd6UjVuZaca8e0YqS4yYJXoF95nK51SJyinUDy3nXdRc4GAmQAAmQAAk0HwEKm+bbs5aYMYVNuraRwiZd+8HZ+BLAh3JExdTyodzOY6P5VMzjOFGljZmfBW2rFS1+SZGRfwVzrNcFDnZUiylhsDaNSMJeYH7mfuA9CBhNLqx9YW3gpGW2EemEC99rhIx5jApSZ3yFylP1YhLLONls9rOO4yxGZyznHQtSdkICJEACJEACbUGAwqYttjl9i0y7sEH1JlRgOu361V7pbk0UjLLZfsl/00c42owobKLx4t11JWDmLoEwMCM9ok7EzmNjypVqpY1fee59Q+Imyvz8+oEMgdSwc8JE6TfMvRpJg3vt40x4TSsueb5hSCIhIkYv3SP0o7lpNOoG8kWTCKMN2kPeIMoG9/gJKZVg1XAMs96633Peeef1jBo1ap0OzHLedd8CDkgCJEACJEACTUmAwqYpt635J512YXNoe5dseWSqHN7Z5ZX+3vDATDlu/m4ZP3e//PHuk7wNmPWWTaJltFE2fM2dc2TuB9eWXmumXaKwaabdapu5BgmUWqWNmcfGFiLVShuzT2xQtZExdrQO+qpXmW8d2y8XjB7ZUvb6ENrlvVXS4H28h8gaRN349QlhA9HjJ6TMiJxaIqpS9cOSzWZ/5TjOK4cmxXLeqdodToYESIAESIAE0kmAwiad+9Lys0q7sLE3wIywCdocSJstv5wmJ75ng1fWu5kuCptm2q22mWuQPAGAWqSNXx4bM5Eu+rfz0uC1ctWj7D6ryWODMTTSxcynU68y32a+GkgU5Y+oGHyZ8gUs9Hst5W3mt9H3EBlkV5TSB1glkOauMR9s88hUyzzwvb29f5HJZP7X0IJYzrtldpYLIQESIAESIIHkCFDYJMeWPZchkFZhc2TvKHnua/Nk3xpU6q18TVmww4vAUUETRuxU7rX+d1DY1J85RwxNwE+e1CJtgvLY2BOKIm3sPjWHSzXmtpFlvnVsSCL8fqB5avCnVsTSnDN+5b212hNYQtSYx6b8NhxiB18QRHqUSkWOJjMO/aCk/cZzzz13cmdn5w7PzDnOOJbzTvuOcX4kQAIkQAIk0HgCFDaN34O2nEFahY29GRo143362NYl+P70G1cHHnva/Yfx8vKKiXLiu15qqn2lsGmq7WrHycYpbcrlsQkrbXDkyZQRfuW9a8m/Yq/XrKAUx/5rXhk7wTCOL0GggJFfeXI9NmUf09IcNujXrBqlcwUffNkCS/fCLPOtiYvBb0TunnPOOWdmV1fXJa7rnpzJZJCYuNmuW4YmfGuzTVxEXnZdd93AwMDjK1eu3NSE8+eUSYAESIAESKDpCFDYNN2WtcaE0y5skHR47d1zRCNokMNm9IxDcnBzt2x+aKa3CXZ0DV5r1mNRFDat8XPV4qvwq6KEJVdzPMrMOQNp4SsHhngGRdrY0sa+r9o8NhhWo0z8olhq2eagvDJ4HTllMC544k+/o0r4nQH7gPc06gbrhmTRvdBKUDpPlUB2/hvzfbPMN/rH+COSH2ez2Wsdx/mqiEyoBQLb1kxgj+u6nygUCt+quSd2QAIJEnDdf/tcgt2zaxIggRYgsHbtzKUnn3zpT9K8FAqbNO9OC88trcIGwmXV7fPkhLdukmmXbC/tgN9RJ7y2d9WEUiUp79PK3lHy4j09ctJ713vVpZrlorBplp1q+3nGJW3C5LExYfuNC5liShuICYgHvSA1IC+qvSAt4qoOpaIFczSPO6lcwft4D3PW/DTmUSVE1uAeM9ePihiVSlgnRJhWftKoG8ggvGbnCVIumjsH92E+vsfIstkskvU+4TiOM3HaiTL7zAtl7HFTq2XbsHaDR4/IwMF9MnrccQ2bQ7UD7395m2z4/dOye+s6lCbHc7SgUCj8ptr+2I4Ekibguv9uRxEmPST7JwESaDICy5bNHZw8+dBbTz75kgfTOnUKm7TuTIvPK+3C5vAOfFapfI2bu4/CpjIm3kECcRKIQ9qEzWNjzruStNGoGM3xUksemzh5aV4ZFS4QJ5oUOCiySI94aQlvRNGooDJLeNsiRst/ox04+B2P8lub9gkB5iupcrncj0TkLadd9GZ5zQc/J5kMcPOqN4HBwaPyyJ2fk+ee+gmkzU8KhcJb6j0HjkcCYQlQ2IQlxftIoH0J5PPzpKNjcHDSpPRKGwqb9n0+G7rytAobPyjIS7P+h7O9iJlTrl1bNnKGR6Ia+lhx8PYhoHlO7H/Dwh6PipLHJqy0wdiIsDErPNWSx6bW3YTR0PLYECeQIfp/m1VYlTu2pflqIGq0UhX6xBpVxNh5aZQr5o4jTX7yBfdg/KCIG99153K550Vk3p/e+n2ZPOuUWtmwfQ0Edm5cI/9+y7vRw+p8Pn9qDV2xKQkkSoDCJlG87JwEWoIAhA2uNEsbCpuWeNSabxHNImwgYNbcOUfmfnCtB3nd92eXlTZMOtx8zyJn3LQEapU2UfLYhJU2kBGIMtGrljw21W6MWQ4dEsmvrLYZQTMiV8zQwGaJcRxV0iTLWCMkjh6JwnummNF9MSs/oUvzWJaKtdDHFXK5nJdb5yP/eymja6p9MmJqh2Nd3/zYRejtaD6fh3zjRQKpJEBhk8pt4aRIIFUEVNikWdpQ2KTqkWmfyaRd2GguG+yIWRVKy37j9dOuXz0i2oZlvdvnGeZKU0EAUSCI+Kgm0iZqHpsw0gZRIxAWeiyq1jw2YSCrQMG9KlH0KFO5stoQS/iwHZQ3RhMR4x4/8aTRNBgDUkgvPxlkHsvSct+hZQ06zuVy3v3XLekPw4T3JEzgGwv7vBHy+Tx/j0yYNbuvngCFTfXs2JIE2oWAKWzSKm34D227PI0pW2dahQ0iZFb94+nSOeVQ2fLdKm72rRknp39qlUw8Y2/TVojCo8Gkwyn7AeF0ohCoVtpUk8emkrTRykn1yGPjl2cGa0L0ix314sdTkyQHHduCCNP+NCGwfcRJpQ+EjpllXY9TQWChrVl1KpKo0YlT2ET5kUj+Xgqb5BlzhNoJUNjUzpA9kECrE7CFTRqlDYVNqz+FKV1fWoVNtbjMo1NjZuGzS3NdFDbNtV+c7QgCEASQBypK9IZyOW2qzWNjDh50LMu8J8k8NpAqWAeONUGK6LEjiJWgo046NxVWuM/OJ6PCBe+BIY6PaZ/2+rUyFkQM7tEqVHpURvPd+FZ/CvssU9iEJVWf+yhs6sOZo9RGgMKmNn5sTQLtQMBP2KRN2lDYtMOTmMI1tpqwSSHiSFOisImEizenkwAEgQoMc4blpI2ZxwZt9lZRSruStEkyj40mFTaPNWnEkSYaDtotrWqlQsW8T8UPji9BwATlpVHpg/HRxsxnAu44LlVVRI09aQqbdP3QUdikaz84G38CFDZ8MkiABCoRCBI2aZI2FDaVdpHvJ0KAwiYRrFV3SmFTNTo2TBeBqNKmljw25srLSRtIj6TC7jQSxhZNuq5yskgjjCBWKs0vKEkxpM/4oSNY5fLl1PyUUNjUjDDWDihsYsXJzhIiQGGTEFh2SwItRKCcsEmLtKGwaaEHrpmWQmGTrt2isEnXfnA2NRHQyJEwx6PsPDaINsExoGouW9oEVWiqpu+gNmaEiy1McEQM4iZIGEURNhgfYyEiCXJHj1BR2MS5m03UF4VNE21WG0+VwqaNN59LJ4GQBCoJmzRIGwqbkJvJ2+IlQGETL89ae6OwqZUg26eMAEQCjkfhT/Oyj0fFkcfG7F9z6UCS2HlhqkWEf6eDjhWVEyZmeW89HmX2E1XYYP7KVI9gBUX4VLvWwHaMsIkdaU0dUtjUhI+N60SAwqZOoDkMCTQxgTDCptHSJpXCpqenZ8z06dMXu677ZsdxThSRCU38HHDqZQic8NaNcsLbN5JRgwkYwqbBM+HwzUDAdd31juM8d/To0UXPPPPM4ymdczlpgygRrXhk57FJMklwFFRaChvrCDrapNFE5ZIM6/Eo3GNWc9K2iMypdCRK523nvalUGjzKesveS2ETG8pYOqKwiQUjO0mYAIVNwoDZPQm0AIGwwqaR0iZ1wmZI1uRF5MwWeAa4hAoEKGzS8YhQ2KRjH5pxFoODgx9ctmzZt1M6dwgGlQrmFDVvCyRGXHls4kJgzxlRMTpfu9KSGSGEqJegPDJmFS3cgwggXMg/EyUpMsZDlA3mVKkKVVw8vH4obGLFWXNnFDY1I2QHdSBAYVMHyByCBJqcQBRh0yhpkzph09vb+/lMJvM3hydOlA3vepfsPvtsOXLccU3+KHD6NoFZ//mfMutHPxIKm3Q8GypsNr71rbLx7W9Px6Q4i9QSGLt2rUz/+c9lytKl4rruroGBgXkrV67ckdIJq2QwKxhhqno8Cu+PM+ZeSx6bWhH4iRWNBPLr2xQ2WA+kTdDxKfOIlNlXOdFj3occPZBb6MfMY1PrmkO1p7AJhaluN1HY1A01B6qBAIVNDfDYlATahEBUYdMIaZM6YZPNZpc6jnPhCx/5iOy68MI2eVTab5nTfvlLOfGee2Taa7bInD9b334AUrbitd/rka2PTJd1732vbH3d61I2O04nrQTOuuUWGbNxI6TNmwuFwoNpnaeIlJM2iDaBiFChU0l8JLVMPW6E/iFEwlRdUmGDf8vxhbVo9EzQPDGOlgPXexC5AzHkJ4cggCCxEKmEtugfjOp6UdjUFXfFwShsKiLiDSkgQGGTgk3gFEgg5QSqETb1ljapEza5XO5lEZm47I47ZHA0fj/k1YoEJq5YIafecYeMnnlA5t/6bPGjBq/GEHBFVnzuLDm4cYw8f8MNsnv+/MbMg6M2HYGe731Ppj/yCITNjYVC4Y6ULwByA/+oIIrFvDQ5MCJI9GpEHhscNcIcwka8eL8vGMeasD58rwmBy22HlulGGwgZOzmz2TbKkanEHgEKm8TQVtUxhU1V2NiozgQobOoMnMORQBMS2LhxStWzdpzBHTNn7sk5zrvWVt1JiIap+5isv5TllywJMX3e0qwEnMOHZf5f/7V07tkjUxbskBlv2CxjZx8UZ1RQNH+zrjS983aPOLJ/w2jZ/PMZsmPpFDk8fpys+OKXxO20P8+mdw2cWWMJzHrgAcGXiNyaz+c/19jZhBod/+ZBjNgPOSJMzDLg9ZYUGimDRYQRLrpYs0oU1oAEymGSCKMdjoFp9Sj0hzmo9DFhIuqm7hE19m5S2IR6vut2E4VN3VBzoBoIUNjUAI9NSYAEQhFwnD9N3KckPkColRo3UdhEJda890/59a9lzp13MrgmBVsITbb2Qx+SHRddlILZcArNQqAJhQ3QBkkbE3u989jocSj8KEYVNhBQWv0JR53whT7KSRZEGul9YY5eNfyRpLBp+BYMmwCFTbr2g7PxJ0BhwyeDBEggaQIUNkkTZv8NJzDuhRfkhPvuk+4tW6Rz1y5xXEbY1GtTXMeRw5MmyaEZM+Sld7xD9p1ySr2G5jgtQqBJhU0YaYOokijipNYd1SNKyKMTNbpH89dolFClKk4azaNyqCn+0qWwqfURi7c9hU28PNlbMgQobJLhyl5JgASOEaCw4dNAAiknoNWuWF0p5RvF6SVCoImFjUobRJqYuWuUkx4ViktmQJJgHAgZRNMg+gWRLZo/B+PifcgWXHjfjpAxxYwmCPabH4574WhUUC4cLWMeVQwl8gyF7ZTCJiyp+txHYVMfzhylNgIUNrXxY2sSIIHKBChsKjPiHSTQUAIUNg3Fz8EbTKDJhY2ftIEkibMKEiQLBAlkjN8RZFsM6VGlMDuLiJoDAWIH4gfj2WW+q82VE2Y+id5DYZMo3sidU9hERsYGDSBAYdMA6BySBNqMAIVNm204l9t8BChsmm/POOP4CLSAsFEYECWIWokznwskDWQNJIn2rVEziIJRiWNHuiACB++bSZAxTwgareiEe/A+XoOUsctxI5IHUTZ2mW8VQk0VXYPFU9jE93MbR08UNnFQZB9JE6CwSZow+ycBEqCw4TNAAiknQGGT8g3i9BIl0ELCJk5OkCkQI5AmECqIosGXfXxJjyZVky/HTJwclCBZS5ir0IEEQuSNjhfXca842QX2RWFTF8yhB6GwCY2KNzaQAIVNA+FzaBJoEwIUNm2y0Vxm8xKgsGnevePMaydAYePLUCs+IQImKI8MGpqJhnG0ycxnE2ZztDS3RtngT/PSeSCqB/1rHp24I4nCzLXmeyhsakYYawcUNrHiZGcJEaCwSQgsuyUBEigRoLDhw0ACKSdAYZPyDeL0EiVAYePhRSQNoldwzEijVjR6BkesIEuCollqSQAcJh9N2DLfiT4ncXROYRMHxfj6oLCJjyV7So4AhU1ybNkzCZBAkQCFDZ8EEkg5AQqblG8Qp5coAQobr+ITcsVoiWyNcgkbPaPCppoIG60GFXQkyvs9YugYFHLZ2HluEn024u6cwiZuorX1R2FTGz+2rg8BCpv6cOYoJNDOBChs2nn3ufamIEBh0xTbxEkmRIDCpiREIE/s408qVIJy1KhMQYTOvohCBW20BLhf0uGEdrxx3VLYNI6938gUNunaD87GnwCFDZ8MEiCBpAlQ2CRNmP2TQI0EKGxqBMjmTU2AwsbbvqBjTWZiYES44MiUeWm7chEy9vNhlgnHe4jMibOyVWqfRwqbdG0NhU269oOzSVbY3HHHw3LXXU+VBpk//wS5/fZ3y6RJY+XgwcPyt3/7oPz0p7+TJUv+TPr6Tirdp+8tWDBHrrzyfLH78Zv1okVXePdWe/X3vygLF35P7H7WrNkmH//4v0tvb4989rNXyOjR+H8Kxava9ZWb465d++XGG38g27btla9//U9l7typ1S4pcjtdKxpWGlvn2dMzaRgXfR196F7rRMw9rzQ53Qftb8WKlyo1Kb1/zTUXyQ03vNb7/v77n5HFix8c8Yzp62GeG3Peb3rT2SOeA3ti2jfmcfXVF3n7ifn7jaXPkH0v+vS7X59TvG/+POH7IPbaJmjumEN//zpvv/B868+lH3D7ZzX0pvjcSGFTCz22JYE6EKCwqQNkDpFaAhQ23tYg2mXckDix89VoeW09MoVoG+Se0QpOmhDYThise4570Yf+iSNYuNAPBJCWCU/tMxLXxChs4iIZTz8UNvFwZC/JEog7wkY/8GLWKj30Q63fB0/zQ6nfB0R8wHzooWcrSoUolIKEDfrQD9VBH+6jrq/cvBopbEwxUUlk+EkJyJvrr3+N/NVf/Ye3xCBhs379rhHvKZNy+6D3hBVLQbLn059+vaxYsdGTheZlCxB9zxZzlaSFyQbiSNvbwsScH/qcN29qSe5gbD/BYs7Fnq+yM4WV+fwGzdtP2Jg/q/jvIPEV5WfMvpfCphZ6bEsCdSBAYVMHyBwitQTaQNggoqVrSMaUkyrIY4N7/Y4nQc4gmgaRMOgD/eFefA/pEtSv7juOPqENLtyLaB20baqy3LU+xBQ2tRKMtz2FTbw82VsyBOISNvoBEh/cH3yw+OEYwmblyo1eNAs+kL7vfRfKzTffJ5dfflYpKgL3oe299y6TD3/4T0ZEmcQpbPyiPi6++BRvrk888UIgYHz4xYV1VLO+oI7rJWxMKRb2KVJBoFEYy5at96TZjh37PQ5Bl4oHvF8uesNs7yeM/PYK8uU733l6xPOj90IO3XrrW+SWW37sdY+9evTR57yom3/4hyu9tn19Jw579sx5mLJFn1W8Xy4CyRY2yjpIsOjr6FejcfDfM2dOHDaOPhuu68r27ftk6tTx3nrsdjp/cL/iirO9Pu0LUufii+eN2Ld3vzsre/fi1yUp/WwuXHix971fpFLYZ8fvPgqbWuixLQnUgQCFTfKQx73wgpxw333SvWWLdO7aJY7bup9TXceRw5MmyaEZM+Sld7xD9p1S/GUrrVeLCxutwoSolkpyRaWKXxlvsx9sJaJjVLqE2VqNrkG7pk4cHGaxQfc0Wtgc3LtLfvmtRfLK99wkk2fNDb2UJ394h5w0/2I54Yy+YW2CXtebXvpDvzz72L1y6dWflVFdo6XS/aEnFNONFDYxgWQ3iRKIS9jgg+uSJU/Ibbe9U7773aeHfQjUD5s4HqUfcMMcN0EnlYRNpYgYP3h+R2TwAfm2234hN998mXeMy75qXZ8duQFJcemlp404EuUnV+xoCb++9IhYuffKCSJbPOj6bQFx991PlY7U4B4VBHFF2JiRKCoxHnjgt95xO0iXV73qVFmy5HHve40uwRzvuOORUiSPRuV84hOv9STNVVed7x2h0z20BUxQtJEdFWMe5VM+NregNuZxKETimHtxySXz5Ac/KJTWg76VO6TK44+vHiFscA+Y79y53zvGh4gdXKtXbyuJH+VgCtKgCIkGgx4AACAASURBVBuVPXgucVHYxPDXrv5Sll+yJIbe2AUJJEuAwiZZvsc/8YScdNddXjhCu13QUi9ec41sv7j4fwTSeLW4sDFz0AB/ueNLiICBtPHLVYO2+n5QAuI0bm+q5tRoYQMYOzeukR0bnpd5F7xBfv/4/fLo3Yt9GV169SI585Ir5cjAQfn1978i81/33mGSB/2s+OU9nvyBjPG7IGgmzZjj9YOLwiZVjyMn0yQE4hY2ixe/1fvwrJEBmzbtDiTx3/5bTlau3OTl/LAjDzRfCj6cBx2JinKsRydhfqDWyA67n8svP9uLDjGP8+iH/Sjrg1BYuPAS30iTIGFjHh/TOZvRF345fnQd5d7TvvwEV5BkMLlgf2644TWyaNGPShEuceewiXrMx5QPkGw6n6AoGr8jWFGij/wko5/osuWMXw4nU9hALH31qw+XpAzWoqLSfg/7aEoyFTZ4HeJn3LiuUgQRhU2D/xKmsGnwBnD4SAQobCLhinTzqL175ey/+RsZdeDA/8/eu0BLVV2J2rMAERSQZ4AIAoLxAQJ1EIitCWoe+AxpQmwTbbzaNye3rwp6O3bS/f+i4O20XkwraEaSk/zmwjW2rYbEqxFPJypEiAHkHDTgI0KQgILKG0REoP4xt67KOuvsXbXrvarqqzEyIqfWXo9vrkPcX+aaSyZNuFC+/IWrZOiJI6RTp78UysupwypofPjwh/LGm+vll79+QJaufEoOd+0q6777XTlyvJZI8e9T48JGgZvCwHoUSTNdoqSNZuFokIyQcdPA7Gu+9RjUR3m6fGITqKSwUcHy5LzrZf/ObcF8R0y4MJ35opkwe9/dkhYr9p9V2LzweJOMnTxdunTrmV5r65P3y9Dk+YHEURGjn09/ZUb6+7BsHlfY6Dh/Xru8zXOxYRahIRk2RYBIFyUnUCxhY16ezZGUTEdP7EXZx1nsIx+2sLGLGbtHR3IF5AoRc8TJLohsJNOKFRuDTAMVIps27QwyS3JdnxEC9rz1Zd1IqmxFh+1sICOSMhVvDvvOZmRe4uNkPblFb7/97S/ID3/4nFx99aeDwtGZhE2ucSlGeyNKzPGnTMWLNR5///efCY5PZavho3Nz96nJwgoTNm5WkpEqNnNb2JisNBM7U99GfwfM0Sz3SJTOyc6w0ULZmh2mWWJTp44N4mMLsCFDegd72f6Y44Ddu3dJH6fSbK4tW3aRYVOMDYmwKQZF+igXAYRN6Uj3+MMfZMS998rgAcPk+7MfkUSifvJs9P+9u+62y2Xz1j/J+htukL1nnlk60AX0XAfCxlzNrYJFhY3+OUzaGCGjbaKu2c52zXcBkaj9RyspbGy6mlmz++1NaVGif9aPyYQxwkZ/5mbgXPYPTdK1R+90lo62CcvCccfQdrawUYH07E9vlfOvmZ3T8axi7hKETTFp0lepCBRT2NhiRedrjvKYl93+/bunM05M9oqpkWL+rM+pxIiTYZMrE7cw7XXXfVa0NsuIEf2kX79uwfEZPS4zcOAJQVaMztfcQBSWvRJnfaaGilscVucedkTJCBU3Mykqi8bu151j2Jh2tod9W1HYTVWZbimy52/kgZEYuWStmBgaodWr13FtartkirG9vjAx5j4bp8hxrnsqTNi4cX3ppTcDAWLPN1MbI1c05qNHnxgceYpTw2bUqIFy111Pp+vhmHpDZlxXOpnfPV2zeRZhk+sOyNAeYVNEmHRVcgIIm9Ih7vf00zL4P/5DLjnvcvlvX/926QbytOcfPnin/GrJw7L5b/5G3v3c57ycZQ0IGxUsmYr+mvozpu5MptudTHFhvSlKr+oO+5haN1FHp7yMsw+T8kHYhIkSV9jYf9b2b7Q+K8mLr00Ll33b35QNq38jm9cub4PVZO3oD5cuvF2O79W/TfaMETa9Txwui++dKROnzmhXF6eccULYlJM2Y+VLoFjCxh7f/n/2VeKYl8BFi15sl6ESJ8OmWLdE2eJI52VnVtgv3qZAa1SdnVzW5x6PsTm5L+1GVtgCJKzeTiYxE0fahEmhsFuFdH6rVm2SJUteD46HTZo0Qr7//d9m3Gp2JpHhZPqOc/tQ1BXi9qDuUZ+wujcqK+y6Nvp8lLCJc5W8Ph+WiRNV+8f0ad9SZTN2Y6/9myvlu3U7Nqhbo/LQ/DxOho0W+Tb1fewixGHXptvH9XQMHVPr6Gj8TE2dbDdk5fJ3DkWHc6FFWwhUgADCpnTQDduvXdooX//SN0s3kKc9P/h/fyT//kSTbL30Utn6pS95OcsqFjZ6VbYed9KjTCpYtKhw2MfUsTGZM3rUSaVLWKaNnY2jx57CPjqefaNU3VzLXegGrrSw0UwYFSknnjZB+g8fHdSmueDaOfLGmqXSo9+gtDyxhY39z3oMqtOxXeV3/3FXmyNVysX0ffpnpgaYHv9eo4yZfHU7YXN8z37y0q8fkPOvmVNRWaNzRNgUuqN5vhwEiils9IVYa5xcddX4IFvFLkBsipqam370NhotBFtOYWNe2vW/9aYj9wXcPi4VdvQqn/XlciTKfTk3GRB6VCZMFoQdbzJ7JtN32sY9GpbtGvOw67mzHYly6+WE1efRudg3KuUjbMwtY67o+MlPftemDlEmYZNJCoZJM513WD0kw9+MNXLkwDa3PJksJFfYmKwuc/24kYVbt+4JzbDRcdwjUSps9PdJfwf12Nr77x8KspVMbF1RFyZyCj1yGPV3FsKmHH+bMwYECiCAsCkAXpZHETYIm9LtrqCOtREvKmEySRtTx+a9j49D2c/ax6NMNo72p8eioq4zM/2pJNJxa/fasyIGsJLCxgiV9SufClbUrfcAuXjmfekaNPYtUCppjMAxtWq6du8lyx+aK+dccXObWjYuHlO7ZvDIs+W93e+2EzYvNi8QPVbl3jhVRMyxu0LYxEZFwwoSKIawsTNX9AiRERuaIaDHQfT2KHMzj3tTjy1sNINj8OBegeyJcyQqrJhrHJRxMi1sgVHI+txjWGZ+YUWHjbCxj0OdffYwef75jcFLt13Dxl5npuLGYceijICwsym0v0xHqHIVNvaxKNNvqTJsDAv3RjETtwkThgRysFjCxhVP7hXerswJYxt2HM7u12S3uOJN+worOqw1bFTYqORzpZHZyzZ/rVOjGW933vlluffeJaKiSPfaxo07gt9VvZlLj2aZ28fi/F5laoOwKZQgz0OgxAQQNqUDjLBB2JRudwU9q3jRY0x6g1MmaWMyZ+xiwVHSRrNnNHtH5U7UFdz2MSvtE2ETI9CVFDbmaFPXHn3k/b075I0Xl4pmwwwdO6ndVd9G2NhHl3R5WiD4rMsagywdI37sZevNUpq5o7dQde3eO11QWCWOHoF6Z+Nab2SNzhthE2PT0qTiBIohbNxFRF2frO30pfrtt/elXy5t6aJZBVowVY+y5Cps4hSOjXqRtTMPVGL06XO8rFu3VaKOROWyPh3TXqOZg76Qm+Kydv0Y+6XdvmI5Sti49UlMhkaYJHD7Ni/jrlSyj8JEFdu1pYT+s32tt92fyajSq6VNbZZMR22iBFfYL4ormLJdAR8ljHI9EmVzDJM1tkAydZ3cNWeqX2QXJ44SNm5B5Uw3WNl7zY6Vezuafqdy1WTGhUm6fP/CQtjkS47nIFAmAgib0oFG2CBsSre70j3HkTa2YNGMGPOxnzWZNip3VAJlqmNjZBGiJocAV1LYmGmaI04qajRjZujY8+SNNUvSN0ZpO7s4sJ2Zo5kxnxg2MvSa77DCxSp49LP1j6vlohvmyZrmhWJn8tjHqCqRcYOwyWHz0rRiBIolbFwpoS/TYTfT2Au1s0z0ymgjMDLd7hMmInKFZ2da6LNaENZ94Y266tsIkbjrK1aGQq5rtNvb2S6ZZIl7jbdKGLcotDnSo/1HHYl6440d8swzr8n+/R9kLNpszzHqWnc7Y8S0D7uuWr8LEzbuMaAwsRFX9OQiBQuJV6ZnXebmBiqTYdPc/HKb26DMelVA6jFAE/+w2LnFosMyrvJdF8ImX3I8B4EyEUDYlA40wgZhU7rd1a5nUzA4LNPGrWNjFyl2pY0ec9K+tOhwVB2bMi6rdobySdjojVAm88Ut/utev60yRm+L0qLCeiRq1WM/kFEXXNHmdqcoYWNf9e32G3b1dzmjjbApJ23GypdAsYRNvuPzHAQgUPsEEDa1H2NWWOUEEDalCyDCBmFTut0V2nMmaePWsbE7sKWNHoPSP6vUyVTHpsxLq/7hfBI2mmGjx5QGfmpcmzoz7hXdKmLefHVlkIGzfmWzvLvpZTn0/v7II1H21eCaYZNJ2OgxLVP4uEu3nmUPMMKm7MgZMA8CCJs8oPEIBCCQEwGETU64aAyB8hNA2JSOOcIGYVO63RXZsxEzbqZNWB0btxMjfPTn+nymOjYVWFp1D+mTsNn99qYApgoVtyCxud3prddWp+vQGPKu0DE/j5Nho/3p7VH2x71JqpwRRtiUkzZj5UsAYZMvOZ6DAATiEkDYxCVFOwhUiADCpnTgETYIm9Ltrow9h0mbqDo2YdJG5Y4eidL/UKemSEH0QdgUaSk10Q3CpibCWPOLQNjUfIhZIAQqTgBhU/EQMAEIZCaAsCndDkHYIGxKt7uy9uxKGy0qrNeAq7jRo052HRu3Mz0ShajJiji3Bgib3HiVujXCptSE6b8YBBA2xaBIHxCAQCYCCBv2BwQ8J4CwyRygrlu2yEkLF8qe0aNlz5lnyvtDhsSOaLmFzd79u2XOvTNl8memyhfOnSKbt26Ux595SP7uqzfJsZ27yB9eWy0LFs2XWTfMkx5lqBnx4P9F2MTeLKVpqNd96zEn/eitTx1FREWOHnVSgcOnjAQQNmWEHWMohE0MSDSpOIF6EDbmRhxzVbjePBR101CpAmKujo5705B9Y1Omm52i5muuni7mTT9x2Zi1xhk76qpt8/MwXhq7W2/9lcyefYkMG9a3zbSi+tNGUbdahe2POGvNdrtUnD7qpQ3Cpl4izTqrlgDCJnPohvz0p9Ln+efTjT484QTZM2pUIHD2nXGGHD1W33/DP5UQNm9vf0v+9Yc3y03XzJGePXqnhc0fN66Tf/5eYyBrTh02CmHzccgGPv646H9EZHZLS8ttVfuLHD1xI200Y0Yljf5Zb3/6oAbX6vWSEDZ+hQdh41c8mE04gVoVNubFPZe4DxjQQ+677/J2EiBOH+al376S3BYWuQqUahY25npoc1W3fRW4zdIw2759f8D9pZfeDK6kVkG1Zcuu4J/DhI0RQmFXdEcJm7D46Fw0RvpZsGBFuzDrPJYv39DuO32msfFcuf32xbJly27R68+j1hhn79RDG4RNPUSZNVY1AYRNPGGTSqUkkdCTIn/5HO3YUfZ/6lMfZd+MHSuH+vRp8325hY27EjfDptwblQybchOPHE9r0uhxKLOB9epuPRbFp4wEEDZlhB1jKIRNDEg0qTiBWhU2YWKglBk2RgiMGzdYLrvsTLn++oelsfEcmTJlTDAVk9EzduwgueWWi0SzfDJ9qkHY2HPMZSMbCWPEji1Annrq5ciu7EwjlTbr178r//zPF8rDD68OFS6mI5VBTzyxNvijsl+3bqs0Nj4YyCD9GDE0adIpMnPmo2LvE3sydlaWifG2bXvbzTduFlUuzKq9LcKm2iPI/GueAMImc4jdDBvTWgWOfmyJc3DAgODYlAqc/SNGyMBf/UoGPvGEfO3SRvn6l75Z0r3062WPyfyFc2KP8d1/aJIzTx0Xu30+DRE2+VAr2TO2tNFiwpplQ52akuFu3zHCpoywYwyFsIkBiSYVJ1DLwsaWKDNmnF9S1vZYQ4b0lqam5XLjjefLPfc8K2Ev9ToZOwPFlhc617jCxkgEM4bpc+nS1wMRYbJ8wuSKm6ES1Zdmj2T6TtcSlUHkZtGYI0z2fFRwjB59YhvJFXUkymTXmGCaLJjVqzcHmS5m3SZLR+NgsqbcNURtiLDMHW1rCxv9sxlT+Zj4IWvCqSJsSvrXD51DoHACRtgU3lP99hCWfWOLna9MvlqumTazrID+98/nS++e/WT12uVBLZvPjp8s/+UrM8o6B4RNWXHHGazTx42oXxOHVpHbIGyKDLTA7hA2BQLk8bIQqHVhc/DgYfn2t38pp53WX/bv/0CiMjgKfdE2YsKM079/d1HxElU3xQ1uPsLGPGP3FSVsMh0J0nmGyQzT165dBwKZYosn97iTeb5v325tjggZ8eJKEHvuyn7Tpp3S3PxKWq5kqmHjMl24cEVantjCZty4k9pgNnO0M5/sBkYi6c/CsqDM8336HC87drwX8DBZP5lq55TlF9nzQRA2ngeI6UEAYVPYHgjLtHF7/PLnr5K/u/ymwgaK8bQpOvzaxrWiGTRaw+b+R+6WqZOvlrt/Okve3bkt6KUc2TU6DsImRtBoUjcEEDZ+hRph41c8mE04gVoVNubles6cS0Vf3M3L+Jo1W9rUqSlWZoSdYaOktSaKvswPH943OGZj17YxkbAlUSZhY0fO1NkZOPCEoIaKCii7Vs6yZeuDzB03w8aNvis9NmzYHhwTCssuMXOLyjwxfbuFlW1JZB9ncrN9vvWtz4mKniVLXk+LkkzCxoxj+nSzbsIEVliWUNTfCfY6w6TYyJED08KGejbx/mZF2MTjRCsIQMBTAlFHosx03eyag/36ya4JE2Tn2WdL79//vmxHojSjZu0fV7e5ASqsho3+7NZ51wfHtPQmqVJ+EDalpEvf1UYAYeNXxBA2fsWD2dSXsFFZoJJEZYmKkcmTzwgERzmEzfTpE9O1UG644bwgw8euixKWjZFrhk3UUSMT5bAjSmFiIyqLxi7A7GbfRBVnNmsw35siwu5tUa6wCctuihI25uc6xlVXjZe77no6WLKuQ//8yivb2mQ2hdUtyiXDJkromTVo0eEZM86TWbOekMmTTw/G5tOeAMKGXQEBCFQ1AVvYRGXT6M1Ru846S3ZOnCgHhg5Nr7ecRYdV2Py8eUFs1jOmz0LYiAQ3RNX4LVGx9wQNS0sAYVNavrn2jrDJlRjtK0GgVjNsXJZRGTbFOspiZ9iYG4R0DldeOV5uvvkXbV7miyFsjETRMcJutnKFjStAwo5qZRIzcaWNK4WisnI0E+j99z+U73znMbnuus/K0qXrQ7OQ7DheeeVZsmPHgTbH2qZNS7Y76mbf7mRkUKYsnKjfO+1HP6ZAsSkg7Uox/XMhN4xV4ve+3GMibMpNnPEgAIGiElBh0/t3vwv6tAsMH+7aVXY3NMiuiRNl36c+JdKhQ7txyyls3ME/OHRQ7l14u+x7b4+cO+4LJZczYdDJsCnqVqSzKieAsPErgAgbv+LBbMIJ1Lqw0QyJ+fOXyJ13flnuvXdJkGEzd+5fy89+tir94p/tqE+cvRNWIybqemr3SI/2n2uGjZ2lEudIlHtcKdvV2257m0Gm71wOma72znQcLSrD5v77fydvv71Pli3b0Kaos8bQZDOZ42dhcTVzv+OOKfLAA6tk6tQxwU1eUfVrMs3RXmsx9lCcfVatbRA21Ro55g0BCAQETlqwQPouXx7889FjjglugNo5YYLsPfNMSXUyNVzDYVVS2GjGjX600LD+84n9h5Rd2iBs+CWCwF8IIGz82g0IG7/iwWzqT9jYUkNvEFq8+OV2R6KUimk3YcKQdtdwxz3mEnYjVdSxpWIIG523kRp2ZKOKDrsZJqYOiykSbGrY2H2ZrJGdOw8EWSZh35lbn/Q7V2DocSGVJ9mOUOVyJMqs29z+pH/WgsgmTvY67bo5dixsYWdEj+4Bnad7bC6sho17LbnhYouzKKFWr38PIWzqNfKsGwI1QmDAE09Itw0bAkmzO5mUo126xF5ZJYSNORqlN1PZt0KZa7/LcRTKAELYxN4qNKwDAggbv4KMsPErHsym/oSNWyy3qWlZuhiwfYNQ2PGgXI9KucLGlhdhL/JRtXTCruG2xYMbRVcomEyP5uaX21zrbc9Hpc7s2ZfIrbf+KuhOZZYrbGzJ4o7hChi3b+1Pi/y6UinqpqhChM3jj/8hiGnUR9mpnFIRozd3mfpCKpIMa1eg2Vk1gwb1aiOr3CNWdtFhuwC09rFo0Zp01o/WuXFvraqnv5MQNvUUbdYKgRok0OHQITnauXNeKyuXsDHHn5aufEpcUeNO3IibSRMulBum3yLHdo4voHKFgLDJlRjta5kAwsav6CJs/IoHs6k/YaN1V37yk9/J1Kljg5flsKurbSq2GNGX+NWrN7e5ojrTHgoTNm+9tUcee+wluemmC4IsHvu2KCMLwjI4su3VTMeMsj1bzO/tLJJsR4Lca7z1GFI+R6KMBNIMG82U6dr1mCDG3/jGOYGAssVI2NEtt+Cxy8OVR2FHs7Rf+wpy04crehA2f6GLsCnmbx59QQACVUWgXMLGVygIG18jw7wqQQBhUwnq0WMibPyKB7OpP2GTb8zDjjfl2xfPVQ8Bjbve9qSCzT7qlc8KOBLVlhrCJp9dxDMQgEBNEEDY/Ej+/Ykm2XrppbL1S1/yMqbcEuVlWGpyUggbv8KKsPErHswGYcMegAAEKkMAYVMZ7owKAQh4QABhg7DxYBsyBU8IIGw8CcTH00DY+BUPZoOwYQ9AAAKVIYCwqQx3RoUABDwggLBB2HiwDZmCJwQQNp4EAmHjVyCYTUYCtX6tN+GHAAQqTwBhU/kYMAMIQKBCBBA2CJsKbT2G9ZAAwsavoJBh41c8mE04AYQNOwMCECg1AYRNqQnTPwQg4C0BhA3CxtvNycTKTgBhU3bkGQdE2PgVD2aDsGEPQAAClSGAsKkMd0aFAAQ8IICwQdh4sA2ZgicEEDaeBOLjaSBs/IoHs0HYsAcgAIHKEEDYVIY7o0IAAh4Q6PfMMzL4oYfkkvMul//29W97MKPyTuGHD94pv1rysGy+4gp594ILyjt4zNG4JSomKJoVTABhUzDConaAsCkqTjorEQGORJUILN1CAAJpAggbNgMEIFC3BHqsXSsj5s+XwQOGyfdnPyKJRKJuWKRSKbnutstl89Y/yfoZM2TvqFFerh1h42VYanJSCBu/woqw8SsezCacAMKGnQEBCJSaAMKm1ITpHwIQ8JZA4sMPZdR3viPH7NsnkyZcKF/+wlUy9MQR0qnTMd7OudCJHT78obzx5nr55a8fkKUrn5IPu3WTtXfeKalj/FwzwqbQiPN8XAINDQ0fikinb/xghXTo2CnuY7QrAYGjRw7Lj/9+ovZ8uKWlxc+/nEqwbrqsPgIIm+qLGTOGQLURQNhUW8SYLwQgUFQCvZ9/Xob89KdSP7k1f8GXEpFNf/d3snNi8GLk5Qdh42VYanJSyWTy9UQiMeLy2Y9Ir4En1+Qaq2VRu7ZulIdvnSapVGp9a2vrKdUyb+ZZfwQQNvUXc1YMgXITQNiUmzjjQQAC3hE4/k9/kk/+4hdy7DvvyDG7d0sipSqjNj+pREI+7NlTPujfX9768pflvZP9fjFF2NTmPvRxVclk8slEInHRKRMvlvOuuU06dOjo4zRrfk5Hjx6RJT+9TV5f8aQKm8Wtra0X1/yiWWDVEkDYVG3omDgEqoYAwqZqQsVEIQCBWiNgbqnaeumlsvVLX6q15RVlPQibomCkkxgExowZ88WOHTs2a9Me/QbLiaeNl+NO6BvjSZoUi8CBPdvlzVdXyd53NwddplKpz7e2tj5drP7pBwLFJoCwKTZR+oMABFwCCBv2BAQgAIEKEUDYZAePsMnOiBbFI5BMJq9NJBL3iEj34vVKT3kQ2JdKpW5sbW29P49neQQCZSOAsCkbagaCQN0SQNjUbehZOAREOhw6JCc+8khwpfPBgQMjkXzy5z8PbhHaf+qpQRt9bsDjj8s7kyfL4W7dpMvWraJXZL/51a/K0c6dgzbdXntN9Bamt77yleDP2seA5uD/vA4+7w0bJhtuuCF4vl4/CJvskUfYZGdEi+ISGDly5IDOnTufm0qlhnbo0KEa/4K69WMis4tLpiy97UmlUpsPHTq0bN26ddvKMiKDQKAAAgibAuDxKAQgEIsAwiYWJhrVAgGVDCctXCj7TjtNdk2YkP7nHeee22Z5nfbvl+H33itvTp0a/PxT3/uebJs8OS0e7Mam7Qf9+smfp09Py4psvOy5mPHtcY0YydZPod+befReubJdV5umTxczN1vY9Fm2LGiraz723XeDNnGFjZE+utZBDz0kW664Ii1stA8t/rvpmmsyyqNC1+zT8wib7NFA2GRnRAsI2ATM9eQtLS31WEudzQCBshJA2JQVN4NBoC4JIGzqMuz1uWhXkqh46P7qq+1Ei2aGnLhoUZD90eXNNwNh80Hv3rJh5sx2IkHb9n/qKTly/PE5CRs3Y0UjUilhk2uGjRE2Kr1Mlk2nffvSGTadd+yQ4fPmybE7d6Y3msqfY99+O52lEyZstHGY+Knl3YqwyR5dhE12RrSAAMKGPQCByhBA2FSGO6NCoJ4IIGzqKdp1vlZX2ERldKhM0Y8e5THyRrNJNDPHzsYxx4kODhggx2/cGFvYuEeFTFjKIWzMGDrfbB89srTl8stl6I9/nJYvOydMCI4yHT322ICFrkWzbN4bPrzdkSgVOypp7CNRmTJszHzCZFa2uVbr9wib7JFD2GRnRAsIIGzYAxCoDAGETWW4MyoE6okAwqaeol3na3WFTZxjSUbY6PGo/s3Nsunaa9NHePS7vs89JzsnTpTeK1bEEjZmzO2f+Uy6HkwmYWPXfVFZoseuNIPFPTrkyqew57S2jAqbTzQ3y7bLLguOb0Vlurjtwo5E2fIqTELZ4kvXaPcRNa62ixJatbh9ETbZo4qwyc6IFhBA2LAHIFAZAgibynBnVAjUEwGETT1Fu87XGiZo3GNR9nEoLYZr/rzxm9+UTy5a1CbLRgXEB/37B7VcVNzEqWGTSVS4GTY6tn60no35TkVPWP0dNyso7DkVLGHCRuv12Bk3RgyZ4sGuMYLBNwAAIABJREFUbDFHojIJGxVI5liU6e8Tv/mN7E4mg2NlmTjU07EohE32v5QQNtkZ0QICCBv2AAQqQwBhUxnujAqBeiKAsKmnaNf5WqMyaobcf39wu5GKBCNhjIxw69kYMaNZLlr7RTNutM5NXGGTSUZkOxJlz80WTbouUyQ5rFix/ZwRNh0PHpR+S5cGOyLstib3WJLJ2HGPRJkt5UoccxxKv1eppZ9j9u6NJWwyyZxa28IIm+wRRdhkZ0QLCCBs2AMQqAwBhE1luDMqBOqJAMKmnqJd52sNEzaKxAiNPWPHii1v9Dtb2OifjRjRui2mPos5GhUnwyYXYaP9asFj+2Nuq1KpYebaae/eNsIo03Nh47vXbet49vErkynzx3/4hyDbx8gZrVujsmr3WWeFHnfaPXasHLdpU1DDxr0+PFumkXuDVK1uXYRN9sgibLIzogUEEDbsAQhUhgDCpjLcGRUC9UQAYVNP0a7ztUbVj8lUi8Y9ImUyWzoeOJDOyslF2GQTFUbCHO7evV3WTFhNGM1eUXGk/22OPLnZNvZz+R43cmvYDFm4MMjM2fy1rwUFiFXq6HXcKnR0DBU5uoYea9cGwsZdt/3nE9asCXamyWrKd47VuL0RNtmjhrDJzogWEEDYsAcgUBkCCJvKcGdUCNQTAYRNPUW7ztfqyheDw2Sr6H9v/+xn29wE5T5jarO8N2JEumZNLsImU9HhTMeczLi7xo9P37oUzO3jG61UlpjaMLawcZ8z2THmiu2DJ56YLkLca+XKAElYppEtbNziwTqeZuT0WLeuXVFmI2zcG6NsYaNFkM3tUTo+RYfr/BfVWT7Chv0AgdwINDQ0pPSJlpaWRG5P0hoCEIAABCAAgXok4N2/MKT/ZaapqR7jUXdrNkeEPujdWzbMnBmIDfejEqLXqlXtvg+TPG59l1yEjY7rygv9s8lY2XDDDW1uoTJHolSIHOnaVY506ZIWNqbmzb5PfSr9MyM8wp57Z/LkNke+dB1Hu3aVDu+/H9wapcJG68wcv359OnvIcAq7atvIoG2XXpq+4tuu5WPEizuu9mkLm76//W26to1+x7XedfcrmnHBCBv2AwRyI4CwyY0XrSEAAQhAAAL1TgBhU+87gPW3IeDWcykXHiNQNJvFrY0TNgc98rTl8stl6I9/HHxtyy73GnHz/IAnn0zLFzOeKTps3yplxMyA5uZ0vRy9laqejkMpg1o4EpU4dEg++dhjwfE3Lcbd8dChcm1p38fZm0qlNicSicXvvPPOrC1btrzv+4SZX20QQNjURhxZBQQgAAEIQKBcBBA25SLNOFVDwGSnmLovVTPxEk40SgKVcMiKd13twkZlzWn/839K123bKs7S5wmkUqlX9u3bl1y/fv0HPs+TudUGAYRNbcSRVUAAAhCAAATKRQBhUy7SjAMBCFQVgWoXNgN/8QsZuHix9OjZR6ZdO1NOHztRTujVt6piUKrJ7tm1XV5Zs0IevX+e7N29Q44ePfova9as+X9LNR79QsAQQNiwFyAAAQhAAAIQyIUAwiYXWrSFAATqhkC1C5tT/+Vf5PhNm6TxH/9VzvrMF+smbrks9IXn/lOa/tc/SSqVWtXa2johl2dpC4F8CCBs8qHGMxCAAAQgAIH6JYCwqd/Ys3IIQCADgWoXNmNmzJCOBw/K/Iefky5djyPWIQT2790t/+PKz6mw2dXa2tobSBAoFoFBgwZ17dev380icpLWcjf9JhKJq/WfU6nUAvOzI0eO3PXSSy+tLdbY9AMBCEAAAhCAQO0QQNjUTixZCQQgUEQC1S5sGhobAxpNj68uIpXa66rxsnHBorhmufZiW+kVNTQ0PCEil6RSKUkkov91K5VKLWltbT2/0vNlfAhAAAIQgAAE/COAsPEvJswIAhDwgADCxoMglGEKCJsyQK7TIZLJ5NcSicSDMZb/jy0tLXNjtKMJBCAAAQhAAAJ1RgBhU2cBZ7kQgEA8AgibeJyqvRXCptoj6O/8hw4d2qV37967UqlUl7AMG5N5c/jw4TM5EuVvHJkZBCAAAQhAoJIEEDaVpM/YEICAtwQQNt6GpqgTQ9gUFSedOQSSyeTCRCLxty4YI2tSqdSbra2tgwAHAQhAAAIQgAAEwgggbNgXEIAABEIIIGzqY1sgbOojzpVa5ZgxY77YsWPH5gx1bH7c0tLyUcEpPhCAAAQgAAEIQMAhgLBhS0AAAhBA2NTtHkDY1G3oy7Xwjslk8q1EIvEJe0BL4ExtaWn5RbkmwzgQgAAEIAABCFQXAYRNdcWL2UIAAmUiQIZNmUBXeBiETYUDUAfDNzQ03C0iN4Zk2RxJJBI9Vq9efaAOMLBECEAAAhCAAATyIICwyQMaj0AAArVPAGFT+zHWFSJs6iPOlVxlMpk8K5FIrAoRNs+2tLRcUMm5MTYEIAABCEAAAn4TQNj4HR9mBwEIVIgAwqZC4Ms8LMKmzMDrdLiGhoYNInKys3yu867T/cCyIQABCEAAAnEJIGzikqIdBCBQVwQQNvURboRNfcS50qtMJpO3JBKJOToPrvOudDQYHwIQgAAEIFA9BBA21RMrZgoBCJSRAMKmjLArOBTCpoLw62jo0aNHD+rUqdNms2Su866j4LNUCEAAAhCAQAEEEDYFwONRCECgdgkgbGo3tvbKEDb1EWcfVplMJn+XSCTO/nguXOftQ1CYAwQgAAEIQMBzAggbzwPE9CAAgcoQ8EHY9GxpkQMnnSSH+vbNGUJDY2PwTNPjq3N+tp4eQNjUU7Qru9axY8f+9w4dOnz/41lwnXdlw8HoEIAABCAAgaoggLCpijAxSQhAoNwEfBA2Rroc7N9f9oweLXvOPFP2n3KKSMeOWXHkI2z2790tDzXNlSsab5ZuPXoGYyz79WPBf5/7hSkZx3zy4fslefb5suHVl2Th/KBUR5vPsFNHyQ2z5qX7dcfScd5+c5Nc9rVGefzfm2Ty1Olt5uD2+Tff+Jb8+pcPyM53t7UZZ8KkC2X6DbdI52O7ZGWkDRA2sTDRqAgEzjzzzF7HHHPMTu0qkUgcz3XeRYBKFxCAAAQgAIEaJ4CwqfEAszwIQCA/Ar4IG/cq4CNdusjeM84IBM7e0aPlcLduoQssp7CJK3Xsib72h9WydvVy+cp/mRH82PxZhc1LK5+TXz/2QBvBY9q8u21LpDzaunmjvPnGejnrM1+IHXSETWxUXjQcOXLkgM6dO5+bSqWGdujQIXzzezHTyEnc+vE3s/2eZujs9qRSqc2HDh1atm7duramtAoXw5QhAAEIQAAC1UAAYVMNUWKOEIBA2Qn4ImzshbvyJiUiB4YNCzJv9D/vDxmSbp6rsPn5/54vzT9fkH7+y397nby4cqlsfG1tG/ZuBos+px8jXuIE6tAHB+WR/+9uueCyK2Tg4GFpYfNc86J0dozJuLH71bFGjTtHTj1zXPCMtuk3YFDkn+PMBWETh5IfbZLJ5LWJROIeEenux4zqdhb7UqnUja2trffXLQEWXhUEUqn/uK0qJsokIQCBihHYtGnAyqFDJz1ZsQnEGBhhEwMSTSAAgfojYISNrnzrpZdWBMDAJ54IHdeIm3YCJ5GQo507B/Km9wsvBM/mUsMm7EiULUk0g+WZxx+Sr/7dTcGRIzuzJpcsG82mWbRgfpsMGu37V//xEznw3j5Z+8Ly9Lqnz5gVZNTo94/cf7dce9Oc9FEpcwxLpU+YBIoTNIRNHEqVb5NMJrVY7/JEIpHoMXiwnDh+vByXR22nSq/k6OHDcui996TLCSdUeio5j39g+3Z5c9Uq2bt5s15Nrr54Qmtr60d/0fCBgIcEUqmHdZ/ygQAEIBBJYM2aYUd79frg0qFDz13sKyaEja+RYV4QgEBFCdjCpqITKWBwfaf64WMrpWPHTrF6McJm7MTzpHvP3kHmSiZhYzo1Imf0+M/IvXNmRo41+StXBzVqFt57u+jRpqlXz5Cf3j2rTR2af/huUzpjxu7IzeRRQWPXutG5Ny9aGPQft36N9o+wibU1Kt6ooaFB7eUlp1x8sZx3223SIUYdp4pPugYncPTIEVly223y+pNPqrR5srW19ZIaXCZLqhECCJsaCSTLgEAJCbS0DJeOHY8e7dnTX2mDsCnhBqBrCECgegl0e+016f7aaxVdQFSGjZnUR/8nd1DAtM08955+unR/+eXg57lk2JhjUSpW/upzl0nr88/K+wf2p48huRk2OqiKkvvvniVfvfam9PEmV7S4x5hefXFl0MQubpypH83I+d4/f3TrlX70WJY+qwWSVy59ql2MTFZOnOAhbOJQqnybhoaG9SIy/PJHHpFeJ59c+QnV8Qx2bdwoD0+bpgQ2tLS0jKhjFCzdcwIIG88DxPQg4AEBFTb68VnaIGw82ChMAQIQgEAYAVOHxv7OPQal3x3s1092TZggOz/9afmgf/+geS41bDRbRbNeNLNmzYolgQzRz4oli4ObmGbOvi+QMa6w0T/Pu/X6oK1p467DztDRcZ5r/kVwm9SiBfe2ETZmDp+ZPLVdho0efdq1/W056zNflBOHDM+YSePWucm2sxA22Qj58X1DQ8Nh/fepb6xcSXZNhUOix7p+PHGizuJIS0tLvPS9Cs+Z4euTAMKmPuPOqiGQCwEjbHyWNgibXCJKWwhAAAJlJKDSJSqL5lDPnrJr/PhA1Bywig2b6eUibMwzbg0b/bMecdqzc3sgZPRj17BROfKpkQ3y0qrn2hQQthGFCZSwWjn6TKY6OKbAMMKmjBvQo6EaGhqCdLJvrl7t0azqdyo/GvdR4e+Wlhbv/j2yfqPCyl0CCBv2BAQgkI2ALWx8lTbe/Q+t+ZeylqambHz5HgIQgEBNE3AzbPQK710NDbJr4kTZP2KEnoWKXH8xhI25qWny1OnB8SPNfnnhuf+Ui756TTpDRuvFuDc+5Sts3GLEdkbPyt82BzdCGWFz8MB7snTxo23Wr0eluh7XLcjEMTdJZdsgZNhkI+TH9wgbP+JgZoGw8SsezCacAMKGnQEBCGQj4AobH6UNwiZbFPkeAhCAQIUIqHQ50qWL7B47NpA0WptGOnSINZtChY0Ootk1WhjYyA+TGWPEjd4WpZ9iCRtzLOq0MROCm6FU4KxdvTy4MjxOhk2mY1VR0BA2sbZTxRshbCoegjYTQNj4FQ9mg7BhD0AAAvkRCBM2vkkbhE1+seUpCEAAAiUn0LO1VfaMGiWpY47JeaxChY3euKQflSXmY67OHjBoqOze+W7wXabrtKO+izoSpeOYujjX3DQnkDX9TxwSyBsVNgvnzwmmopk002+4pd1tUNkKIIdBRNjkvLUq8gDCpiLYIwdF2PgVD2aDsGEPQAAC+RGIEjY+SRuETX6x5SkIQAACXhPIVdjYN0TprU7PNS8KlSIqTp7496Z0keEwKWPLlWGnjpIbZs2Tbj16pnllEjbayNwKZT+bKcPGzF2f1RuubMmULUgIm2yE/PgeYeNHHMwsEDZ+xYPZIGzYAxCAQH4EMgkbX6QNwia/2PIUBCAAAa8J5CpsvF5MCSeHsCkh3CJ2jbApIswidIWwKQJEuig5AWrYlBwxA0Cg6glkEzY+SBuETdVvMxYAAQhAoD0BhE28XYGwicep0q0QNpWOQNvxETZ+xYPZhBNA2LAzIACBbATiCJtKSxuETbYo8j0EIACBKiSAsIkXNIRNPE6VboWwqXQEEDZ+RYDZxCGAsIlDiTYQqG8CcYVNJaUNwqa+9yirhwAEapQAwiZeYBE28ThVuhXCptIRQNj4FQFmE4cAwiYOJdpAoL4J5CJsKiVtEDb1vUdZPQQgUKMEEDbxAouwicep0q0QNpWOAMLGrwgwmzgEEDZxKNEGAvVNIFdhUwlpg7Cp7z3K6iEAgRolgLCJF1iETTxOlW6FsKl0BBA2fkWA2cQhgLCJQ4k2EKhvAvkIm3JLG4RNfe9RVg8BCNQoAYRNvMAibOJxqnQrhE2lI4Cw8SsCzCYOAYRNHEq0gUB9E9i6tXfeABKJozsHDNjXkEh8ZVPencR4EGETAxJNIAABCFQbAYRNvIghbOJxqnQrhE2lI4Cw8SsCzCYOAYRNHEq0gQAECiGQSFxecp9S8gFyBWD+paylqSnXR2kPAQhAAAIfE0DYxNsKCJt4nCrdCmFT6QggbPyKALOJQwBhE4cSbSAAgUIIIGwKocezEIAABOqYAMImXvARNvE4VboVwqbSEUDY+BUBZhOHQDGEzcaN2+X66x+WsWMHyS23XCRNTctkyJDeMmXKmNApmPbbtu2Vpqavy7hxJ8WZas5tDh78UG6/fbE89dTLWZ+dNeuiYL723LI+9HGDCy88I1h3ly7HyGOPvShz5ixusy57HmacuH2b/q6+eqLMmHF+3MfyamfWPnny6TmPZda4ZctumTdvmvTseVyapfZ3zjnDZf78Jenvsk3QrNu0c9dvvrd52pzD9tXu3Qdk5sxHZcaM84I9F7Ze7Vc/UXtXv3P3u8Y96pPPPN2+5s9/VhYsWCHZ9oDLLBPjqN87Hevtt/cF+1k/+vszYcKQjDyyxVK/R9jEoUQbCEAAAhBoR2D0jTdKpwMH5N9+9rR069ETQiEE9u/dLf/jys9JKpXa2dra2gdI/hJA2PgVmx+NGxdMqKWlxbtMbb9IMZtKEshV2JiXYvslzrxQ6ktg797HBfJGZUzYC2ZcIZLt5TQOszCJ4D63evWfpbHxQYkSKWa+c+ZcKiNHDgxeYPVjBI3dnxECgwb1bPO94aNtR436ZGxpoe19EDZhIsCsY+nS1wNBFfaZNi0py5ZtEBU2/fp1kwceWBU0u+++y2XYsL7ptYU968b/jTd2SM+eXQMRZOK6Zs2WdF/aRzaRovH5wQ+ek0cfbQ325mWXnRnsVSOoTJyyxSjbOGY9+czT3itx9ri2MfIlTBa6fdi/q64oteOsfW7Zsisd20LFKsImbjRpBwEIQAACbQic+t3vyvFvvCGN//ivctZnvgidEAIvPPef0vS//kmFzcrW1taJQPKXAMLGr9ggbPyKB7MJJ5CrsLFf6vSlVzMnVHhk+pgMlHXrtrZp60oS8zI5YECPNi/i+cYunwybXJ4x8zIvs2b+3/rW5wI5oSJAM41UaKgEuOqq8fKd7zyWk7Qph7DJtGaNsVmDrtNIKzuTRjlky7DR7KCtW/fIwIEnpMMZRzC4sY/KItGsnsWLX26XTRW2lzROq1dvDjJtZs16IoiTK28y7bk4wqYY89Q5mLnq+jZs2B78/kTJk0IybMyzdraYjm8k5Nq1bxWUDYewyfdvMZ6DAAQgUOcEPvGb38ighx+WHj37yLRrZ8rpYyfKCb361jmVj5a/Z9d2eWXNCnn0/nmyd/cO/dFNLS0t9wDHXwIIG79ig7DxKx7MpjjCxrzE6Yvu2WcPk7vuejro2Lzo6T9rFor7Qm+/5N588+dl7tzfBC/X+kKtIsP0ky3TpW/fbrEzVPLJsHGf2bXrQJCFEZZhYwSUvkDrR1+mbcGhfJ5/fmMbQRN1HMzNPHIzWEzGSZhccV+yo/qyjylpBpR+7GwS81xj4zkyevSJ6eyTKGEzZ84lMmvWr0Rf5nP5mLUUImzMPrGPC7nHhvS75uZXAvn30ktvRmYChc3diJ6dOw9kFZL2827ccp2nZh7pR9msXLlJunU7Vl599e1gzxtho0JQ5dTs2ZcEmUrmE4enm2Fj76eorLZCjvSZuSFscvkNoS0EIAABCKQJJI4ckdNvu026vP02VDIQSKVSL3fo0GHs6tWrPwSUvwQQNn7FBmHjVzyYTfGEjelp2bL18q//+p/B8adMH/dF0H4B1BfjPn2OF5Uf+okSNuboUrbjKvY8csmWMePmK2zso2A6B12zflQiRH3MWsyLeKYXf8PQzniw25vvw46cmXGMfLLjZfO0j4fFETamVo3OI+yoTdQRMVcwxP3dtI/puCJEpdW+fQflppsuSEsMW9jYYsOsM2xcV36ZtvYeDsuwMWvVPpWLOSqW6zw1A8nUXTKZWkZSmn1yxx1TZPv2/YHk1Hk1Np4bu1aTveYrrzxLduw4EKvGk/1crnWY9FmETdxdTjsIQAACEGhHIHHokHzyscekx9q10nnHDul46BCUPiKwN5VKbU4kEovfeeedWVu2bHkfMH4TQNj4FR+EjV/xYDbhBHI9EqW9qNTQwsLTp38kJbSQq6nbon8Oy7DRn5uXWn3ZNHVMzKxcuVJozYx8452L5DFjmLlG1SzJNJeoDAeVYSpTzIt/VPaDKwrMS70rHnQORj6EfWd/b9ciso91hR2JWrhwRaSU0ho2+/d/ECzfFKPWfzbFk+NkhLjs3CK+tijStosWrWlTMNfUudHvTG0lV2CZGja2DHOP8RVL2JhsrLB5fu97U+X//J+VaV5azDjTkSg7I0qLJLuCKqqoslsU2zCOOuqVqe5N3N8zhE1cUrSDAAQgAIGyExj4+OOi/xGR2S0tLbeVfQIMWDcEEDZ+hRph41c8mE04gXyEjS0J9FjGrbf+KquwyZTVEBWbXLJp3D7yGS+s3kmceiVmbDsbo6FhsHTt2jmokRKWgWTG6tXruEB4hUks7Teshk1YYdqoLBp7TW72jbteW6CYjKFswkaPWUVlstjZSmH1e8x4UfVn7JiarI6oOi2adaJ1g/R4lp114hYmtvuMcytWoRk27r7MZ55x/+7KpWBxmBCNEnoIm7gRcNqZfylraWrKswcegwAEIACBchBA2JSDMmMoAYSNX/sAYeNXPJhN8YSN/RKrWTYqHDLVMXGP8+hMzHEafQFvalqezrgJe0EuJHamv7g36eRSuNXMS8WHyY4wV4irQLGL2tpXctuCQ/vQzA/9uFlHYcLGzTBxM2zC6tTElTZh88ombMwxK3N1t1sUN9MNWeY7I2zcuke6fvcWr0wZNvaxNLfPTJlAUfvLrk0Udw9mq2Hj3qQWtva4N6mFFe02NXv0CFiuGTZhcjDbVelxuZBhE5cU7SAAAQhAoOwEEDZlR163AyJs/Ao9wsaveDCb4gkb+/9xHz68b85HouIUqS3Gtd66YjPXbBkabjZP1PGmqGNd9nEaM1ZUBoctRuyaJfaao45EuevJVtvHbW/vAvu7yZPPaHNlud7opCJJCxDrxxyjcW+JCqu/Y8ZQDuZZ/W/NLlmy5HXRotP6MZlFc+f+tfzsZ6vaFarOVdjoNdUqHTZt2hnc+vSTn/wutE/tN1NhZptRoRk2bg0bWxxmmmeYiLPnHVZ8u5AjUVFiBmFTwP9ykGFTADwehQAEIFBGAgibMsKu86EQNn5tAISNX/FgNsURNu6LpHnxzqWGjT6Ta4ZNtvorYauzj0XlejNRtkybOFcr29d7R2XYaCZE2FhRt0S5x15UoOzY8Z64hWltHpluPDLfaXsjaLQeil0fxZYupt+w42puNpO2tW9xMtlYU6eOkUGDegW3L2mtGHNrWKEZNipszCfTDWGuXDPri6rt4+6tOMfkMmUCxZ2nGcfE1mQz6XzcbKyoYtRRf++5a426Pj6fukxhY5Jhw/8CQQACEICAtwQQNt6GpuYmhrDxK6QIG7/iwWyKI2zcjIM4L4rm5d7InXwybLJlkrirs+dlixP7imr7xTlqf2SqhWNLm0yZGJlq2Jjbi9xxzAt1c/PLQXZL2C1RytXUEDISzM14sY9DuWPY3+kL+6JFL6ZFmn0UyQiNXIsO20ztI2L/+I9fkPvvfz44RqcZKCa7xxwnC4tFtgwpV6BF3VBlC6+w+IXVMSpE2LjPxp2neS5uJlAYszg1evQ5I2vChFVUpk+uf58ibHIlRnsIQAACECgbAYRN2VDX/UAIG7+2AMLGr3gwm+IIG/OCpxkSKjyyXd1sjxrn5a9YNWzeeGOHPPPMa8EtRSa7JVtRVpUKd945Re69d2mbq47DjmfZWTFR2TZxjkTZ101Xao+aLIoJE4akM190Lm6WT5iw0Zo55uNm2Chv/ejxJHNDk5EC+vO7735GrrhinJhjYYVm2JjjebYQNLExsc8mZHKJ69ixg4IbqfQ2J/eTKcMmap7muJkrrtxbyNzvVUg+9dQrGetIhe0t3ddGYNr1cMIkbD5XedtjImwq9dvNuBCAAAQgkJUAwiYrIhoUiYDvwuat1avlz8uXy6dnzEivOOxn5kv97vHGxqx0PjFqlFw0b5506dkza9tyNkDYlJM2Y+VLIJ9bovIdi+cgAIH6JFCXwiaZTO5IJBK9X/ze9+RI9+71GXlWDQEIQKAKCAx68EH5xJIlkkqlZrS2tt5bBVNmilVKwHdh8/v58wOyLy5YkJHwiAsvlEm33CLvrFvXRvAcPnhQnr/7bhl1xRXSa9iwoI+Du3fL8rlz5Zybb0bYVOm+ZdqVJYCwqSx/RodAPRCoS2HT0NDwexGZ+KfGRtl91ln1EGfWCAEIQKAqCZw+a5Z03bZN535hS0tLc1UugklXBQGfhU2UWMmWYWNn5CBsqmIbMskqI4CwqbKAMV0IVCGBehU2N+rRvw979JAt06bJvjPOkMM9elRh+JgyBCAAgdokcNymTdK/uVl6vfCCLnDbO++8c/KWLVver83VsiofCPgsbIyYOauxUZbefrusf+qpUGT28SaORPmwq5hDrRNA2NR6hFkfBCpPoC6FjWJPJpOvJRKJT1U+BMwAAhCAAAQyEUilUl9vbW39dyhBoJQEfBU2mhmjkub4/v1FhY19rMnOsNF2LzQ1ydjp04PjTW72DRk2pdw99F2vBKpV2JjCqNu37293xXG9xpJ1Q8BXAnUrbAYNGtT1E5/4xJxUKnVxIpEYLCIUs/F1lzIvCECg7gikUqktiUTi9VQq9f+0trY+X3cAWHDZCfgqbF597DHZ8OtfS59PfSpU2OzdskVOmzJFEDZl3zIMCAEpRNhkunXpuus+K0uXrm9zc02mG3rMTUVhNwWFhcncwNS3b7f0VdS5hNPcaBR2lbHbjxnFNVuwAAAgAElEQVSrsfEcmTTpFJk589HIG3mibozKZW7aVse89dZfBdd2m5uk7NucpkwZ06bLONer6wNuDKK4mzXrM/fdd3l6DrmuI1v7OONEXa1u1tKr13FBTAYN6tnu1iZ9dv78Je32iBk3001PZn/bMbX3ghuDbGvN9H2cG9TCns907bzbPmwdYVfO289lu1Ur7prrVtjEBUQ7CEAAAhCAAARqn4CvwuYPDz0kx/XpI+++8kogbDgSVft7kRVWD4FChI1ZpV5hvGnTzuCPek1w2Iusvvw2N78S+fIfR9hku5Y7jHrYldzaLpcXZHNFs7nm2r7K2owZ9nKf7y4wLPT6ZvuF2V6/K4ayXa9u+lyzZkubGJgX/kzXOkcxzHd95jl7nfqzKHlmpMudd35Z7r13SfD4lVeOlzvu+M9AaBlhc8IJXYLv9uw5GAgavW779tsXp69oDxMWUcLG5tmt27Hy6KOtGZdb6LXXUQIpbM/be8KNX9jvkdm/YeufPPn09LX37gKz/c7mEn+ETS60aAsBCEAAAhCAQE0S8FXYKGz36JNm07jHntwMG83M0Y9m3+iHI1E1uW1ZVIUJVELYmBfstWvfirV6V5Tkml1jXlhjDfZxI30BHzSolzQ2PigqLPTzwgt/lu9854tyxhkD23VVDGETN0vGDG6/uOcjbGxpNWnSCPn+938biI7Fi18OJIdZ94IFK4J/njHj/FwQZm1r4nLOOScHbZcv/5OEiQ+VErNmPSF9+hwv69ZtlZEjB0qPHl1k796DbYSNZtioyLn55l+IZkMZcWiE4le/2iADB54QjJUtwyZMZNnP2f1nXWiGBq60spsa/rbodCVKocKGDJtCosezEIAABCAAAQhAIAcC1SJsdm3cKE9ef72cP2eO6HEo/RgpYy9XhU2PQYPkk+PGBT9G2OSwGWgKgZgEChE2mY5juBkg9oumETY6RRUEmrESJhyism5ylSNGDMTJgrDb2sImm6zIdU7ZwhM250xZQXFlT1jGjpE0mn1jpIgtaOJkGGVbj/u926d+b46auXvHCJu5c/9afvazVaLH5q66arzcc8+zcu65w0OzX7LFOpOwcbORdu48EIi7qE+cY3XZ+NhZMNrWFoVxhE22/vV7MmziUKINBCAAAQhAAAIQKBGBahE2uny95nvxzJkBiYvmzQuybexPmJxB2JRo49BtXRMoVNhofRDNzti//4OAox4f0do13/jGX6UzNQxgt+aILWzCXqDDhI3d7oYbzpNvf/uXkfVkzHgvvfSmzJmzOJ29oS/HK1duCuqd6BgqCqZOHRNkZEQJm8suO1Ouv/5hcTMSTPbPwoUrRDNRilXDJl9hE1bHJfg79+CHwfEg+0iUm3l0xx1T5IEHVkXy1H6KkWkTJYBs6WRzzFbDRuelsdGPXW/HPk7kChzTZ9gxN/Od2T9G2LixNUx1XN1LegQr348tNM14Omc9ahhH2Jj15XokigybfCPGcxCAAAQgAAEIQCBHAtUkbH4/f75saG6WrlrbZt06GXHhhTLpllukU5ePahBoFs7ahx6Ss2+6Kf0zhE2OG4LmEIhBoBjCRiVB//4f3X3iCpuwl9mwTBH3JVkL7Ya9fJqX8KisBvul331Jt4+f3HrrxTJhwlDp0qWTHDx4OBA/7o1TZk4qKYywsWt+6FxWr94cZAlVo7DR2GQ7GhRjC+XUxI2fEWZG3tl1Z1w5FCVIzBpUPoRl52i2SpSwiSrCbNcPKnWGjfv7sHTp62nBWCphk1PQitCYGjZFgEgXEIAABCAAAQhUN4FqEDZK+MUFC+Sypqb0USf9mda4ebyxMQjAmKuvlp5DhrQ5DqU/t4XN2y+9JEvnzEm3//SMGd4F70cfH+VqaWlJeDc5JgSBjwkUKmzMURF9Ud6yZVfwomlevrUWShxh4xaH1Wf0BXvy5DOCrBBzc5R5kdXvw4RNpqu+49wKZQsaPQIVJmxKmWGTT1Flw8GIj1wybJSjGVOl0/vvfygHDhxKx9D9JTFjNTUtC7KJcvnY9XBsqRJ1zMtmr4Wszb5yx9S+9GP2YZSYcX9uZxe53xkm5cqwMcLJyED7eN3y5RtiZdjEiYXhXsg+yzeLCGETJ0K0gQAEIAABCECgpgn4LGxqGnzE4hA29Rj16ltzocJGi8HOmXNpUAhWX+bMy+c//dMXgyNRcYTNhg3b0zU7pk+fmK5lYorRmlt/Fi1aI2PGDAquaTY3Ammh2kwflQxal+XFF98Mrn3WzIlMn2nTksHxLs0YOuec4el5lTvDJqwmTrFr2NiZKcpEpYqRI2FSJUoGFbLrc7mtKyrDxmQ6mUwvu96QXZRX56l1iXSvmuNhujcGD+7V5kjTyy9vlccee0mWLdsQHLEqZ4aN3nql17nrx2RuZToS5bKPc9uaecbOEDPS1MjRsJvQCokzwqYQejwLAQhAAAIQgEBNEEDY+BVGhI1f8WA24QQKFTZRxVhNIVsjbOxaMZMmnRJIGf3MmHFecAOQfb2ytr377mdkypTR6SKzmYoTm5XlUlw4jigod4aNWUdUplAcYZNLhk3YMbSwK6Cz3UBVyO9WnDhkygi57rrPBjWTxo0bHAg23Ut2HRu7/o1mzKhI7Nq1cyDiNLNGP01Ny9tdNx9WU6aUNWzc26LMcTD3Vij7z6Y2Uy78TTaRu8f09iz7CnS7z2LULULY5BIl2kIAAhCAAAQgUJMEEDZ+hRVh41c8mE1phI37ghyVYWOEjb5Y21k0Oquwwq/687BsgUzyoBzCxq5hYxMNy4gJkx9x9mFUnZ5iCxubsWYeaRzM9d4+ZdjonjJZJ+edd0pQOFkznvSa9aFDeweFklXSmNvHdI+ZLBtXSpk2RmwpAxUVRiyaIz9hwiYqdu7xvELj/pFE+rqMG3dScGQtToZN1PXgbo0eswZbgulYJuuIDJs4v6G0gQAEIAABCEAAAnkQQNjkAa2EjyBsSgiXrotGoFwZNlu37glu8mlsPEfsDBuTORO2oDBBUSlhE+dab/vFOpejKfba7doqbkZHsYVNJskUFo9iXF/t9hsnw0alix6Hu+iiM4JjdlrY+owzBgQ3KGktHfcKcjtjxpYnw4f3DTK73OLSYYWX882wySfutmxRxrq+Rx9tDaSN1rBx6wXZEsY+1qbP3nzz52Xu3N+k6z6ZYtjK3a3JYws6kxGHsCnaX610BAEIQAACEIAABNoSQNj4tSMQNn7Fg9mEEyhU2ERl2GhdG7sIsf3CaLIc9GdhwsY9ApMp28Nk7qxd+1awwLBsnXyKrKoEsGvYhAkbt1+7eK0REXa2R7Y9qGtZt25rICcmTBgSXDNuf8LkRlRmRbaxouSLb0eizPqUx+jRJwZH5TS7RrNqrrpqvCxZ8nqb+jOmvdYg0phpjLQuj7J0s1VsRmGFf1XAnXvu8ECeZPu4xZ9ziXuYOLPr8thXsYcdibKFVZQwMnHVtg0NgwPxNXXq2CCLx75ZLWqdhR6L4khUth3E9xCAAAQgAAEI1DwBhI1fIUbY+BUPZlN8YQPTaALmKI6bJQOz2iZA3MPji7Cp7X3P6iAAAQhAAAIQiEEAYRMDUhmbIGzKCJuh8iZQSIZN3oPyIAQgUFcEEDZ1FW4WCwEIQAACEIBAGAGEjV/7AmHjVzyYTTgBhA07AwIQKDUBhE2pCdM/BCAAAQhAAALeE0DY+BUihI1f8WA2CBv2AAQgUBkCCJvKcGdUCEAAAhCAAAQ8IoCw8SgYIoKw8SsezAZhwx6AAAQqQwBhUxnujAoBCEAAAhCAgEcEEDYeBQNh41cwmE0kAY5ElX9zmFuB7Ful8plFptt9TN9RNyOZZ2fMOC+4Kch8zC1D9s1E7txMYd2w24m07S23XCRduhzTbklRfZsbmvTWp7VrtwbPmT5yuQXL5Wlfea19FnrTUT4x4pmPCCBs2AkQgAAEIAABCNQ9AYSNX1uADBu/4sFswgkgbMq/M/IRNra4MDdP2dJFr1Bvalouc+f+tfzsZ6vS14IbYWOupzbPmmueXZERR9iYPlWw3HXX0xkB6nXXl146Sq6//uHQdipR9Jpu/X7y5NNl6NA+Mnv2k2LkS9Q11XZnRiDZwsaVNaZ9oZKs/LulNkZE2NRGHFkFBCAAAQhAAAIFEEDYFACvBI8ibEoAlS6LTgBhU3SkJenQzqZxhU337sfK889vlAEDesiwYX1k796D8pWvjJUpU8aIkStG5OjkTPaKSo27735GbrrpAhk48IQgKyabsDHzGDSoZ5tMGvOc3X9cEEauNDaeE8zZ/uSbYWOkmMmqMVJn1KhPyrx506Rnz+PiTo92RSCAsCkCRLqAAAQgAAEIQKC6CSBs/IofwsaveDCbcAIIm/LvDDfDxv6zzmbOnMXBpIxsCMsWUfEwZ84lMmvWr2Tq1I8khz53xx1T5IEHVslpp/WXZcs2yLZte9ssUDNeoo4sacNswsZk5mimyqRJp8jMmY/K2rVvhUJUgXTffZfLsGF9A3G0YMGKNu10DZMmjZDvf/+37Z43YkUl0u23L5YtW3ZHihY3wyZTNpLO1Qiv8ke+fkdE2NRv7Fk5BCAAAQhAAAIfE0DY+LUVEDZ+xYPZIGx82QNRwubss4cFmTL2R+VC797HBUeGbPliC5swYaJCZfLkMwLZ8dRTL6ePGGnfRnDoP7sCJyyTx8zH/s4WNuPGDZYZM85vM28VO3pEyxY2b7+9Ly2LlMHq1ZsDCbNhw3ZpbHywzRxNZ/lk2Jh5bt++Pz1+mMTxZT/UwzwQNvUQZdYIAQhAAAIQgEBGAggbvzYIwsaveDAbhI0veyBK2JisEp2nyVwxNVcyiRRt7woS/ZktKdyCu1FHm1wpYx9Rsuve5JNhk4+wySdmJiNJnzXCCGGTD8niPYOwKR5LeoIABCAAAQhAoEoJIGz8ChzCxq94MBuEjS97INORKCNI3DZhwiaqsK6uUwXN9OkT0+InKpPGrUVj9+k+Y2fm5JNhE3YkSjNsli59PX0MzB7THi9u7PQY1ne/+yX5t397RsiwiUut9O0QNqVnzAgQgAAEIAABCHhOAGHjV4AQNn7Fg9kgbHzZA8USNvZ6wjJs7Ou3zfEjU2zXzrC58srx8vvfb5Rrr/2rIFNHa+Ho8ayNG3ekM1R0LD2StXLlG+lbnHKpYWPmavo3dWTsmjl9+hwvgwf3aldjx6zDveEqqhZNpgLNtsTxZT/UwzwQNvUQZdYIAQhAAAIQgEBGAggbvzYIwsaveDAbhI0ve6BYwiZTBopmqnTrdqy8+urbMnv2JXLrrR8VJzYZPLbUUC7XXfdZufjiUfLtb/9SNOtGJc7NN/9C3Jub7AK/RtjErWHT3PyKmOvFdUzNhrnxxvPlnnueleHD+wbh6d69i4waNTAonOwWLDbHw+yjWXZM7RuguCXKl93+0TwQNn7Fg9lAAAIQgAAEIFABAgibCkDPMCTCxq94MBuEjS97IB9h4xbfVTlx551T5N57l8qePe/LCSd0DQTN0KG95Y03dspZZ50UiBAjXOwiv5plE1arxlwBbkRJpqydXGrY9Op1XHA0S0WQypi77no6KDa8ePHLQUFk/XzrW5+TtWu3Bv+sbZ566pU2BYn156YOj5ulExbXKJllpI8ve6Fe5oGwqZdIs04IQAACEIAABCIJIGz82hwIG7/iwWwQNr7sgXyEjc7dri9jbon63veelquv/rQsWPD74BiTSo+LLjojECR2xol51ggc8+fJk08Pbnhy56TjhV3xnU+Gzc6dB9K3QGm/euRKjzNt2bIr+GfNBrr55s/L3Lm/SQsbXccNN5wXZPzoLVgqdDTrRuc7ZEjvdB/jxp0UGVZX2iBrKvcbgLCpHHtGhgAEIAABCEDAEwIIG08C8fE0EDZ+xYPZIGxqbQ9opsnKlZvSsuO8804JpMZVV42Xxx//g9x00wUybNhHR430o+0XLXoxnbmyaNGaoF7MunVbs16rvWXL7jYZL9OmJWXZsg1trhoP46vHnjRjZ+DAE9JXjBuRtGvXAXnoodVyxRXjgnkaaaT9qFwZM2aQPPPMa7J//wfpa8PtNmHj2ZKq1uJdzetB2FRz9Jg7BCAAAQhAAAJFIYCwKQrGonWCsCkaSjoqIYFU6uFUCbunawhAAALUsGEPQAACEIAABCAAgYaGhg9FpNM3VqyQDp06AaSCBI4ePiw/njhRZ3C4paXlmApOhaEhkJEAwoYNAgEIlJoAGTalJkz/EIAABCAAAQh4TyCZTL6eSCRGXP7II9Lr5JO9n28tT3DXxo3y8LRpkkql1re2tp5Sy2tlbdVNAGFT3fFj9hCoBgIIm2qIEnOEAAQgAAEIQKCkBJLJ5JOJROKiUy6+WM677Tbp0LFjScej83ACR48ckSW33SavP/mkCpvFra2tF8MKAr4SQNj4GhnmBYHaIYCwqZ1YshIIQAACEIAABPIkMGbMmC927NixWR/vMXiwnDh+vBzX9y8FJ/PslsdyIHBg+3Z5c9Uq2bt5c/BUKpX6fGtr69M5dEFTCJSVAMKmrLgZDAJ1SQBhU5dhZ9EQgAAEIAABCLgEksnktYlE4h4R6Q6dihLYl0qlbmxtbb2/orNgcAhkIYCwYYtAAAKlJoCwKTVh+ocABCAAAQhAoGoIjBw5ckDnzp3PTaVSQzt06NCtaib+l4ne+vE/zq7Cue9JpVKbDx06tGzdunXbqnD+TLnOCCBs6izgLBcCFSCAsKkAdIaEAAQgAAEIQAACpSBgridvaWlJlKJ/+oQABP5CAGHDboAABEpNAGFTasL0DwEIQAACEIAABMpEAGFTJtAMA4GgztLDKUBAAAIQKCUBhE0p6dI3BCAAAQhAAAIQKCMBhE0ZYTNU3RNA2NT9FgAABEpOAGFTcsQMAAEIQAACEIAABMpDAGFTHs6MAgElgLBhH0AAAqUmgLApNWH6hwAEIAABCEAAAmUigLApE2iGgQDChj0AAQiUgQDCpgyQGQICEIAABCAAAQiUgwDCphyUGQMCHxEgw4adAAEIlJoAwqbUhOkfAhCAAAQgAAEIlIkAwqZMoBkGAggb9gAEIFAGAgibMkBmCAhAAAIQgAAEIFAOAgibclBmDAh8RIAMG3YCBCBQagIIm1ITpn8IQAACEIAABCBQJgIImzKBZhgIQAACEIBAjRBI1Mg6WAYEIAABCEAAAhDwmgDCxuvwMDkIQAACEICAdwQQNt6FhAlBAAIQgAAEIFCLBBA2tRhV1gQBCEAAAhAoHQGETenY0jMEIAABCEAAAhBIE0DYsBkgAAEIQAACEMiFAMImF1q0hQAEIAABCEAAAnkSQNjkCY7HIAABCEAAAnVKAGFTp4Fn2RCAAAQgAAEIlJcAwqa8vBkNAhCAAAQgUO0EEDbVHkHmDwEIQAACEICAVwQGDRrUtV+/fjeLyEki0slMLpFIXK3/nEqlFpifHTly5K6XXnpprVcLYDIQgAAEIAABCHhBAGHjRRiYBAQgAAEIQAACtUSgoaHhCRG5JJVKSSIR/a9bqVRqSWtr6/m1tHbWAgEIQAACEIBAcQggbIrDkV4gAAEIQAACEIBAmkAymfxaIpF4MAaSf2xpaZkbox1NIAABCEAAAhCoMwIImzoLOMuFAAQgAAEIQKD0BIYOHdqld+/eu1KpVJewDBuTeXP48OEzORJV+ngwAgQgAAEIQKAaCSBsqjFqzBkCEIAABCAAAe8JJJPJhYlE4m/diRpZk0ql3mxtbR3k/UKYIAQgAAEIQAACFSGAsKkIdgaFAAQgAAEIQKDWCYwZM+aLHTt2bM5Qx+bHLS0tjbXOgfVBAAIQgAAEIJAfAYRNftx4CgIQgAAEIAABCGQj0DGZTL6VSCQ+YTe0BM7UlpaWX2TrhO8hAAEIQAACEKhPAgib+ow7q4YABCAAAQhAoAwEGhoa7haRG0OybI4kEokeq1evPlCGaTAEBCAAAQhAAAJVSABhU4VBY8oQgAAEIAABCFQHgWQyeVYikVgVImyebWlpuaA6VsEsIQABCEAAAhCoBAGETSWoMyYEIAABCEAAAnVDoKGhYYOInOwsmOu862YHsFAIQAACEIBAfgQQNvlx4ykIQAACEIAABCAQi0AymbwlkUjM0cZc5x0LGY0gAAEIQAACEBARhA3bAAIQgAAEIAABCJSQwOjRowd16tRpsxmC67xLCJuuIfAxgVTqkfOAAQEIQCATgY0be71y8smff9tnSggbn6PD3CAAAQhAAAIQqAkCyWTyd4lE4uyPF8N13jURVRbhM4FU6uGUz/NjbhCAQOUJrFs3eF+XLkdHjBhxzjuVn034DBA2vkaGeUEAAhCAAAQgUDMExo4d+987dOjw/Y8XxHXeNRNZFuIrAYSNr5FhXhDwh0BLy3A59thDXksbhI0/+4WZQAACEIAABCBQowTOPPPMXsccc8xOXV4ikTie67xrNNAsyxsCCBtvQsFEIOAtARU2+vFZ2iBsvN0+TAwCEIAABCAAAZvAyJEjB3Tu3PncVCo1tEOHDt2qkM6tH895dhXOfU8qldp86NChZevWrdtWhfNnynVGAGFTZwFnuRDIg4ARNj5LG4RNHoHlEQhAAAIQgAAEyksgmUxem0gk7hGR7uUdmdEcAvtSqdSNra2t90MGAj4TQNj4HB3mBgE/CNjCxldpg7DxY68wCwhAAAIQgAAEIggkk0kt1rs8kUgkegzuJyeOP02O63tC1fE6eviIHHrvoHQ54fiqm/uB7XvkzVWvyt7N7+rV5FrMdUJra+sLVbcQJlw3BBA2dRNqFgqBvAm4wsZHaYOwyTu8PAgBCEAAAhCAQDkINDQ0PCEil5xy8UQ577ZrpEPHDuUYljEcAkePHJUlt/1UXn9yhUqbJ1tbWy8BEgR8JYCw8TUyzAsC/hAIEza+SRuEjT/7hZlAAAIQgAAEIBBCoKGhYb2IDL/8kdnS6+SBMKoggV0bt8rD04JSPBtaWlpGVHAqDA2BjAQQNmwQCEAgG4EoYeOTtEHYZIsi30MAAhCAAAQgUFECDQ0Nh0Wk4zdW/pDsmopGQkSPdf144t/rLI60tLR0qvB0GB4CkQQQNmwOCEAgG4FMwsYXaYOwyRZFvocABCAAAQhAoKIEGhoatGaKfHN1U0XnweAfEfjRuMbgv1taWvj3SDaFtwQQNt6GholBwBsC2YSND9KG/6H1ZrswEQhAAAIQgAAEwgggbPzaFwgbv+LBbMIJIGzYGRCAQDYCcYRNpaUNwiZbFPkeAhCAAAQgAIGKEkDYVBR/u8ERNn7Fg9kgbNgDEIBAfgTiCptKShuETX6x5SkIQAACEIAABMpEAGFTJtAxh0HYxARFs4oSIMOmovgZHAJVQSAXYVMpaYOwqYqtxCQhAAEIQAAC9UsAYeNX7BE2fsWD2YQTQNiwMyAAgWwEchU2lZA2CJtsUeR7CEAAAhCAAAQqSgBhU1H87QZH2PgVD2aDsGEPQAAC+RHIR9iUW9ogbPKLLU9BAAIQgAAEIFAmAgibMoGOOQzCJiYomlWUABk2FcXP4BCoCgJ//OMn855n586HNw0deuDUROLiD/LuJMaDCJsYkGgCAQhAAAIQgEDlCCBsKsc+bGSEjV/xYDbhBBA27AwIQKDUBBKJy0vuU0o+QKkh0T8EIAABCEAAArVNAGHjV3wRNn7Fg9kgbNgDEIBAZQggbCrDnVEhAAEIQAACEPCIAMLGo2CICMLGr3gwG4QNewACEKgMAYRNZbgzKgQgAAEIQAACHhFA2HgUDISNX8FgNpEEOBLF5oAABEpNAGFTasL0DwEIQAACEICA9wQQNn6FiAwbv+LBbMIJIGzYGRCAQKkJIGxKTZj+IQABCEAAAhDwngDCxq8QIWz8igezQdiwByAAgcoQQNhUhjujQgACEIAABCDgEQGEjUfB4EiUX8FgNpEEyLBhc0AAAqUmgLApNWH6hwAEIAABCEDAewIIG79CRIaNX/FgNuEEEDbsDAhAoNQEEDalJkz/EIAABCAAAQh4TwBh41eIEDZ+xYPZIGzYAxCAQGUIIGwqw51RIQABCEAAAhDwiADCxqNgcCTKr2Awm0gCZNiwOSAAgVITQNiUmjD9QwACEIAABCDgPQGEjV8hIsPGr3gwm3ACCBt2BgQgUGoCCJtSE6Z/CEAAAhCAAAS8J4Cw8StECBu/4sFsSiNsDh78UG6/fXHQ+S23XCRduhwju3cfkJkzH5W1a99qN2hT09dl3LiT0m0GDeqZfs5t/NhjL8qcOR/1bZ4rVhw3btwu11//sGzbtjey79Wr/yyNjQ+2GfKOO6bIAw+sCl3bgAE95L77Lpdhw/q2m6ZZy9VXT5QZM86PXIY9r0xrdccyc5016yKZNOmUSP7a54UXnpFmbuK3ZctumTdvmvTseVwwrPn5mjVbQteUKcb2vO15ZlrbqFGfTI9vWOlapkwZE3Rn74Vse8DuS9uauY4bN7gN+7C9a/o2PO19Z35m83PnomPNmvWE3HTTBcE+CFtLtvnbc9Z/tuPiPmuYNjaek2albTLNtZA4xJl7WBuETb7keA4CEIAABCAAgZohgLDxK5QIG7/iwWzCCRSaYeO+SJsX9IEDTwhEjhEBS5e+HsiXKGGzdeuetEAxM7Vf9vV77TOfT5h4ydaPzlM/KmxUHGzatFOam1+JFDLZ+stV2EyefHqk2Jk//9l2cwkTNirDbr758zJ37m+C6d1ww3ny7W//UmxJFsZGud944/lyzz3PBkLL/hjhZCRIlFDIJnxMn2H9ZBI2tkBxObh9bdiwvZ1w03F1DfpZsGBFu7CZ/l1hE0dCameuZFy+fEMwji2f3EFzkVHmWdNflLDJFh93DnHjkG2fR32PsMmXHM9BAAIQgAAEIFAzBBA2foUSYeNXPJhNOIFChE2UJNBMm3XrtgYvy9dd91n5+tfHS3Pzy9LUtDwtPMwLopEHRthkEhX5xtCep8nYiOrLvDzbwggQA/cAACAASURBVOZb3/qcrF27NXjEZBHlOpdchY0rStzxbJml4sKWD5oBoqIsm7CxmZ9zzvAgXiozGhvPTcu2q64aL9/5zmPtspCyCQEfhI3JFso1w8blqRkuixe/nJaP2m+mDBaN9cqVm+S//te/kscf/0MQm1wzxLLxNfvBFjbZMqv0mah5IGxy/Y2mPQQgAAEIQAACEMiRAMImR2Albo6wKTFgui8KgUKEjfti605IX/4vu+zMdOaMyc5wn7MzOuIIm7jyw8zHFjYfvbT+RRy5WRphwkal09Kl62Xq1DFtjp3kEoC4czYv4OXIsGlqWhYswRzR0jkuWvSiqKTR7Bo93mUypVxZlc+RKCNxnnrq5XboSnEkauHCFaFZNNOmJWX//g8kbB4mc8XOsDFZMlHxNnM3WWRx94Ut3XLJAjPSxc3M0d+v6dMnBsfh9GOOUpnfN/NcIXGIuza3HRk2+ZLjOQhAAAIQgAAEaoYAwsavUCJs/IoHswknUIiwMS/t+oKvdV2+8Y2/CjIR+vfvnrFOi87EzVDIJcPGvIBmqwcTtmIdp2vXY4KXWs1A6dbtWFm2bEPoUSczx7PPHiYbN+4I2rz00pvpujph/UfNKdOxF7smSjFr2GTLsNF6Q3YsorIvwo5g5fP7FFUvx+2rWEeiTIaNLQhNfFxp4R5ZsoXN8OF9g/2iNXBM9pERWCq9Vq/eHFpnxvx+bN++v83+CuMQJwvMlolaB0o/YUeizHp1TaNHnxgI0759u6XnWEgc8om7PoOwyZccz0EAAhCAAAQgUDMEEDZ+hRJh41c8mE15hc2QIb2DbI0ZM84LirDaRVHD/h9+zXpQcRJ1FChTode4sY3KNHAL7pr+zEv0yJEDZceO98TNeonzkm36ipthE3ctbjs7Q8NkBIUVfdbnbJb2URhz/CnTHL7whdOCr3/961dzmqqOaWro6IOZCukWS9iokNI6SqZwcq9exwXi5cILTw+OuJmf63xUaowdOyh95K0YwsbIFFuW6Fhhx4/yybBxhY3+2RTpjgpOoXHIKehWY4RNvuR4DgIQgAAEIACBmiGAsPErlAgbv+LBbEonbFwxYARHmHwxtWHmzXs2kCDmJdnNsMlFhsSJrUoi/Y8pRBt1fMTuy56DXXRY65JoVoURHHGOTMURNtmOmIWtU1/A+/Q5Xn72s1XB1/YtUZlu4DJ9mTEzCbGoDBtXgGWLQ9y6LMW6JSrqSFSmeZoMHFugmJvBcs2wMXzM74PZ67oPTYaXqYkUZ79nyrDR37W4BaELiUO2GEd9j7DJlxzPQQACEIAABCBQMwQQNn6FEmHjVzyYTfGFjckg0BuF7CNR+/YdlO7duwRFV/Wj2Qt2ho2+yJ5++oDgmaiiw3FeYOPGNB8Roi+/phCvSpBBg3oFRXnNy7vO+6KLzghevLXt+vXvBmuOKkocR9jYEsUcszFZIlFZQOaZTAWgzdEnl5ctJYywceva6DNhwiZTHRR7nGJf653LLVF6JCpbTSC3OLKp2RNW3ybTfnOFl320TfeMHou6666nRXnMmXOpzJ+/JOttXVHjGQb2vtY9qp9sGTZuXSl3jGy1hOL+zrntEDb5kuM5CEAAAhCAAARqhoDPwubg7v2yfO5Dcs7NV0iXnt1yYv7qY8ukx6B+8slxpwbP6Z/N582Vr8qkW6ZLpy6dc+qzHI0RNuWgzBiFEiikhk2UsLFr2ITV2HjjjR3BtG+99Vfpl1Zzq5Rb9DXTdciFrN0umhuVXWJLECNs9IXXXNNsfma/LEfVgYkrbNy6J5kEgl0vJ66w0XjcffczgTTQDBSt4aMFlU29G81A0iNs9vGvfGrYxM3iCDs2FJZhEzaHbNd628Iml1u3dF+513qbveZe221qydh7MWpv6XxVAvbufVzkEaw413/be8z9/Yq6jlznl+kYWtw45Ps7h7DJlxzPQQACEIAABCBQMwR8FTaHDx6SpbcvlPVPrWzDutuA3nL+nGtkxfxF8s7ajenvLmv6B+nau4c8ef082b9tZ5tnRlw4QT4xapgcc9yxctqUc+Wt1a/JK4ue81LaIGxq5lerphdSiLCJqrthrpUOq6HiHtswGTaa2dHc/Eq6OGumDBu7qGq2a7rDghd1w5Erbtz1mduFTO2TnTsPBFk3dnHXqNud4gobO2tCX8z1OI3WYSlWho1ZU1QcNBtHX95Vps2efYkMG9Y3NMMm2y9FrsLGrh/jCpuovnIRNlFxibp+PEzY2Nk6pkaTK0HszBo7u8jmFZb1U4waNpMnnxHslUy3X0XFzcwpUxyyxTzT9wibQujxLAQgAAEIQAACNUHAV2Hz+/k/l55D+qcFy5+Xr5VPz/hKwFwzb9YsbJazGi8LsmS07UnnjEpn02gbN8NGJc3eLe8G/fn8Qdj4HB3mZggUImz0xVqvyDZHPMwtURMmDElffx2WYaNjm5dwFTZXXjlebr75F6FFX8MyDvK9Jco+xuO+TNuZE24dEzMH87zJILLFgnlZ1rWFHYuKI2zMS7seS5k0aYR8//u/DbIi9OatYgkbt+6MHYewece9Ucj9jXJvAct2LMuWZa6wierLFTZhWSKF3rplsllc0aXrdce3ZZt9tCiKjb234xwBjHtLlI4XduW3ub497G+/MMZhmU75/s2JsMmXHM9BAAIQgAAEIFAzBHwVNjZglS3ZhM2J40+VPz7x+3YZOZkCpZk3vh2NQtjUzK9WTS+kUGGzcuWm9O0/mlHjipA4wmbUqIFBPRu9NlszOvQT5wU2bmDsl/ZML9Lan2mrEko/JoPGzuSxsyHC+su3Zk5Dw+BAzkydOlb0qE1UJpC9bpVL+tFjWjb7TNeI20epooSN+3ymozpR9WzCMkzC2kbJMzOmFqReufKNYJ12HIww0RpK99zzbPqGMXuuudawMRlFhqeRke7V3CYGrsjROenHliNh2TNGUGnbqKyYTPvbLjat/ObO/eug8LSdXWPi7Na6UYb5xCHu71tYO4RNIfR4FgIQgAAEIACBmiDgq7DRrJkXFzSHMv78HY3y7iubIjNsdm3cKmsfekbOvumr6To1rvTxNXgIG18jw7xsAoUIG0hCAAIQiEMAYROHEm0gAAEIQAACEKhpAr4KGxt6nAwbPRKlR56WzlnYLl5a9+bTN06TvZvfkeS1F1PDpqZ3NIsrBwGETTkoMwYE6psAwqa+48/qIQABCEAAAhAQEV+FjRYdfv7uR2TUFRfI+zv3Zj0SZWrYaO2a3ZvellMv+6s2WTam7s3Y6ZNl1Q8eC/rtNWygd3uADBvvQsKEQgggbNgWEIBAqQkgbEpNmP4hAAEIQAACEPCeQLUIm8cbvxewNLdEaU0bt+hw7+EnyuKZ97a5PUqf0RuivnDnN2Xtw8/Ksd26ygf7308XMPYtQAgb3yLCfMIIIGzYFxCAQKkJIGxKTZj+IQABCEAAAhDwnkC1CJtMRYdb739Shp6fbJMxE1bHRuvibF39R7lo3g3SpWc3L2ODsPEyLEzKIYCwYUtAAAKlJoCwKTVh+ocABCAAAQhAwHsCvgubU6ecI3/42W/a3P5kig5/+N5BefnRpUEGjSthVNg8ef082b9tZ/D9+bOvkWdv/an0GNQvuBlq39Yd7QoT+xAshI0PUWAO2QggbLIRqu3vM90m5a482w1btU2K1RVCAGFTCD2ehQAEIAABCECgJgj4KmzMLVF6BOri+2a2yZ4x9WjMkSgTCK1fYxcdNtd2az0cPSo1ccbUoBaO1rvRjxYpPm3KuV7FEWHjVTiYTAQBhE19bw0jbJqavh5cJa4fc122uWbdXP2t382bN0169jyuvqGx+pwJIGxyRsYDEIAABCAAAQjUGgFfhU0mzlHCxn7GHIlKXnOR/Pa7DwRXfGuRYZU3S29fKNvWrG8ngnyILcLGhygwh2wEEDbZCNX29wib2o6vL6tD2PgSCeYBAQhAAAIQgEDFCFSjsKkYrDIMjLApA2SGKJgAwqZghFXdAUeiqjp8VTN5hE3VhIqJQgACEIAABCBQKgIIm1KRza9fhE1+3HiqvAQQNuXl7dtoZNj4FpHanA/CpjbjyqogAAEIQAACEMiBAMImB1hlaIqwKQNkhiiYAMKmYIRV3QHCpqrDVzWTR9hUTaiYKAQgAAEIQAACpSKAsCkV2fz6Rdjkx42nyksAYVNe3r6NxpEo3yJSm/NB2NRmXFkVBCAAAQhAAAI5EEDY5ACrDE0RNmWAzBAFE0DYFIywqjsgw6aqw1c1k0fYVE2omCgEIAABCEAAAqUigLApFdn8+kXY5MeNp8pLAGFTXt6+jeZe4a3z41pv36JU/fNB2FR/DFkBBCAAAQhAAAIFEkDYFAiwyI8jbIoMlO5KQgBhUxKsVdHp7t0HZObMR4O5zps3TXr2PC745zjCRtssWLBCLrzwDLnlloukS5djqmLNTLIyBBA2leHOqBCAAAQgAAEIeEQAYeNRMEQEYeNXPJhNOAGETf3ujNWr/yyNjQ+2ky6usNm4cbtcf/3D0rdvt0Ds7Np1QO6++xn553++UO69d4lMmDBEpkwZU78gWXlWAgibrIhoAAEIQAACEIBArRNA2PgVYYSNX/FgNggb9kBbAlu37pGVK98IfmgLFyNsbrzxfLnnnmdl27a9QZtZsy4K2qnAQdiwm3IhgLDJhRZtIQABCEAAAhCoSQIIG7/CirDxKx7MBmHDHigeAY5EFY9lPfSEsKmHKLNGCEAAAhCAAAQyEkDY+LVBEDZ+xYPZIGzYAxCAQGUIIGwqw51RIQABCEAAAhDwiADCxqNgUMPGr2Awm0gC1LBhc0AAAqUmgLApNWH6hwAEIAABCEDAewIIG79CRIaNX/FgNuEEEDbsDAhAoNQEEDalJkz/EIAABCAAAQh4TwBh41eIEDZ+xYPZIGzYAxCAQGUIIGwqw51RIQABCEAAAhDwiADCxqNgcCTKr2Awm0gCZNiwOSAAgVITQNiUmjD9QwACEIAABCDgPQGEjV8hIsPGr3gwm3ACCBt2BgQgUGoCCJtSE6Z/CEAAAhCAAAS8J4Cw8StECBu/4sFsEDbsAQhAoDIEEDaV4c6oEIAABCAAAQh4RABh41EwOBLlVzCYTSQBMmzYHBCAQKkJIGxKTZj+IQABCEAAAhDwngDCxq8QkWHjVzyYTTgBhA07AwIQKDUBhE2pCdM/BCAAAQhAAALeE0DY+BUihI1f8WA2CBv2AAQgUBkCCJvKcGdUCEAAAhCAAAQ8IoCw8SgYHInyKxjMJpIAGTZsDghAoNQEEDalJkz/EIAABCAAAQh4TwBh41eIyLDxKx7MJpwAwoadAQEIlJoAwqbUhOkfAhCAAAQgAAHvCSBs/AoRwsaveDAbhA17AAIQqAwBhE1luDMqBCAAAQhAAAIeEWhoaPhQRDp9Y8UPpEOnjh7NrP6mcvTwEfnxxL/XhR9uaWk5pv4IsOJqIUCGTbVEinlCoHoJIGyqN3bMHAIQgAAEIACBIhFIJpOvJxKJEZc/Mlt6nTywSL3STT4Edm3cKg9Pu1VSqdT61tbWU/Lpg2cgUA4CCJtyUGYMCNQ3AYRNfcef1UMAAhCAAAQgICLJZPLJRCJx0SkXT5TzbrtGOnTsAJcKEDh65Kgsue2n8vqTK1TYLG5tbb24AtNgSAjEIoCwiYWJRhCAQAEEEDYFwONRCEAAAhCAAARqg8CYMWO+2LFjx2ZdTY/B/eTE8afJcX1PqI3FVckqDmzfI2+uelX2bn43mHEqlfp8a2vr01UyfaZZhwQQNnUYdJYMgTITQNiUGTjDQQACEIAABCDgJ4FkMnltIpG4R0S6+znDupnVvlQqdWNra+v9dbNiFlqVBBA2VRk2Jg2BqiKAsKmqcDFZCEAAAhCAAARKSWDkyJEDOnfufG4qlRraoUOHbqUci77bEdiTSqU2Hzp0aNm6deu2wQcCvhNA2PgeIeYHgeongLCp/hiyAghAAAIQgAAEIAABCECgzAQQNmUGznAQqEMCCJs6DDpLhgAEIAABCEAAAhCAAAQKI4CwKYwfT0MAAtkJIGyyM6IFBCAAAQhAAAIQgAAEIACBNgQQNmwICECg1AQQNqUmTP8QgAAEIAABCEAAAhCAQM0RSKUeOa/mFsWCIAABrwgkEl9dUuoJJUo9AP1DAAIQgAAEIAABCEAAAhCAAAQgAAEI5EYAYZMbL1pDAAIQgAAEIAABCEAAAhCAAAQgAIGSE0DYlBwxA0AAAhCAAAQgAAEIQAACEIAABCAAgdwIIGxy40VrCEAAAhCAAAQgAAEIQAACEIAABCBQcgIIm5IjZgAIQAACEIAABCAAAQhAAAIQgMD/397dx1pVnXkcX0yqUsQpIBmlvdZS1FZEocM4joUUfGkoUxymaP2jUk2a5v4joliJpEkxYtJgsFWpTRvSmOJbGopYRpsrba0yhVogKLWAmSo6jLdCZ1CsL9jayTB5VvucPHex9vvZ9+5zz/f803DPfln7s9a9zf75rLUQQKCYAIFNMS+ORgABBBBAAAEEEEAAAQQQQAABBGoXILCpnZgbIIAAAggggAACCCCAAAIIIIAAAsUECGyKeXE0AggggAACCCCAAAIIIIAAAgggULsAgU3txNwAAQQQQAABBBBAAAEEEEAAAQQQKCZAYFPMi6MRQAABBBBAAAEEEEAAAQQQQACB2gUIbGon5gYIIIAAAggggAACCCCAAAIIIIBAMQECm2JeHI0AAggggAACCCCAAAIIIIAAAgjULkBgUzsxN0AAAQQQQAABBBBAAAEEEEAAAQSKCRDYFPPiaAQQQAABBBBAAAEEEEAAAQQQQKB2AQKb2om5AQIIIIAAAggggAACCCCAAAIIIFBMgMCmmBdHI4AAAggggAACCCCAAAIIIIAAArULENjUTswNEEAAAQQQQAABBBBAAAEEEEAAgWICBDbFvDgaAQQQQAABBBBAAAEEEEAAAQQQqF2AwKZ2Ym6AAAIIIIAAAggggAACCCCAAAIIFBMgsCnmxdEIIIAAAggggAACCCCAAAIIIIBA7QIENrUTcwMEEEAAAQQQQAABBBBAAAEEEECgmACBTTEvjkYAAQQQQAABBBBAAAEEEEAAAQRqFyCwqZ2YGyCAAAIIIIAAAggggAACCCCAAALFBAhsinlxNAIIIIAAAggggAACCCCAAAIIIFC7AIFN7cTcAAEEEEAAAQQQQAABBBBAAAEEECgmQGBTzIujEUAAAQQQQAABBBBAoOECR4/+cHbDm0jzEEBgiAVefnns8x/96KW/H+JmpN6ewKbJvUPbEEAAAQQQQAABBBBAoLDA0aPrjhY+iRMQQKCrBPbsOe2tkSP/74wzzpjx3019cAKbpvYM7UIAAQQQQAABBBBAAIFSAgQ2pdg4CYGuEnjmmUnuhBPea3RoQ2DTVUOSh0UAAQQQQAABBBBAYPgLENgM/z7mCRGoKiCBjXyaHNoQ2FTtZc5HAAEEEEAAAQQQQACBRgkQ2DSqO2gMAo0U0MCmyaENgU0jhw6NQgABBBBAAAEEEEAAgbICBDZl5TgPge4RsIFNU0MbApvuGY88KQIIIIAAAggggAACXSFAYNMV3cxDIlBJIAxsmhjaENhU6mJORgABBBBAAAEEEEAAgaYJENg0rUdoDwLNE4gFNk0LbQhsmjduaBECCCCAAAIIIIAAAghUECCwqYDHqQh0iUBSYNOk0IbApksGI4+JAAIIIIAAAggggEC3CBDYdEtP85wIlBdIC2yaEtoQ2JTvX85EAAEEEEAAAQQQQACBBgoQ2DSwU2gSAg0TyApsmhDaENg0bNDQHAQQQAABBBBAAAEEEKgmQGBTzY+zEegGgTyBzVCHNgQ23TASeUYEEEAAAQQQQAABBLpIgMCmizqbR0WgpEDewGYoQxsCm5Kdy2kIIIAAAggggAACCCDQTAECm2b2C61CoEkCRQKboQptCGyaNGJoCwIIIIAAAggggAACCFQWILCpTMgFEBj2AkUDm6EIbQhshv0w5AERQAABBBBAAAEEEOguAQKb7upvnhaBMgJlApvBDm0IbMr0LOcggAACCCCAAAIIIIBAYwUIbBrbNTQMgcYI/Pa3HyzdluOP/9/9H/nIkY+NGPHPfyp9kRwnEtjkQOIQBBBAAAEEEEAAAQQQ6BwBApvO6StaikCnCowYcWXteUrtN+hUfNqNAAIIIIAAAggggAACnSlAYNOZ/UarEegkAQKbTuot2ooAAggggAACCCCAAAKNEKga2LzxxhF3/fXr3eLFs9306R92Gzf+2q1Y0Rd9tlNP/Vt3zz1XuokTx7uXXz7kFi1a5+bMOdstXnxR6/g//vHP7rbb+tzjj+91a9Z8wV8z9lm9+km3c+cr7u67r/BfSxvkI/8eM2ZU22y1Pf39bwy4trZfbqTPlHZTdfnMZya7r31trhs58rjo4Tt3/pfr7X0oV/uXL5/r5s+f6sJzrLNeSPvp4x8/xZ144vHu6qsvaDmJ5dq12wZ46/P19s7w92jXRxz27399QJ/LtdVHnym8n7YxTzuuueaCAddXn/Dnes2se9pxmOWi3x88+GZqU9P6qKdnjB8jBw78wf+OTJvW46666ny3dOkjbsWKea3fidjv2owZH/X33br1pWPun/SccqCOjzp+h+SaBDZ5Ri7HIIAAAggggAACCCCAAAJGoGpgY18a9cU2fPmTcEJCmF27+lvhhr5Ehy+R+vO0YEOvv3v3qz5kmDRpfG2BTayd9v5CGQYBaaFV0uALw5e0l+sw3JA2btiwy7/kS8C0fPlj7ppr/smtXv2UEyP5rFw53z3wwI7Wv/X6+iwSEowefYJbv/7Z1N+PtHZl/WLZMCMM47L6XcKVTZueb42fWMCQFALGAqmsgKKsS1IbrE34LPpdGCzZNixaNMt9//u/8v1jx1ue++l4SQtAszyy+jbrewKbLCG+RwABBBBAAAEEEEAAAQQCgSqBTVj1MGXKBwdUvGilgNzSBjaPPvobX9FhPxLQXHfdbHfzzT9yhw697V/M5TitorFVM3pffXGNvWwmVXIUGQD2urNmneG+/e1/98/X17fXVwDJ/eUjzxKGNvY+0pY1a7b6Z5KPVE0kVa6UrbCRwEYCl1NOOckHY0uWXOwrmfSjzzJ9+mnu85//ezdhwgf8V0nBWVYlSRFHe2zMNO1aGhCVCWySLOWaUuUTjkFph4YaZV3KVtjEKstsYKNVWffe+0s3dWqPO+ecCb5KK9bO8GcENmVHK+chgAACCCCAAAIIIIAAAkMoUCWw0WbrC2JWYGOnFemUpltv/ay75ZYfO1vhoS/pseqB2FSkMLDZvPmF1rQsWxGiL65p4YrtCg2GNKSRIOTkk090e/YcGBDQ6HX1+TVcEhepcpGw5+GHdw0IbC6/fJrbvPnF1lSy0LJMhY0NbCSQSauWEYPe3pkDgrTXXz+SOh0razpXO4ZxUqVHmSlRYcWK9tMVV3zCbdmyz0810iDEhhoShtiAsYhLnoqXWIVNrMIoFtiExrFrhQFNeEzeUEnvFZu+VbSvqbApKsbxCCCAAAIIIIAAAggg0PUCVQMbffnTdTa++91fuBtvvKQVwsgLsXzkBVgDG/m3rDkjIY1W1Rw9etS99to7LmntD6l80BdpqW6x4UhS1UY4BSSszMnq/HBqUzitKHa+hkF6r2uv/ZQPZrRqSM6RChsJbM466++8gwYha9ZsiVZ9pLVTzp03b4p77LHdqRU2WsEhFTi6ZpCGBPpCrsFE6KbnSjvS1t/J8rShiz7zpk2yVtFfqo+kIihtvZmiU6KSAhtd50WmjekaSTbkkOeQdYTKuOQNQ2wIYqfY2VDMVt2EthLozZkzubXek34v4+/008f5wFL7MSmwsYFVLCjT+9upjFl9nPQ9gU1ZOc5DAAEEEEAAAQQQQACBrhWoEtjEXk4l1JDPXXc92VpQOFy49/DhI61pQT09Y/3LcVLVi60ykOqWBx/c4a8fC2x0vZaw0qVK59pAKm9YYRdElmqbtClRdqqSBClhdUSsyiKc8qJr2MSmRMl3sqbNqlWf83Ya2NgwIAwmkrzaUWETPs9LLx1yt9/+09baOnLvWEVHlSlROrbs2j/nnfchd+edP/eL+EofaZgkwZGEXxIKDpZLGGRNmTLB3XHHE61uSKpw0bE5fvxoX6kl/SyLeMsnNt1Lr6OhIYFNlb8MnIsAAggggAACCCCAAAII1CxQJbCRF00JCaSCRHYfevvtP/nWzp072VeO6ItyGNjs23eoFdLYaoCtW/dFXzQ1gLnvvm2t75MCm7zTnfKy2mlR7777Z3fkyHuJu2C1I9AosmCxXag4XMPmssvO9WsAyf9KeKaBjTy3Bk/6bGUqSfL6hcclTfOxoUWsD6tMiQrbcNNNl7jduw/4UCasbpKqFB2HRV3KVkjZIDIcQ2nrz6iJ/C7YwMbuuqbPbgMvApuyo5fzEEAAAQQQQAABBBBAAIFBFKgS2EgzbYWIhANStXDSSSMHbMsdBja6a5S8MMvHBjJ22kss6Hn33ff8or86vSopxGkHYVhBFJtuYg10kWV5vnAnqaT2JO0wFe64Za+dp8LGBjbLlm30wYSEaxKqaWCzd+8Bt3Hjc349F6ksKbJWS1nfWGATC2Oygrc8uxolTYmSoGvWrDN9qChVWboIsY49CeaquNgKKx3r4bbw1k/6Qe4p6x3ZfpZjkhY/tt+VDWyyth7XNrKGTdnRznkIIIAAAggggAACCCCAQAWBdgY28l/27TQNWaxXpptkLSSrL4RSEZIW2Mi1bIgjL7daJSEvxPLRe+qLbtpWxlls4RovssZKrOIhqWokaQ0QPV7XtbG7OZWZEhUGZ9oPEp5phY0EMs899zu3ffv+AevQ2MqLutewCcOtcOqPBCc6RU6O1XExduyoVriS1Wc2ALSVXHa6WViZ9OUvf9JXI9mxV9Yl7FtZ/FnWb9Jw0rbfhlJJGnyzHwAAFnVJREFUYyj8uZwvlTxXX31BayqX7KSmFTYyzUl+F3R6oByvgZTuuKZTEpkSlWc0cQwCCCCAAAIIIIAAAgggMEQC7Q5sYgv7xgKbpMVZ7X/NDytswsAmLRCK7QilbUvbgSnsBrvWi1Qy6PbeNghK280nfIG34UPS4r6xl/vY8LDTwuxUKrnuuHGjfLVTGNhs2PBrt3Dh+e755w/6xYdjwUTSUCwyXSd2Ddvncq2lSy91q1b9rLWujp4jZrIeS7g1ub1m1Qqb+fOnDmhiuEZOWRdbLWQXyk6rsAmDrHCtJNsWHT+yPbv2nw1sZA2bcEpU7Pco7J88nlX+RLHocBU9zkUAAQQQQAABBBBAAIGuFGhnYCOAsthpuOhvuHCvvEDqdBR5qe3vP+wrK7LWsCkS2OiLsw1Fiu4SFbtG2hozSWvYhNOjikwxybO1s60mEkN9gV+79lc+sJEpUXLPG264yN1//3Z39tmnuhNPPD4xsMmzS1SeECD8hQqnPmVNe0r7hcwTMKhLeJ0wsIs9S5kKG9nuXRbQtsGebglfJbCxW4XPmDHJ38PuAGUXGI6Z5umrPJ5V/kAS2FTR41wEEEAAAQQQQAABBBDoSoF2Bjb6X/zlpVK2S7Yv6DakCKsZFD78ed4KGzk/FqS0YxHgcFDkmRIVW3zWhgSxNVuuuuof3GuvHYlOnUkbmPKMsmjt+973Nz6AiVUu2QAtDKHUfObMSW79+mczfwfUVEM3rfTIPNE537Ynn/yt+9KXPhltZ+waEkBoEJjnHnqMnKfhRmyXqNiW2GEfyRSpIi6XXPIx98QT/+EWLJjmx3+edYy0bVnBXFidZBeOjlXYxLYET6ssI7ApMro4FgEEEEAAAQQQQAABBBAYBIGqgc0gNJFbNFCgHWsENfCxaFJNAlTY1ATLZRFAAAEEEEAAAQQQQGD4ChDYDN++5ckQaIoAgU1TeoJ2IIAAAggggAACCCCAQMcIENh0TFfRUAQ6VoDApmO7joYjgAACCCCAAAIIIIDAUAkQ2AyVPPdFoHsECGy6p695UgQQQAABBBBAAAEEEGiTAIFNmyC5DAIIJAoQ2DA4EEAAAQQQQAABBBBAAIGCAkUDm9juM1m3tLs16fm7dvW7e+650k2cON6frrvgjB8/2slWyLKFt/2EW4OPHHmc/1p2OZJdcmLnZLUr6XvdCSrcIll/nrbbTp5jyrarHefpLlFpz5B0n6w+qtI+3aXo0KG3B4yLotfU52vXDmHSruXLH3NLllzcGqvSpqxdlWK7dSU9S7jNu4yh7dv3O9kJSnfj2r371ejpdowm7b6mC0SnmWh7e3tnuPnzp7Z2XSszTmINJbApOpI5HgEEEEAAAQQQQAABBLpeoGxgEwYuMchYyJIUvGQFHfr9TTdd4h54YIc7ePDNxL6z21iX6eAqgU24bbYNo8I2h4FQrK02IFuz5gt+u+g8n6TzhiKwyRMYVAlsYiFiuwKbpAAoq190nM+Zc7bfbl0+sTEehix2K3D7DOG5aqpjSNvT3//GgPAyq506lvT6es9Nm/a6FSv6HIFNnt82jkEAAQQQQAABBBBAAAEEahAoG9g8/vhe35q8L8ZJlTkSrixePNtXMYSBhl5b7nPbbX0ufBmVnw9lhY2+NMtLbU/PWNfb+9AxPSTVEzfccJG7664nnb68x17mk7rWvsAXCWzKnlfDEGsFFXnHStE26NiS86ZMmeDuuOOJ3OMyz700zLj22k+5zZtfdEnVLn+5/wd9YHL48BG3aNG6Vp/nCWzkGDnH/h5oYKJt0DFgA5vLLjv3mPPkWnJsf/9hH7xIsKPHaRWNPruOR/m3Vr2FAVFSpVEePzmGCpu8UhyHAAIIIIAAAggggAACCPxVoGhgE77kpVW6yLFhBYBW5owdO8pdf/16f7menjFOAiB9GdWwQX4u00L27DngwxC5Vm/vTB/eaGAU68giwUbs/KwKG/viLoGMBDHyMqzPJO1euvRSt2rVz5w8b57ARu+p7bEv2NZYA4F9+w4dExDpc8em4+h59923za1du21A5UR4fFKFUjglStoqfSjTmFat+px78MEdrX7RtmiFinWOVW1UqbCx1w4rRXTqnByTp9KnzB+GWOVMlSlRNtzMCmz0ezulSZ5BQhqtRrPTDGPTprSPbMWXfaZZs870/SxBVdnqNQKbMiOLcxBAAAEEEEAAAQQQQKCrBcoGNra6RNa8yPqEa9douCEvgfKi+Pvfv+XDGXnBtoGNBh8S0NjARu6nx+u9tU3tCmzsM8m9Tz99nH8Rlk+47oj8zFbOaLAkVUFaQZRUYROGNXKtrMBm8+YXWm3Rdmqb5N9hpUZSYKNm9lnLBDYnn3yiD9b0E96vTGATa1t4/XCto3YGNmHoIuNq0qTxPryYPv00P9Upa02molOi5PnstLqtW/f5cachTFhhEwt0pKpmzZqtLuwT2wda7aRhqHxng7RYVVGVCikCm6y/kHyPAAIIIIAAAggggAACCAQCZQObrDVnQuikwEaOkykkUvkhL6YS/th1bubNm+LDBw0xmlBhk7SuR6wqQdqdFdikrSuTd2pTbAqLVkXYAMvea86cya1qJVtdsWXLi76SImnhZ63YkGfTe+j5GrLYQCstRNFxMhgVNmV/+e10JAls+vr2+GlX9hOuR1R2DZuwIklCkgULprmf/OR5t2XLvtaUpTAw1amBt9/+r+5b33rKV3bZRb1tW/V5br31s+473/lFawpWLLDR86quZUNgU3b0cR4CCCCAAAIIIIAAAgh0rUDZwCY21SUJUV72bDhgj5NgYOHC892yZRv9jyVcGDdulA9ppk3rcV/84j+6r3xlg3+pHOwKm6K7RNnpJvIs+gxXXXW+W7r0kcQ1bMIKG1vJkBTYJE250RfrpPNsYKNTXfLuzJQ2JUrDgVjwMpwCG1302fqnVVtlTRmUcWIro+688+d+3D/88C7/eyHBkASafX17B4QwNrDR3y0JaVasmOdWr37KTzPUcRdrg4yT88770IBKrFhgE3u2Mn8sCWzKqHEOAggggAACCCCAAAIIdLVA2cAmD5qtTDjnnAm+miO2ho28kOoUH7sIsUwnufrqC9yOHftbi/Z2SoWN+OguO/pinLbocFJoY7d1Dtf4kXvoduZlKmy0XXKdpGoM28+DHdi0e0pUnjEbOyZc8DcWluUJNvJWpclxMqVJ+uTRR3/j3nnnPV9dI0GOTgMMK2xCKxvI2GlZYdDzyCO73GmnjfWVUlkhTlk/OY/Apooe5yKAAAIIIIAAAggggEBXCtQZ2Ni1OLICG1m7RgKduXMnu/e//3i/a1Qs4NDARjqr7jVssipsdJrXKaec1Nq62b44h2vK5NklKqxQsWv9hIsK69QktZN1fopU2LRrSpSt0BnOFTYrV873W8rrLlESLuoUJF0EW8dMbF2itD8wYXWLBjYTJ45vrWkTq4CxP7NBkl0DKSmw0bWndMxeccUnfDAkn5kzJ7n1659tjSe7E1f4e5fnDyeBTR4ljkEAAQQQQAABBBBAAAEEjEDRwCbv7jfyIrl//+t+RyIJGrICG7teSrj+R2wx3zy7RNm2FlmI2O4SpQsNyzQl3TJaX5JjC87ae+rUpgMH/jBgi+fw+WLTy8ItzfV5JSS48caL3Ve/+m8Dtn++8MKJ7umnXz7mBduep2sF2V2iYsFCmUWH06ZExao/woWqB2MNm3D3MbuDVNIfBds3MobkI2FiWJEkjjLeZSHipE+ZChu5lq7hZO8Zu1bSNEUbPMYWC4/9LKliK+/0udCAwIb/20EAAQQQQAABBBBAAAEECgoUDWzyXj4MMyZM+EB0O+5YOBC+QMYCG2lHVoWNvMBK4NLTM9av66HTh7KeIRZi2MBGX4CTth+X6+uWyjKNJWktEb1ObKFZ+2w2BFIvu0uUBEjy0SlYGobEzott6x0GKkm7AZWdEiVts8841Nt6511ANwwn80x7ShtbRQMb3Q5e1qAJ22yr12RdHbtO0HXXzXbr1u10l176cb92UtIaNmGFTVoFj10InAqbrL8gfI8AAggggAACCCCAAAIItEGgnYFNLOjQypasXaL27Tvkensfaj2RDXLsy6Jsk61TUtIeX+6rWyIXDWz0ZTicEmUX8rX3DhdK1hdabbdML5GpJnmmRLWhS7lEgoBdG0amGuX53HvvL91FF53l7NSktPMk1Fm27NNu5cqfRoOSpHPDXbV0SpQc/4Mf7HRLllzstFJLAxgdn7EdqeS82M/zVtikjXVdeDmPnx5DhU0RLY5FAAEEEEAAAQQQQAABBJxz7QxsmgZadkpU056D9lQXqLoGS/UWdPcVCGy6u/95egQQQAABBBBAAAEEECghMJwDmxIcnIIAAjUIENjUgMolEUAAAQQQQAABBBBAYHgLENgM7/7l6RBoggCBTRN6gTYggAACCCCAAAIIIIBARwkQ2HRUd9FYBDpSgMCmI7uNRiOAAAIIIIAAAggggMBQChDYDKU+90agOwQIbLqjn3lKBBBAAAEEEEAAAQQQaKMAgU0bMWu4VGwraF1A9/HH9zrdhcveOtyRS3dE0h2CYufo+XpMuEOW7Jy1c+crbuHC892yZRsH3DfcFjyJIbaFuxyru3IlbSdeAyuXHGQBAptBBud2CCCAAAIIIIAAAggg0PkCBDbN7cOk4MVuc65biNunsNuJv/32n5wEO2mfe+650j322O7ocbrd9KOP/sYHNpdfPs1t2/afTrZXv/vuK9yYMaNcbKvoWIBkz7Ghkx5LYNPcsVi1ZQQ2VQU5HwEEEEAAAQQQQAABBLpOgMCmmV2ulTVh6yQk6evbe0y4osGKVNPouWElTZ4KmyQNrbDRkMYeV6bCxm6zPWXKBHfHHU84AptmjsV2tIrAph2KXAMBBBBAAAEEEEAAAQS6SoDAppndHU6F0mlDMlVp7dptzk5Zku82bXreSaXM2LGj3PXXr/cPJeHK5s0vuBUr+hIfUq+jVTkHD7454Nhrr/2U27z5Rbd796vHXGP58rlu/vyppSps7MX0WQlsmjkW29EqApt2KHINBBBAAAEEEEAAAQQQ6CoBAptmdndSYCOhxltv/dEtWXKx07VpbGDz3HO/8wGNrhcjgc2aNVt9mKPHyxO/8cYRH+xMn36aW7z4IqeBzYoV89z06R9u/bu3d4abM2eyu+22vgHToKxamQobAptmjru6WkVgU5cs10UAAQQQQAABBBBAAIFhK0Bg08yuTQpsZJqTfDZs2OVk/Rr5SJiya1e/+/rX/8V985s/99UwNrApUmFTJrCpKkiFTVXB5p9PYNP8PqKFCCCAAAIIIIAAAggg0DABApuGdchfm5O0hs3KlfPdAw/s8KGMTGfq7Z3ZCmy+8Y0F7v77t/v1bcpW2IRTomTa06xZZ/pqHJ0WpWvjxBYOzqMZ7kBFYJNHrbOPIbDp7P6j9QgggAACCCCAAAIIIDAEAgQ2Q4Ce45ZpFTbjxo1yixatcxKu6CLEugOThCqyKLH+O+8aNtoknSrV0zPGV/CMHHlca42aCy+c6J5++uVjthK3CwjLOfJvCXjsNdIemcAmx4Do8EMIbDq8A2k+AggggAACCCCAAAIIDL4Agc3gm+e5Y1pgI2vMyPf797/uLrvsXPe97/2yFdBIwGLXmym6hs20aT3+WlpNI9Uw8tGFjuV/tconXP9m/PjRPkCSj63Isc+rCxXbnxHY5BkRnX0MgU1n9x+tRwABBBBAAAEEEEAAgSEQILAZAvQct8wKbPQSWt2iFTWxwCbPGjZ6Pw1jpDpm7tzJrR2nZIrVwoXnu2XLNrYCmwULprYWJJZpWLq1uO5UVbXCRhcztluW56DjkAYKENg0sFNoEgIIIIAAAggggAACCDRbgMCmmf2TtIaNrh+jrQ6nMMnPi1bY6Do4Evrceutn3S23/NhPZ7ruutnu5pt/5KttdLHj3t6HWoHN4sWzXX//Yb8rlexeNXr0CW7Lln1OFi5evfqpSlOiNIhasGCav8f27ftbU7Sa2WO0Kk2AwIbxgQACCCCAAAIIIIAAAggUFCCwKQg2SIenVdhMmjT+mClH4ULAEr5I6CKVL1kfXQTYbs+tiw1LWPPMM68M2Ppb1s6Ripvbb5/vXnzxf9y6dc+0thnX7cHDxYttG2LTosI2Ethk9VpnfU9g01n9RWsRQAABBBBAAAEEEECgAQIENg3oBJoQFWBK1PAZGAQ2w6cveRIEEEAAAQQQQAABBBAYJAECm0GC5jYIdLEAgU0Xdz6PjgACCCCAAAIIIIAAAuUECGzKuXEWAgjkFyCwyW/FkQgggAACCCCAAAIIIICAFyCwYSAggEDdAgQ2dQtzfQQQQAABBBBAAAEEEBh2AgQ2w65LeSAEGidAYNO4LqFBCCCAAAIIIIAAAggg0HQBApum9xDtQ6DzBQhsOr8PeQIEEEAAAQQQQAABBBAYZAECm0EG53YIdKEAgU0XdjqPjAACCCCAAAIIIIAAAtUECGyq+XE2AghkCxDYZBtxBAIIIIAAAggggAACCCAwQIDAhgGBAAJ1CxDY1C3M9RFAAAEEEEAAAQQQQGDYCRDYDLsu5YEQaJwAgU3juoQGIYAAAggggAACCCCAQNMFCGya3kO0D4HOFyCw6fw+5AkQQAABBBBAAAEEEEBgkAUIbAYZnNsh0IUCBDZd2Ok8MgIIIIAAAggggAACCFQTILCp5sfZCCCQLUBgk23EEQgggAACCCCAAAIIIIDAAAECGwYEAgjULUBgU7cw10cAAQQQQAABBBBAAIFhJ0BgM+y6lAdCoHECBDaN6xIahAACCCCAAAIIIIAAAk0XOHr0h7Ob3kbahwACnS0wYsTnn6r7CUbUfQOujwACCCCAAAIIIIAAAggggAACCCBQTIDAppgXRyOAAAIIIIAAAggggAACCCCAAAK1CxDY1E7MDRBAAAEEEEAAAQQQQAABBBBAAIFiAgQ2xbw4GgEEEEAAAQQQQAABBBBAAAEEEKhdgMCmdmJugAACCCCAAAIIIIAAAggggAACCBQTILAp5sXRCCCAAAIIIIAAAggggAACCCCAQO0CBDa1E3MDBBBAAAEEEEAAAQQQQAABBBBAoJgAgU0xL45GAAEEEEAAAQQQQAABBBBAAAEEahcgsKmdmBsggAACCCCAAAIIIIAAAggggAACxQQIbIp5cTQCCCCAAAIIIIAAAggggAACCCBQuwCBTe3E3AABBBBAAAEEEEAAAQQQQAABBBAoJkBgU8yLoxFAAAEEEEAAAQQQQAABBBBAAIHaBQhsaifmBggggAACCCCAAAIIIIAAAggggEAxAQKbYl4cjQACCCCAAAIIIIAAAggggAACCNQuQGBTOzE3QAABBBBAAAEEEEAAAQQQQAABBIoJENgU8+JoBBBAAAEEEEAAAQQQQAABBBBAoHYBApvaibkBAggggAACCCCAAAIIIIAAAgggUEyAwKaYF0cjgAACCCCAAAIIIIAAAggggAACtQsQ2NROzA0QQAABBBBAAAEEEEAAAQQQQACBYgIENsW8OBoBBBBAAAEEEEAAAQQQQAABBBCoXYDApnZiboAAAggggAACCCCAAAIIIIAAAggUEyCwKebF0QgggAACCCCAAAIIIIAAAggggEDtAgQ2tRNzAwQQQAABBBBAAAEEEEAAAQQQQKCYwP8D+urDokTawGcAAAAASUVORK5CYII=;" vertex="1" parent="1">
          <mxGeometry width="1132" height="838" as="geometry" />
        </mxCell>
      </root>
    </mxGraphModel>
  </diagram>
</mxfile>
